SplineFontDB: 3.2
FontName: ProFontIIxC
FullName: ProFont IIxC
FamilyName: ProFontIIx
Weight: Book
Copyright: ProFont Distribution 2.2  Generated by Fontographer 4.1.5, edited by FontForge. Experimental Version IIx.
Version: Macromedia Fontographer 4.1.5 5/11/97
ItalicAngle: 0
UnderlinePosition: -138.889
UnderlineWidth: 55.5556
Ascent: 800
Descent: 200
InvalidEm: 0
sfntRevision: 0x00010000
LayerCount: 2
Layer: 0 1 "Back" 1
Layer: 1 1 "Fore" 0
XUID: [1021 962 1058026361 5499]
StyleMap: 0x0040
FSType: 0
OS2Version: 1
OS2_WeightWidthSlopeOnly: 0
OS2_UseTypoMetrics: 0
CreationTime: 863385165
ModificationTime: 1745794742
PfmFamily: 81
TTFWeight: 400
TTFWidth: 5
LineGap: 0
VLineGap: 0
Panose: 0 0 4 0 0 0 0 0 0 0
OS2TypoAscent: 1011
OS2TypoAOffset: 0
OS2TypoDescent: -222
OS2TypoDOffset: 0
OS2TypoLinegap: 0
OS2WinAscent: 1011
OS2WinAOffset: 0
OS2WinDescent: 222
OS2WinDOffset: 0
HheadAscent: 1011
HheadAOffset: 0
HheadDescent: -222
HheadDOffset: 0
OS2SubXSize: 700
OS2SubYSize: 650
OS2SubXOff: 0
OS2SubYOff: 143
OS2SupXSize: 700
OS2SupYSize: 650
OS2SupXOff: 0
OS2SupYOff: 453
OS2StrikeYSize: 50
OS2StrikeYPos: 259
OS2Vendor: 'Alts'
OS2CodePages: a0000001.80d40000
OS2UnicodeRanges: 800000af.5000204a.00000000.00000000
Lookup: 1 0 0 "'rtla' Right to Left Alternates in Latin lookup 0" { "'rtla' Right to Left Alternates in Latin lookup 0 subtable"  } ['rtla' ('DFLT' <'dflt' > 'latn' <'dflt' > ) ]
Lookup: 1 0 0 "<3,1> All Capitals in Latin lookup 1" { "<3,1> All Capitals in Latin lookup 1 subtable"  } [<3,1> ('latn' <'dflt' > ) ]
Lookup: 1 0 0 "<3,2> All Lower Case in Latin lookup 2" { "<3,2> All Lower Case in Latin lookup 2 subtable"  } [<3,2> ('latn' <'dflt' > ) ]
Lookup: 254 0 0 "<3,4> Initial Caps in Latin lookup 3" { "<3,4> Initial Caps in Latin lookup 3 subtable"  } [<3,4> ('latn' <'dflt' > ) ]
Lookup: 1 0 0 "<3,4> Initial Caps in Latin lookup 3 nested-substitutions 0" { "<3,4> Initial Caps in Latin lookup 3 nested-substitutions 0 subtable"  } []

StartChar: .notdef
Encoding: 65536 -1 0
Width: 500
GlyphClass: 1
Flags: W
LayerCount: 2
Fore
SplineSet
62 0 m 1,0,-1
 62 778 l 1,1,-1
 438 778 l 1,2,-1
 438 0 l 1,3,-1
 62 0 l 1,0,-1
126 62 m 1,4,-1
 376 62 l 1,5,-1
 376 716 l 1,6,-1
 126 716 l 1,7,-1
 126 62 l 1,4,-1
EndSplineSet
Validated: 1
EndChar

StartChar: exclam
Encoding: 33 33 8
Width: 666
GlyphClass: 1
Flags: W
LayerCount: 2
Fore
SplineSet
333 222 m 1,0,-1
 222 222 l 1,1,-1
 222 778 l 1,2,-1
 333 778 l 1,3,-1
 333 222 l 1,0,-1
333 56 m 256,4,5
 333 33 333 33 317 16.5 c 128,-1,6
 301 0 301 0 278 0 c 256,7,8
 255 0 255 0 238.5 16 c 128,-1,9
 222 32 222 32 222 56 c 256,10,11
 222 79 222 79 238 95 c 128,-1,12
 254 111 254 111 278 111 c 256,13,14
 301 111 301 111 317 95 c 128,-1,15
 333 79 333 79 333 56 c 256,4,5
EndSplineSet
Validated: 1
EndChar

StartChar: quotedbl
Encoding: 34 34 9
Width: 666
GlyphClass: 1
Flags: W
LayerCount: 2
Fore
SplineSet
444 556 m 1,0,-1
 333 556 l 1,1,-1
 333 889 l 1,2,-1
 444 889 l 1,3,-1
 444 556 l 1,0,-1
222 556 m 1,4,-1
 111 556 l 1,5,-1
 111 889 l 1,6,-1
 222 889 l 1,7,-1
 222 556 l 1,4,-1
EndSplineSet
Validated: 1
EndChar

StartChar: numbersign
Encoding: 35 35 10
Width: 666
GlyphClass: 1
Flags: W
LayerCount: 2
Fore
SplineSet
556 333 m 1,0,-1
 444 333 l 1,1,-1
 444 222 l 1,2,-1
 333 222 l 1,3,-1
 333 333 l 1,4,-1
 222 333 l 1,5,-1
 222 222 l 1,6,-1
 111 222 l 1,7,-1
 111 333 l 1,8,-1
 0 333 l 1,9,-1
 0 444 l 1,10,-1
 111 444 l 1,11,-1
 111 556 l 1,12,-1
 0 556 l 1,13,-1
 0 667 l 1,14,-1
 111 667 l 1,15,-1
 111 778 l 1,16,-1
 222 778 l 1,17,-1
 222 667 l 1,18,-1
 333 667 l 1,19,-1
 333 778 l 1,20,-1
 444 778 l 1,21,-1
 444 667 l 1,22,-1
 556 667 l 1,23,-1
 556 556 l 1,24,-1
 444 556 l 1,25,-1
 444 444 l 1,26,-1
 556 444 l 1,27,-1
 556 333 l 1,0,-1
333 444 m 1,28,-1
 333 556 l 1,29,-1
 222 556 l 1,30,-1
 222 444 l 1,31,-1
 333 444 l 1,28,-1
EndSplineSet
Validated: 1
EndChar

StartChar: dollar
Encoding: 36 36 11
Width: 666
GlyphClass: 1
Flags: W
LayerCount: 2
Fore
SplineSet
556 222 m 0,0,1
 556 130 556 130 491 65 c 128,-1,2
 426 0 426 0 333 0 c 1,3,-1
 333 -111 l 1,4,-1
 222 -111 l 1,5,-1
 222 0 l 1,6,7
 130 0 130 0 65 65 c 128,-1,8
 0 130 0 130 0 222 c 1,9,-1
 111 222 l 1,10,11
 111 176 111 176 144 143.5 c 128,-1,12
 177 111 177 111 222 111 c 1,13,-1
 222 333 l 1,14,15
 130 333 130 333 65 398 c 128,-1,16
 0 463 0 463 0 556 c 256,17,18
 0 648 0 648 65 713 c 128,-1,19
 130 778 130 778 222 778 c 1,20,-1
 222 889 l 1,21,-1
 333 889 l 1,22,-1
 333 778 l 1,23,24
 425 778 425 778 490.5 712.5 c 128,-1,25
 556 647 556 647 556 556 c 1,26,-1
 444 556 l 1,27,28
 444 602 444 602 411.5 634.5 c 128,-1,29
 379 667 379 667 333 667 c 1,30,-1
 333 444 l 1,31,32
 424 444 424 444 490 378.5 c 128,-1,33
 556 313 556 313 556 222 c 0,0,1
222 444 m 1,34,-1
 222 667 l 1,35,36
 176 667 176 667 143.5 634 c 128,-1,37
 111 601 111 601 111 556 c 256,38,39
 111 510 111 510 143.5 477 c 128,-1,40
 176 444 176 444 222 444 c 1,34,-1
444 222 m 256,41,42
 444 268 444 268 411.5 300.5 c 128,-1,43
 379 333 379 333 333 333 c 1,44,-1
 333 111 l 1,45,46
 379 111 379 111 411.5 143.5 c 128,-1,47
 444 176 444 176 444 222 c 256,41,42
EndSplineSet
Validated: 1
EndChar

StartChar: percent
Encoding: 37 37 12
Width: 666
GlyphClass: 1
Flags: W
LayerCount: 2
Fore
SplineSet
556 222 m 0,0,1
 556 130 556 130 507 65 c 128,-1,2
 458 0 458 0 389 0 c 256,3,4
 320 0 320 0 271 65 c 128,-1,5
 222 130 222 130 222 222 c 0,6,7
 222 234 222 234 224 257 c 1,8,-1
 111 143 l 1,9,-1
 111 0 l 1,10,-1
 0 0 l 1,11,-1
 0 190 l 1,12,-1
 146 336 l 1,13,14
 78 350 78 350 39 412 c 0,15,16
 0 471 0 471 0 556 c 0,17,18
 0 648 0 648 49 713 c 128,-1,19
 98 778 98 778 167 778 c 2,20,-1
 556 778 l 1,21,-1
 556 588 l 1,22,-1
 411 443 l 1,23,24
 474 430 474 430 515 367 c 128,-1,25
 556 304 556 304 556 222 c 0,0,1
444 634 m 1,26,-1
 444 667 l 1,27,-1
 310 667 l 1,28,29
 333 614 333 614 333 556 c 0,30,31
 333 533 333 533 332 522 c 1,32,-1
 444 634 l 1,26,-1
222 556 m 256,33,34
 222 602 222 602 206 634.5 c 128,-1,35
 190 667 190 667 167 667 c 256,36,37
 144 667 144 667 127.5 634 c 128,-1,38
 111 601 111 601 111 556 c 256,39,40
 111 510 111 510 127 477 c 128,-1,41
 143 444 143 444 167 444 c 256,42,43
 190 444 190 444 206 477 c 128,-1,44
 222 510 222 510 222 556 c 256,33,34
444 222 m 256,45,46
 444 268 444 268 428 300.5 c 128,-1,47
 412 333 412 333 389 333 c 256,48,49
 366 333 366 333 349.5 300.5 c 128,-1,50
 333 268 333 268 333 222 c 256,51,52
 333 176 333 176 349.5 143.5 c 128,-1,53
 366 111 366 111 389 111 c 256,54,55
 412 111 412 111 428 143.5 c 128,-1,56
 444 176 444 176 444 222 c 256,45,46
EndSplineSet
Validated: 1
EndChar

StartChar: ampersand
Encoding: 38 38 13
Width: 666
GlyphClass: 1
Flags: W
LayerCount: 2
Fore
SplineSet
580 281 m 1,0,-1
 467 167 l 1,1,-1
 573 59 l 1,2,-1
 497 -18 l 1,3,-1
 389 90 l 1,4,-1
 324 24 l 1,5,6
 277 0 277 0 222 0 c 0,7,8
 130 0 130 0 65 65 c 128,-1,9
 0 130 0 130 0 222 c 0,10,11
 0 278 0 278 24 324 c 1,12,-1
 89 388 l 1,13,-1
 24 453 l 1,14,15
 0 500 0 500 0 556 c 0,16,17
 0 648 0 648 65 713 c 128,-1,18
 130 778 130 778 222 778 c 2,19,-1
 291 778 l 2,20,21
 354 778 354 778 399 733 c 128,-1,22
 444 688 444 688 444 626 c 0,23,24
 444 594 444 594 436 581 c 2,25,-1
 244 389 l 1,26,-1
 389 243 l 1,27,-1
 503 358 l 1,28,-1
 580 281 l 1,0,-1
332 630 m 2,29,30
 333 634 333 634 333 639 c 0,31,32
 333 667 333 667 306 667 c 2,33,-1
 222 667 l 2,34,35
 176 667 176 667 143.5 634 c 128,-1,36
 111 601 111 601 111 556 c 0,37,38
 111 532 111 532 119 514 c 1,39,-1
 168 466 l 1,40,-1
 332 630 l 2,29,30
312 167 m 1,41,-1
 167 311 l 1,42,-1
 119 263 l 1,43,44
 111 246 111 246 111 222 c 0,45,46
 111 176 111 176 144 143.5 c 128,-1,47
 177 111 177 111 222 111 c 0,48,49
 246 111 246 111 263 119 c 1,50,-1
 312 167 l 1,41,-1
EndSplineSet
Validated: 1
EndChar

StartChar: quotesingle
Encoding: 39 39 14
Width: 666
GlyphClass: 1
Flags: W
LayerCount: 2
Fore
SplineSet
333 556 m 1,0,-1
 222 556 l 1,1,-1
 222 889 l 1,2,-1
 333 889 l 1,3,-1
 333 556 l 1,0,-1
EndSplineSet
Validated: 1
EndChar

StartChar: parenleft
Encoding: 40 40 15
Width: 666
GlyphClass: 1
Flags: W
LayerCount: 2
Fore
SplineSet
466 -56 m 1,0,-1
 389 -132 l 1,1,-1
 111 146 l 1,2,-1
 111 632 l 1,3,-1
 389 910 l 1,4,-1
 466 833 l 1,5,-1
 222 590 l 1,6,-1
 222 188 l 1,7,-1
 466 -56 l 1,0,-1
EndSplineSet
Validated: 1
Substitution2: "'rtla' Right to Left Alternates in Latin lookup 0 subtable" parenright
EndChar

StartChar: parenright
Encoding: 41 41 16
Width: 666
GlyphClass: 1
Flags: W
LayerCount: 2
Fore
SplineSet
444 146 m 1,0,-1
 167 -132 l 1,1,-1
 90 -56 l 1,2,-1
 333 188 l 1,3,-1
 333 590 l 1,4,-1
 90 833 l 1,5,-1
 167 910 l 1,6,-1
 444 632 l 1,7,-1
 444 146 l 1,0,-1
EndSplineSet
Validated: 1
Substitution2: "'rtla' Right to Left Alternates in Latin lookup 0 subtable" parenleft
EndChar

StartChar: asterisk
Encoding: 42 42 17
Width: 666
GlyphClass: 1
Flags: W
LayerCount: 2
Fore
SplineSet
548 414 m 1,0,-1
 493 317 l 1,1,-1
 333 404 l 1,2,-1
 333 222 l 1,3,-1
 222 222 l 1,4,-1
 222 404 l 1,5,-1
 64 313 l 1,6,-1
 9 409 l 1,7,-1
 167 500 l 1,8,-1
 8 586 l 1,9,-1
 62 683 l 1,10,-1
 222 594 l 1,11,-1
 222 778 l 1,12,-1
 333 778 l 1,13,-1
 333 597 l 1,14,-1
 490 687 l 1,15,-1
 546 591 l 1,16,-1
 389 500 l 1,17,-1
 548 414 l 1,0,-1
EndSplineSet
Validated: 1
EndChar

StartChar: plus
Encoding: 43 43 18
Width: 666
GlyphClass: 1
Flags: W
LayerCount: 2
Fore
SplineSet
556 333 m 1,0,-1
 333 333 l 1,1,-1
 333 111 l 1,2,-1
 222 111 l 1,3,-1
 222 333 l 1,4,-1
 0 333 l 1,5,-1
 0 444 l 1,6,-1
 222 444 l 1,7,-1
 222 667 l 1,8,-1
 333 667 l 1,9,-1
 333 444 l 1,10,-1
 556 444 l 1,11,-1
 556 333 l 1,0,-1
EndSplineSet
Validated: 1
EndChar

StartChar: comma
Encoding: 44 44 19
Width: 666
GlyphClass: 1
Flags: W
LayerCount: 2
Fore
SplineSet
389 -49 m 1,0,-1
 216 -222 l 1,1,-1
 139 -146 l 1,2,-1
 278 -7 l 1,3,-1
 278 28 l 1,4,5
 232 28 232 28 199.5 60.5 c 128,-1,6
 167 93 167 93 167 139 c 256,7,8
 167 185 167 185 199.5 217.5 c 128,-1,9
 232 250 232 250 278 250 c 256,10,11
 324 250 324 250 356.5 217 c 128,-1,12
 389 184 389 184 389 139 c 2,13,-1
 389 -49 l 1,0,-1
EndSplineSet
Validated: 1
EndChar

StartChar: hyphen
Encoding: 45 45 20
AltUni2: 002010.ffffffff.0 002010.ffffffff.0
Width: 666
GlyphClass: 1
Flags: W
LayerCount: 2
Fore
SplineSet
556 333 m 1,0,-1
 0 333 l 1,1,-1
 0 444 l 1,2,-1
 556 444 l 1,3,-1
 556 333 l 1,0,-1
EndSplineSet
Validated: 1
EndChar

StartChar: period
Encoding: 46 46 21
Width: 666
GlyphClass: 1
Flags: W
LayerCount: 2
Fore
SplineSet
384 139 m 256,0,1
 384 92 384 92 353.5 60 c 128,-1,2
 323 28 323 28 278 28 c 256,3,4
 232 28 232 28 199.5 60.5 c 128,-1,5
 167 93 167 93 167 139 c 256,6,7
 167 185 167 185 199.5 217.5 c 128,-1,8
 232 250 232 250 278 250 c 256,9,10
 324 250 324 250 354 218 c 128,-1,11
 384 186 384 186 384 139 c 256,0,1
EndSplineSet
Validated: 1
EndChar

StartChar: slash
Encoding: 47 47 22
Width: 666
GlyphClass: 1
Flags: W
LayerCount: 2
Fore
SplineSet
634 838 m 1,0,-1
 99 -212 l 1,1,-1
 0 -162 l 1,2,-1
 536 889 l 1,3,-1
 634 838 l 1,0,-1
EndSplineSet
Validated: 1
EndChar

StartChar: zero
Encoding: 48 48 23
Width: 666
GlyphClass: 1
Flags: W
LayerCount: 2
Fore
SplineSet
556 222 m 2,0,1
 556 130 556 130 491 65 c 128,-1,2
 426 0 426 0 333 0 c 2,3,-1
 222 0 l 2,4,5
 130 0 130 0 65 65 c 128,-1,6
 0 130 0 130 0 222 c 2,7,-1
 0 556 l 2,8,9
 0 648 0 648 65 713 c 128,-1,10
 130 778 130 778 222 778 c 2,11,-1
 333 778 l 2,12,13
 425 778 425 778 490.5 712.5 c 128,-1,14
 556 647 556 647 556 556 c 2,15,-1
 556 222 l 2,0,1
428 616 m 1,16,17
 395 667 395 667 333 667 c 2,18,-1
 222 667 l 2,19,20
 176 667 176 667 143.5 634 c 128,-1,21
 111 601 111 601 111 556 c 2,22,-1
 111 299 l 1,23,-1
 428 616 l 1,16,17
444 222 m 2,24,-1
 444 477 l 1,25,-1
 130 162 l 1,26,27
 163 111 163 111 222 111 c 2,28,-1
 333 111 l 2,29,30
 379 111 379 111 411.5 143.5 c 128,-1,31
 444 176 444 176 444 222 c 2,24,-1
EndSplineSet
Validated: 1
EndChar

StartChar: one
Encoding: 49 49 24
Width: 666
GlyphClass: 1
Flags: W
LayerCount: 2
Fore
SplineSet
556 0 m 1,0,-1
 0 0 l 1,1,-1
 0 111 l 1,2,-1
 222 111 l 1,3,-1
 222 556 l 1,4,-1
 56 556 l 1,5,-1
 56 667 l 1,6,-1
 111 667 l 2,7,8
 157 667 157 667 189.5 699.5 c 128,-1,9
 222 732 222 732 222 778 c 1,10,-1
 333 778 l 1,11,-1
 333 111 l 1,12,-1
 556 111 l 1,13,-1
 556 0 l 1,0,-1
EndSplineSet
Validated: 1
Substitution2: "<10,1> Superiors lookup 10 subtable" onesuperior
EndChar

StartChar: two
Encoding: 50 50 25
Width: 666
GlyphClass: 1
Flags: W
LayerCount: 2
Fore
SplineSet
556 0 m 1,0,-1
 0 0 l 1,1,-1
 0 77 l 1,2,-1
 437 514 l 1,3,4
 445 531 445 531 444 556 c 0,5,6
 444 602 444 602 411.5 634.5 c 128,-1,7
 379 667 379 667 333 667 c 2,8,-1
 222 667 l 2,9,10
 176 667 176 667 143.5 634 c 128,-1,11
 111 601 111 601 111 556 c 1,12,-1
 0 556 l 1,13,14
 0 648 0 648 65 713 c 128,-1,15
 130 778 130 778 222 778 c 2,16,-1
 333 778 l 2,17,18
 425 778 425 778 490.5 712.5 c 128,-1,19
 556 647 556 647 556 556 c 0,20,21
 556 500 556 500 531 453 c 1,22,-1
 188 111 l 1,23,-1
 556 111 l 1,24,-1
 556 0 l 1,0,-1
EndSplineSet
Validated: 33
Substitution2: "<10,1> Superiors lookup 10 subtable" twosuperior
EndChar

StartChar: three
Encoding: 51 51 26
Width: 666
GlyphClass: 1
Flags: W
LayerCount: 2
Fore
SplineSet
111 222 m 1,0,1
 111 176 111 176 144 143.5 c 128,-1,2
 177 111 177 111 222 111 c 2,3,-1
 333 111 l 2,4,5
 379 111 379 111 411.5 144 c 128,-1,6
 444 177 444 177 444 222 c 256,7,8
 444 268 444 268 411.5 300.5 c 128,-1,9
 379 333 379 333 333 333 c 2,10,-1
 222 333 l 1,11,-1
 222 444 l 1,12,-1
 333 444 l 2,13,14
 379 444 379 444 411.5 477 c 128,-1,15
 444 510 444 510 444 556 c 256,16,17
 444 602 444 602 411.5 634.5 c 128,-1,18
 379 667 379 667 333 667 c 2,19,-1
 222 667 l 2,20,21
 176 667 176 667 143.5 634 c 128,-1,22
 111 601 111 601 111 556 c 1,23,-1
 0 556 l 1,24,25
 0 648 0 648 65 713 c 128,-1,26
 130 778 130 778 222 778 c 2,27,-1
 333 778 l 2,28,29
 425 778 425 778 490.5 713 c 128,-1,30
 556 648 556 648 556 556 c 0,31,32
 556 456 556 456 461 389 c 1,33,34
 555 322 555 322 556 222 c 0,35,36
 556 130 556 130 491 65 c 128,-1,37
 426 0 426 0 333 0 c 2,38,-1
 222 0 l 2,39,40
 130 0 130 0 65 65 c 128,-1,41
 0 130 0 130 0 222 c 1,42,-1
 111 222 l 1,0,1
EndSplineSet
Validated: 1
Substitution2: "<10,1> Superiors lookup 10 subtable" threesuperior
EndChar

StartChar: four
Encoding: 52 52 27
Width: 666
GlyphClass: 1
Flags: W
LayerCount: 2
Fore
SplineSet
556 0 m 1,0,-1
 222 0 l 1,1,-1
 222 111 l 1,2,-1
 333 111 l 1,3,-1
 333 222 l 1,4,-1
 0 222 l 1,5,-1
 0 410 l 1,6,-1
 368 778 l 1,7,-1
 444 778 l 1,8,-1
 444 333 l 1,9,-1
 556 333 l 1,10,-1
 556 222 l 1,11,-1
 444 222 l 1,12,-1
 444 111 l 1,13,-1
 556 111 l 1,14,-1
 556 0 l 1,0,-1
333 333 m 1,15,-1
 333 590 l 1,16,-1
 111 368 l 1,17,-1
 111 333 l 1,18,-1
 333 333 l 1,15,-1
EndSplineSet
Validated: 1
EndChar

StartChar: five
Encoding: 53 53 28
Width: 666
GlyphClass: 1
Flags: W
LayerCount: 2
Fore
SplineSet
556 222 m 2,0,1
 556 130 556 130 491 65 c 128,-1,2
 426 0 426 0 333 0 c 2,3,-1
 222 0 l 2,4,5
 130 0 130 0 65 65 c 128,-1,6
 0 130 0 130 0 222 c 1,7,-1
 111 222 l 1,8,9
 111 176 111 176 144 143.5 c 128,-1,10
 177 111 177 111 222 111 c 2,11,-1
 333 111 l 2,12,13
 379 111 379 111 411.5 144 c 128,-1,14
 444 177 444 177 444 222 c 2,15,-1
 444 333 l 2,16,17
 444 379 444 379 411.5 411.5 c 128,-1,18
 379 444 379 444 333 444 c 2,19,-1
 0 444 l 1,20,-1
 0 778 l 1,21,-1
 556 778 l 1,22,-1
 556 667 l 1,23,-1
 111 667 l 1,24,-1
 111 556 l 1,25,-1
 333 556 l 2,26,27
 424 556 424 556 490 490 c 128,-1,28
 556 424 556 424 556 333 c 2,29,-1
 556 222 l 2,0,1
EndSplineSet
Validated: 1
EndChar

StartChar: six
Encoding: 54 54 29
Width: 666
GlyphClass: 1
Flags: W
LayerCount: 2
Fore
SplineSet
556 222 m 2,0,1
 556 130 556 130 491 65 c 128,-1,2
 426 0 426 0 333 0 c 2,3,-1
 222 0 l 2,4,5
 130 0 130 0 65 65 c 128,-1,6
 0 130 0 130 0 222 c 2,7,-1
 0 556 l 2,8,9
 0 648 0 648 65 713 c 128,-1,10
 130 778 130 778 222 778 c 2,11,-1
 444 778 l 1,12,-1
 444 667 l 1,13,-1
 222 667 l 2,14,15
 176 667 176 667 143.5 634 c 128,-1,16
 111 601 111 601 111 556 c 1,17,-1
 333 556 l 2,18,19
 424 556 424 556 490 490 c 128,-1,20
 556 424 556 424 556 333 c 2,21,-1
 556 222 l 2,0,1
444 222 m 2,22,-1
 444 333 l 2,23,24
 444 379 444 379 411.5 411.5 c 128,-1,25
 379 444 379 444 333 444 c 2,26,-1
 111 444 l 1,27,-1
 111 222 l 2,28,29
 111 176 111 176 144 143.5 c 128,-1,30
 177 111 177 111 222 111 c 2,31,-1
 333 111 l 2,32,33
 379 111 379 111 411.5 143.5 c 128,-1,34
 444 176 444 176 444 222 c 2,22,-1
EndSplineSet
Validated: 1
EndChar

StartChar: seven
Encoding: 55 55 30
Width: 666
GlyphClass: 1
Flags: W
LayerCount: 2
Fore
SplineSet
556 479 m 1,0,-1
 333 257 l 1,1,-1
 333 0 l 1,2,-1
 222 0 l 1,3,-1
 222 299 l 1,4,-1
 444 521 l 1,5,-1
 444 667 l 1,6,-1
 0 667 l 1,7,-1
 0 778 l 1,8,-1
 556 778 l 1,9,-1
 556 479 l 1,0,-1
EndSplineSet
Validated: 1
EndChar

StartChar: eight
Encoding: 56 56 31
Width: 666
GlyphClass: 1
Flags: W
LayerCount: 2
Fore
SplineSet
333 778 m 2,0,1
 425 778 425 778 490.5 713 c 128,-1,2
 556 648 556 648 556 556 c 0,3,4
 556 456 556 456 461 389 c 1,5,6
 555 322 555 322 556 222 c 0,7,8
 556 130 556 130 491 65 c 128,-1,9
 426 0 426 0 333 0 c 2,10,-1
 222 0 l 2,11,12
 130 0 130 0 65 65 c 128,-1,13
 0 130 0 130 0 222 c 0,14,15
 0 322 0 322 94 389 c 1,16,17
 0 456 0 456 0 556 c 0,18,19
 0 648 0 648 65 713 c 128,-1,20
 130 778 130 778 222 778 c 2,21,-1
 333 778 l 2,0,1
222 667 m 2,22,23
 175 667 175 667 143 634 c 128,-1,24
 111 601 111 601 111 556 c 256,25,26
 111 510 111 510 144 477 c 128,-1,27
 177 444 177 444 222 444 c 2,28,-1
 333 444 l 2,29,30
 379 444 379 444 411.5 477 c 128,-1,31
 444 510 444 510 444 556 c 256,32,33
 444 602 444 602 411.5 634.5 c 128,-1,34
 379 667 379 667 333 667 c 2,35,-1
 222 667 l 2,22,23
333 111 m 2,36,37
 380 111 380 111 412 144 c 128,-1,38
 444 177 444 177 444 222 c 256,39,40
 444 268 444 268 411.5 300.5 c 128,-1,41
 379 333 379 333 333 333 c 2,42,-1
 222 333 l 2,43,44
 176 333 176 333 143.5 300.5 c 128,-1,45
 111 268 111 268 111 222 c 256,46,47
 111 176 111 176 144 143.5 c 128,-1,48
 177 111 177 111 222 111 c 2,49,-1
 333 111 l 2,36,37
EndSplineSet
Validated: 1
EndChar

StartChar: nine
Encoding: 57 57 32
Width: 666
GlyphClass: 1
Flags: W
LayerCount: 2
Fore
SplineSet
556 222 m 2,0,1
 556 130 556 130 491 65 c 128,-1,2
 426 0 426 0 333 0 c 2,3,-1
 111 0 l 1,4,-1
 111 111 l 1,5,-1
 333 111 l 2,6,7
 379 111 379 111 411.5 144 c 128,-1,8
 444 177 444 177 444 222 c 1,9,-1
 222 222 l 2,10,11
 130 222 130 222 65 287 c 128,-1,12
 0 352 0 352 0 444 c 2,13,-1
 0 556 l 2,14,15
 0 648 0 648 65 713 c 128,-1,16
 130 778 130 778 222 778 c 2,17,-1
 333 778 l 2,18,19
 425 778 425 778 490.5 712.5 c 128,-1,20
 556 647 556 647 556 556 c 2,21,-1
 556 222 l 2,0,1
444 333 m 1,22,-1
 444 556 l 2,23,24
 444 602 444 602 411.5 634.5 c 128,-1,25
 379 667 379 667 333 667 c 2,26,-1
 222 667 l 2,27,28
 176 667 176 667 143.5 634 c 128,-1,29
 111 601 111 601 111 556 c 2,30,-1
 111 444 l 2,31,32
 111 398 111 398 144 365.5 c 128,-1,33
 177 333 177 333 222 333 c 2,34,-1
 444 333 l 1,22,-1
EndSplineSet
Validated: 1
EndChar

StartChar: colon
Encoding: 58 58 33
Width: 666
GlyphClass: 1
Flags: W
LayerCount: 2
Fore
SplineSet
389 472 m 256,0,1
 389 426 389 426 356 393.5 c 128,-1,2
 323 361 323 361 278 361 c 256,3,4
 232 361 232 361 199.5 394 c 128,-1,5
 167 427 167 427 167 472 c 256,6,7
 167 518 167 518 199.5 550.5 c 128,-1,8
 232 583 232 583 278 583 c 256,9,10
 324 583 324 583 356.5 550.5 c 128,-1,11
 389 518 389 518 389 472 c 256,0,1
389 139 m 256,12,13
 389 93 389 93 356 60.5 c 128,-1,14
 323 28 323 28 278 28 c 256,15,16
 232 28 232 28 199.5 60.5 c 128,-1,17
 167 93 167 93 167 139 c 256,18,19
 167 185 167 185 199.5 217.5 c 128,-1,20
 232 250 232 250 278 250 c 256,21,22
 324 250 324 250 356.5 217.5 c 128,-1,23
 389 185 389 185 389 139 c 256,12,13
EndSplineSet
Validated: 1
EndChar

StartChar: semicolon
Encoding: 59 59 34
Width: 666
GlyphClass: 1
Flags: W
LayerCount: 2
Fore
SplineSet
389 472 m 256,0,1
 389 426 389 426 356 393.5 c 128,-1,2
 323 361 323 361 278 361 c 256,3,4
 232 361 232 361 199.5 394 c 128,-1,5
 167 427 167 427 167 472 c 256,6,7
 167 518 167 518 199.5 550.5 c 128,-1,8
 232 583 232 583 278 583 c 256,9,10
 324 583 324 583 356.5 550.5 c 128,-1,11
 389 518 389 518 389 472 c 256,0,1
389 -49 m 1,12,-1
 216 -222 l 1,13,-1
 139 -146 l 1,14,-1
 278 -7 l 1,15,-1
 278 28 l 1,16,17
 232 28 232 28 199.5 60.5 c 128,-1,18
 167 93 167 93 167 139 c 256,19,20
 167 185 167 185 199.5 217.5 c 128,-1,21
 232 250 232 250 278 250 c 256,22,23
 324 250 324 250 356.5 217 c 128,-1,24
 389 184 389 184 389 139 c 2,25,-1
 389 -49 l 1,12,-1
EndSplineSet
Validated: 1
EndChar

StartChar: less
Encoding: 60 60 35
Width: 666
GlyphClass: 1
Flags: W
LayerCount: 2
Fore
SplineSet
583 49 m 1,0,-1
 507 -28 l 1,1,-1
 88 389 l 1,2,-1
 500 799 l 1,3,-1
 577 722 l 1,4,-1
 246 389 l 1,5,-1
 583 49 l 1,0,-1
EndSplineSet
Validated: 1
Substitution2: "'rtla' Right to Left Alternates in Latin lookup 0 subtable" greater
EndChar

StartChar: equal
Encoding: 61 61 36
Width: 666
GlyphClass: 1
Flags: W
LayerCount: 2
Fore
SplineSet
556 444 m 1,0,-1
 0 444 l 1,1,-1
 0 556 l 1,2,-1
 556 556 l 1,3,-1
 556 444 l 1,0,-1
556 222 m 1,4,-1
 0 222 l 1,5,-1
 0 333 l 1,6,-1
 556 333 l 1,7,-1
 556 222 l 1,4,-1
EndSplineSet
Validated: 1
EndChar

StartChar: greater
Encoding: 62 62 37
Width: 666
GlyphClass: 1
Flags: W
LayerCount: 2
Fore
SplineSet
579 389 m 1,0,-1
 167 -21 l 1,1,-1
 90 56 l 1,2,-1
 421 389 l 1,3,-1
 83 729 l 1,4,-1
 160 806 l 1,5,-1
 579 389 l 1,0,-1
EndSplineSet
Validated: 1
Substitution2: "'rtla' Right to Left Alternates in Latin lookup 0 subtable" less
EndChar

StartChar: question
Encoding: 63 63 38
Width: 666
GlyphClass: 1
Flags: W
LayerCount: 2
Fore
SplineSet
556 556 m 0,0,1
 556 500 556 500 531 453 c 1,2,-1
 299 222 l 1,3,-1
 222 222 l 1,4,-1
 222 299 l 1,5,-1
 437 514 l 1,6,7
 445 531 445 531 444 556 c 0,8,9
 444 602 444 602 411.5 634.5 c 128,-1,10
 379 667 379 667 333 667 c 2,11,-1
 222 667 l 2,12,13
 176 667 176 667 143.5 634 c 128,-1,14
 111 601 111 601 111 556 c 1,15,-1
 0 556 l 1,16,17
 0 648 0 648 65 713 c 128,-1,18
 130 778 130 778 222 778 c 2,19,-1
 333 778 l 2,20,21
 425 778 425 778 490.5 712.5 c 128,-1,22
 556 647 556 647 556 556 c 0,0,1
333 56 m 256,23,24
 333 33 333 33 317 16.5 c 128,-1,25
 301 0 301 0 278 0 c 256,26,27
 255 0 255 0 238.5 16 c 128,-1,28
 222 32 222 32 222 56 c 256,29,30
 222 79 222 79 238 95 c 128,-1,31
 254 111 254 111 278 111 c 256,32,33
 301 111 301 111 317 95 c 128,-1,34
 333 79 333 79 333 56 c 256,23,24
EndSplineSet
Validated: 33
EndChar

StartChar: at
Encoding: 64 64 39
Width: 666
GlyphClass: 1
Flags: W
LayerCount: 2
Fore
SplineSet
556 0 m 1,0,-1
 222 0 l 2,1,2
 130 0 130 0 65 65 c 128,-1,3
 0 130 0 130 0 222 c 2,4,-1
 0 556 l 2,5,6
 0 648 0 648 65 713 c 128,-1,7
 130 778 130 778 222 778 c 2,8,-1
 333 778 l 2,9,10
 425 778 425 778 490.5 712.5 c 128,-1,11
 556 647 556 647 556 556 c 2,12,-1
 556 333 l 2,13,14
 556 286 556 286 523 254 c 128,-1,15
 490 222 490 222 444 222 c 2,16,-1
 333 222 l 2,17,18
 287 222 287 222 254.5 256 c 128,-1,19
 222 290 222 290 222 333 c 2,20,-1
 222 444 l 2,21,22
 222 490 222 490 255 523 c 128,-1,23
 288 556 288 556 333 556 c 2,24,-1
 444 556 l 1,25,26
 444 602 444 602 411.5 634.5 c 128,-1,27
 379 667 379 667 333 667 c 2,28,-1
 222 667 l 2,29,30
 176 667 176 667 143.5 634 c 128,-1,31
 111 601 111 601 111 556 c 2,32,-1
 111 222 l 2,33,34
 111 176 111 176 144 143.5 c 128,-1,35
 177 111 177 111 222 111 c 2,36,-1
 556 111 l 1,37,-1
 556 0 l 1,0,-1
444 361 m 2,38,-1
 444 417 l 2,39,40
 444 445 444 445 417 444 c 2,41,-1
 361 444 l 2,42,43
 333 444 333 444 333 417 c 2,44,-1
 333 361 l 2,45,46
 333 333 333 333 361 333 c 2,47,-1
 417 333 l 2,48,49
 444 333 444 333 444 361 c 2,38,-1
EndSplineSet
Validated: 33
EndChar

StartChar: A
Encoding: 65 65 40
Width: 666
GlyphClass: 1
Flags: W
LayerCount: 2
Fore
SplineSet
111 222 m 1,0,-1
 111 0 l 1,1,-1
 0 0 l 1,2,-1
 0 361 l 1,3,-1
 209 778 l 1,4,-1
 348 778 l 1,5,-1
 556 361 l 1,6,-1
 556 0 l 1,7,-1
 444 0 l 1,8,-1
 444 222 l 1,9,-1
 111 222 l 1,0,-1
278 667 m 1,10,-1
 111 333 l 1,11,-1
 444 333 l 1,12,-1
 278 667 l 1,10,-1
EndSplineSet
Validated: 1
Substitution2: "<3,2> All Lower Case in Latin lookup 2 subtable" a
EndChar

StartChar: B
Encoding: 66 66 41
Width: 666
GlyphClass: 1
Flags: W
LayerCount: 2
Fore
SplineSet
556 556 m 0,0,1
 556 456 556 456 461 389 c 1,2,3
 555 322 555 322 556 222 c 0,4,5
 556 130 556 130 491 65 c 128,-1,6
 426 0 426 0 333 0 c 2,7,-1
 0 0 l 1,8,-1
 0 778 l 1,9,-1
 333 778 l 2,10,11
 425 778 425 778 490.5 713 c 128,-1,12
 556 648 556 648 556 556 c 0,0,1
111 667 m 1,13,-1
 111 444 l 1,14,-1
 333 444 l 2,15,16
 379 444 379 444 411.5 477 c 128,-1,17
 444 510 444 510 444 556 c 256,18,19
 444 602 444 602 411.5 634.5 c 128,-1,20
 379 667 379 667 333 667 c 2,21,-1
 111 667 l 1,13,-1
111 333 m 1,22,-1
 111 111 l 1,23,-1
 333 111 l 2,24,25
 379 111 379 111 411.5 144 c 128,-1,26
 444 177 444 177 444 222 c 256,27,28
 444 268 444 268 411.5 300.5 c 128,-1,29
 379 333 379 333 333 333 c 2,30,-1
 111 333 l 1,22,-1
EndSplineSet
Validated: 1
Substitution2: "<3,2> All Lower Case in Latin lookup 2 subtable" b
EndChar

StartChar: C
Encoding: 67 67 42
Width: 666
GlyphClass: 1
Flags: W
LayerCount: 2
Fore
SplineSet
556 222 m 1,0,1
 556 130 556 130 491 65 c 128,-1,2
 426 0 426 0 333 0 c 2,3,-1
 222 0 l 2,4,5
 130 0 130 0 65 65 c 128,-1,6
 0 130 0 130 0 222 c 2,7,-1
 0 556 l 2,8,9
 0 648 0 648 65 713 c 128,-1,10
 130 778 130 778 222 778 c 2,11,-1
 333 778 l 2,12,13
 425 778 425 778 490.5 712.5 c 128,-1,14
 556 647 556 647 556 556 c 1,15,-1
 444 556 l 1,16,17
 444 602 444 602 411.5 634.5 c 128,-1,18
 379 667 379 667 333 667 c 2,19,-1
 222 667 l 2,20,21
 176 667 176 667 143.5 634 c 128,-1,22
 111 601 111 601 111 556 c 2,23,-1
 111 222 l 2,24,25
 111 176 111 176 144 143.5 c 128,-1,26
 177 111 177 111 222 111 c 2,27,-1
 333 111 l 2,28,29
 379 111 379 111 411.5 144 c 128,-1,30
 444 177 444 177 444 222 c 1,31,-1
 556 222 l 1,0,1
EndSplineSet
Validated: 1
Substitution2: "<3,2> All Lower Case in Latin lookup 2 subtable" c
EndChar

StartChar: D
Encoding: 68 68 43
Width: 666
GlyphClass: 1
Flags: W
LayerCount: 2
Fore
SplineSet
556 222 m 2,0,1
 556 130 556 130 491 65 c 128,-1,2
 426 0 426 0 333 0 c 2,3,-1
 0 0 l 1,4,-1
 0 778 l 1,5,-1
 333 778 l 2,6,7
 425 778 425 778 490.5 712.5 c 128,-1,8
 556 647 556 647 556 556 c 2,9,-1
 556 222 l 2,0,1
444 222 m 2,10,-1
 444 556 l 2,11,12
 444 602 444 602 411.5 634.5 c 128,-1,13
 379 667 379 667 333 667 c 2,14,-1
 111 667 l 1,15,-1
 111 111 l 1,16,-1
 333 111 l 2,17,18
 379 111 379 111 411.5 143.5 c 128,-1,19
 444 176 444 176 444 222 c 2,10,-1
EndSplineSet
Validated: 1
Substitution2: "<3,2> All Lower Case in Latin lookup 2 subtable" d
EndChar

StartChar: E
Encoding: 69 69 44
Width: 666
GlyphClass: 1
Flags: W
LayerCount: 2
Fore
SplineSet
556 0 m 1,0,-1
 0 0 l 1,1,-1
 0 778 l 1,2,-1
 556 778 l 1,3,-1
 556 667 l 1,4,-1
 111 667 l 1,5,-1
 111 444 l 1,6,-1
 444 444 l 1,7,-1
 444 333 l 1,8,-1
 111 333 l 1,9,-1
 111 111 l 1,10,-1
 556 111 l 1,11,-1
 556 0 l 1,0,-1
EndSplineSet
Validated: 1
Substitution2: "<3,2> All Lower Case in Latin lookup 2 subtable" e
EndChar

StartChar: F
Encoding: 70 70 45
Width: 666
GlyphClass: 1
Flags: W
LayerCount: 2
Fore
SplineSet
556 667 m 1,0,-1
 111 667 l 1,1,-1
 111 444 l 1,2,-1
 444 444 l 1,3,-1
 444 333 l 1,4,-1
 111 333 l 1,5,-1
 111 0 l 1,6,-1
 0 0 l 1,7,-1
 0 778 l 1,8,-1
 556 778 l 1,9,-1
 556 667 l 1,0,-1
EndSplineSet
Validated: 1
Substitution2: "<3,2> All Lower Case in Latin lookup 2 subtable" f
EndChar

StartChar: G
Encoding: 71 71 46
Width: 666
GlyphClass: 1
Flags: W
LayerCount: 2
Fore
SplineSet
556 222 m 2,0,1
 556 130 556 130 491 65 c 128,-1,2
 426 0 426 0 333 0 c 2,3,-1
 222 0 l 2,4,5
 130 0 130 0 65 65 c 128,-1,6
 0 130 0 130 0 222 c 2,7,-1
 0 556 l 2,8,9
 0 648 0 648 65 713 c 128,-1,10
 130 778 130 778 222 778 c 2,11,-1
 333 778 l 2,12,13
 425 778 425 778 490.5 712.5 c 128,-1,14
 556 647 556 647 556 556 c 1,15,-1
 444 556 l 1,16,17
 444 602 444 602 411.5 634.5 c 128,-1,18
 379 667 379 667 333 667 c 2,19,-1
 222 667 l 2,20,21
 176 667 176 667 143.5 634 c 128,-1,22
 111 601 111 601 111 556 c 2,23,-1
 111 222 l 2,24,25
 111 176 111 176 144 143.5 c 128,-1,26
 177 111 177 111 222 111 c 2,27,-1
 333 111 l 2,28,29
 379 111 379 111 411.5 144 c 128,-1,30
 444 177 444 177 444 222 c 2,31,-1
 444 333 l 1,32,-1
 333 333 l 1,33,-1
 333 444 l 1,34,-1
 556 444 l 1,35,-1
 556 222 l 2,0,1
EndSplineSet
Validated: 1
Substitution2: "<3,2> All Lower Case in Latin lookup 2 subtable" g
EndChar

StartChar: H
Encoding: 72 72 47
Width: 666
GlyphClass: 1
Flags: W
LayerCount: 2
Fore
SplineSet
556 0 m 1,0,-1
 444 0 l 1,1,-1
 444 333 l 1,2,-1
 111 333 l 1,3,-1
 111 0 l 1,4,-1
 0 0 l 1,5,-1
 0 778 l 1,6,-1
 111 778 l 1,7,-1
 111 444 l 1,8,-1
 444 444 l 1,9,-1
 444 778 l 1,10,-1
 556 778 l 1,11,-1
 556 0 l 1,0,-1
EndSplineSet
Validated: 1
Substitution2: "<3,2> All Lower Case in Latin lookup 2 subtable" h
EndChar

StartChar: I
Encoding: 73 73 48
Width: 666
GlyphClass: 1
Flags: W
LayerCount: 2
Fore
SplineSet
556 0 m 1,0,-1
 0 0 l 1,1,-1
 0 111 l 1,2,-1
 222 111 l 1,3,-1
 222 667 l 1,4,-1
 0 667 l 1,5,-1
 0 778 l 1,6,-1
 556 778 l 1,7,-1
 556 667 l 1,8,-1
 333 667 l 1,9,-1
 333 111 l 1,10,-1
 556 111 l 1,11,-1
 556 0 l 1,0,-1
EndSplineSet
Validated: 1
Substitution2: "<3,2> All Lower Case in Latin lookup 2 subtable" i
EndChar

StartChar: J
Encoding: 74 74 49
Width: 666
GlyphClass: 1
Flags: W
LayerCount: 2
Fore
SplineSet
556 222 m 2,0,1
 556 130 556 130 491 65 c 128,-1,2
 426 0 426 0 333 0 c 2,3,-1
 222 0 l 2,4,5
 130 0 130 0 65 65 c 128,-1,6
 0 130 0 130 0 222 c 2,7,-1
 0 333 l 1,8,-1
 111 333 l 1,9,-1
 111 222 l 2,10,11
 111 176 111 176 144 143.5 c 128,-1,12
 177 111 177 111 222 111 c 2,13,-1
 333 111 l 2,14,15
 379 111 379 111 411.5 144 c 128,-1,16
 444 177 444 177 444 222 c 2,17,-1
 444 778 l 1,18,-1
 556 778 l 1,19,-1
 556 222 l 2,0,1
EndSplineSet
Validated: 1
Substitution2: "<3,2> All Lower Case in Latin lookup 2 subtable" j
EndChar

StartChar: K
Encoding: 75 75 50
Width: 666
GlyphClass: 1
Flags: W
LayerCount: 2
Fore
SplineSet
556 0 m 1,0,-1
 444 0 l 1,1,-1
 111 333 l 1,2,-1
 111 0 l 1,3,-1
 0 0 l 1,4,-1
 0 778 l 1,5,-1
 111 778 l 1,6,-1
 111 444 l 1,7,-1
 444 778 l 1,8,-1
 556 778 l 1,9,-1
 556 737 l 1,10,-1
 208 389 l 1,11,-1
 556 42 l 1,12,-1
 556 0 l 1,0,-1
EndSplineSet
Validated: 1
Substitution2: "<3,2> All Lower Case in Latin lookup 2 subtable" k
EndChar

StartChar: L
Encoding: 76 76 51
Width: 666
GlyphClass: 1
Flags: W
LayerCount: 2
Fore
SplineSet
556 0 m 1,0,-1
 0 0 l 1,1,-1
 0 778 l 1,2,-1
 111 778 l 1,3,-1
 111 111 l 1,4,-1
 556 111 l 1,5,-1
 556 0 l 1,0,-1
EndSplineSet
Validated: 1
Substitution2: "<3,2> All Lower Case in Latin lookup 2 subtable" l
EndChar

StartChar: M
Encoding: 77 77 52
Width: 666
GlyphClass: 1
Flags: W
LayerCount: 2
Fore
SplineSet
556 0 m 1,0,-1
 444 0 l 1,1,-1
 444 583 l 1,2,-1
 333 472 l 1,3,-1
 333 333 l 1,4,-1
 222 333 l 1,5,-1
 222 472 l 1,6,-1
 111 583 l 1,7,-1
 111 0 l 1,8,-1
 0 0 l 1,9,-1
 0 778 l 1,10,-1
 83 778 l 1,11,-1
 278 583 l 1,12,-1
 472 778 l 1,13,-1
 556 778 l 1,14,-1
 556 0 l 1,0,-1
EndSplineSet
Validated: 1
Substitution2: "<3,2> All Lower Case in Latin lookup 2 subtable" m
EndChar

StartChar: N
Encoding: 78 78 53
Width: 666
GlyphClass: 1
Flags: W
LayerCount: 2
Fore
SplineSet
556 0 m 1,0,-1
 444 0 l 1,1,-1
 444 257 l 1,2,-1
 111 590 l 1,3,-1
 111 0 l 1,4,-1
 0 0 l 1,5,-1
 0 778 l 1,6,-1
 77 778 l 1,7,-1
 444 410 l 1,8,-1
 444 778 l 1,9,-1
 556 778 l 1,10,-1
 556 0 l 1,0,-1
EndSplineSet
Validated: 1
Substitution2: "<3,2> All Lower Case in Latin lookup 2 subtable" n
EndChar

StartChar: O
Encoding: 79 79 54
Width: 666
GlyphClass: 1
Flags: W
LayerCount: 2
Fore
SplineSet
556 222 m 2,0,1
 556 130 556 130 491 65 c 128,-1,2
 426 0 426 0 333 0 c 2,3,-1
 222 0 l 2,4,5
 130 0 130 0 65 65 c 128,-1,6
 0 130 0 130 0 222 c 2,7,-1
 0 556 l 2,8,9
 0 648 0 648 65 713 c 128,-1,10
 130 778 130 778 222 778 c 2,11,-1
 333 778 l 2,12,13
 425 778 425 778 490.5 712.5 c 128,-1,14
 556 647 556 647 556 556 c 2,15,-1
 556 222 l 2,0,1
444 222 m 2,16,-1
 444 556 l 2,17,18
 444 602 444 602 411.5 634.5 c 128,-1,19
 379 667 379 667 333 667 c 2,20,-1
 222 667 l 2,21,22
 176 667 176 667 143.5 634 c 128,-1,23
 111 601 111 601 111 556 c 2,24,-1
 111 222 l 2,25,26
 111 176 111 176 144 143.5 c 128,-1,27
 177 111 177 111 222 111 c 2,28,-1
 333 111 l 2,29,30
 379 111 379 111 411.5 143.5 c 128,-1,31
 444 176 444 176 444 222 c 2,16,-1
EndSplineSet
Validated: 1
Substitution2: "<3,2> All Lower Case in Latin lookup 2 subtable" o
EndChar

StartChar: P
Encoding: 80 80 55
Width: 666
GlyphClass: 1
Flags: W
LayerCount: 2
Fore
SplineSet
556 556 m 0,0,1
 556 465 556 465 491 399 c 128,-1,2
 426 333 426 333 333 333 c 2,3,-1
 111 333 l 1,4,-1
 111 0 l 1,5,-1
 0 0 l 1,6,-1
 0 778 l 1,7,-1
 333 778 l 2,8,9
 425 778 425 778 490.5 713 c 128,-1,10
 556 648 556 648 556 556 c 0,0,1
444 556 m 256,11,12
 444 602 444 602 411.5 634.5 c 128,-1,13
 379 667 379 667 333 667 c 2,14,-1
 111 667 l 1,15,-1
 111 444 l 1,16,-1
 333 444 l 2,17,18
 379 444 379 444 411.5 477 c 128,-1,19
 444 510 444 510 444 556 c 256,11,12
EndSplineSet
Validated: 1
Substitution2: "<3,2> All Lower Case in Latin lookup 2 subtable" p
EndChar

StartChar: Q
Encoding: 81 81 56
Width: 666
GlyphClass: 1
Flags: W
LayerCount: 2
Fore
SplineSet
568 -43 m 1,0,-1
 489 -123 l 1,1,-1
 364 2 l 1,2,3
 344 0 344 0 333 0 c 2,4,-1
 222 0 l 2,5,6
 130 0 130 0 65 65 c 128,-1,7
 0 130 0 130 0 222 c 2,8,-1
 0 556 l 2,9,10
 0 648 0 648 65 713 c 128,-1,11
 130 778 130 778 222 778 c 2,12,-1
 333 778 l 2,13,14
 425 778 425 778 490.5 712.5 c 128,-1,15
 556 647 556 647 556 556 c 2,16,-1
 556 222 l 2,17,18
 556 115 556 115 473 50 c 1,19,-1
 568 -43 l 1,0,-1
444 222 m 2,20,-1
 444 556 l 2,21,22
 444 602 444 602 411.5 634.5 c 128,-1,23
 379 667 379 667 333 667 c 2,24,-1
 222 667 l 2,25,26
 176 667 176 667 143.5 634 c 128,-1,27
 111 601 111 601 111 556 c 2,28,-1
 111 222 l 2,29,30
 111 175 111 175 144 142.5 c 128,-1,31
 177 110 177 110 222 111 c 2,32,-1
 254 112 l 1,33,-1
 211 156 l 1,34,-1
 290 233 l 1,35,-1
 394 129 l 1,36,37
 444 162 444 162 444 222 c 2,20,-1
EndSplineSet
Validated: 33
Substitution2: "<3,2> All Lower Case in Latin lookup 2 subtable" q
EndChar

StartChar: R
Encoding: 82 82 57
Width: 666
GlyphClass: 1
Flags: W
LayerCount: 2
Fore
SplineSet
444 0 m 1,0,-1
 444 222 l 2,1,2
 444 268 444 268 411.5 300.5 c 128,-1,3
 379 333 379 333 333 333 c 2,4,-1
 111 333 l 1,5,-1
 111 0 l 1,6,-1
 0 0 l 1,7,-1
 0 778 l 1,8,-1
 333 778 l 2,9,10
 425 778 425 778 490.5 713 c 128,-1,11
 556 648 556 648 556 556 c 0,12,13
 556 456 556 456 461 389 c 1,14,15
 555 322 555 322 556 222 c 2,16,-1
 556 0 l 1,17,-1
 444 0 l 1,0,-1
111 444 m 1,18,-1
 333 444 l 2,19,20
 379 444 379 444 411.5 477 c 128,-1,21
 444 510 444 510 444 556 c 256,22,23
 444 602 444 602 411.5 634.5 c 128,-1,24
 379 667 379 667 333 667 c 2,25,-1
 111 667 l 1,26,-1
 111 444 l 1,18,-1
EndSplineSet
Validated: 1
Substitution2: "<3,2> All Lower Case in Latin lookup 2 subtable" r
EndChar

StartChar: S
Encoding: 83 83 58
Width: 666
GlyphClass: 1
Flags: W
LayerCount: 2
Fore
SplineSet
556 222 m 0,0,1
 556 130 556 130 491 65 c 128,-1,2
 426 0 426 0 333 0 c 2,3,-1
 222 0 l 2,4,5
 130 0 130 0 65 65 c 128,-1,6
 0 130 0 130 0 222 c 1,7,-1
 111 222 l 1,8,9
 111 176 111 176 144 143.5 c 128,-1,10
 177 111 177 111 222 111 c 2,11,-1
 333 111 l 2,12,13
 379 111 379 111 411.5 144 c 128,-1,14
 444 177 444 177 444 222 c 256,15,16
 444 268 444 268 411.5 300.5 c 128,-1,17
 379 333 379 333 333 333 c 2,18,-1
 222 333 l 2,19,20
 130 333 130 333 65 398 c 128,-1,21
 0 463 0 463 0 556 c 256,22,23
 0 648 0 648 65 713 c 128,-1,24
 130 778 130 778 222 778 c 2,25,-1
 333 778 l 2,26,27
 425 778 425 778 490.5 712.5 c 128,-1,28
 556 647 556 647 556 556 c 1,29,-1
 444 556 l 1,30,31
 444 602 444 602 411.5 634.5 c 128,-1,32
 379 667 379 667 333 667 c 2,33,-1
 222 667 l 2,34,35
 176 667 176 667 143.5 634 c 128,-1,36
 111 601 111 601 111 556 c 256,37,38
 111 510 111 510 144 477 c 128,-1,39
 177 444 177 444 222 444 c 2,40,-1
 333 444 l 2,41,42
 424 444 424 444 490 378.5 c 128,-1,43
 556 313 556 313 556 222 c 0,0,1
EndSplineSet
Validated: 1
Substitution2: "<3,2> All Lower Case in Latin lookup 2 subtable" s
EndChar

StartChar: T
Encoding: 84 84 59
Width: 666
GlyphClass: 1
Flags: W
LayerCount: 2
Fore
SplineSet
556 667 m 1,0,-1
 333 667 l 1,1,-1
 333 0 l 1,2,-1
 222 0 l 1,3,-1
 222 667 l 1,4,-1
 0 667 l 1,5,-1
 0 778 l 1,6,-1
 556 778 l 1,7,-1
 556 667 l 1,0,-1
EndSplineSet
Validated: 1
Substitution2: "<3,2> All Lower Case in Latin lookup 2 subtable" t
EndChar

StartChar: U
Encoding: 85 85 60
Width: 666
GlyphClass: 1
Flags: W
LayerCount: 2
Fore
SplineSet
556 222 m 2,0,1
 556 130 556 130 491 65 c 128,-1,2
 426 0 426 0 333 0 c 2,3,-1
 222 0 l 2,4,5
 130 0 130 0 65 65 c 128,-1,6
 0 130 0 130 0 222 c 2,7,-1
 0 778 l 1,8,-1
 111 778 l 1,9,-1
 111 222 l 2,10,11
 111 176 111 176 144 143.5 c 128,-1,12
 177 111 177 111 222 111 c 2,13,-1
 333 111 l 2,14,15
 379 111 379 111 411.5 144 c 128,-1,16
 444 177 444 177 444 222 c 2,17,-1
 444 778 l 1,18,-1
 556 778 l 1,19,-1
 556 222 l 2,0,1
EndSplineSet
Validated: 1
Substitution2: "<3,2> All Lower Case in Latin lookup 2 subtable" u
EndChar

StartChar: V
Encoding: 86 86 61
Width: 666
GlyphClass: 1
Flags: W
LayerCount: 2
Fore
SplineSet
556 556 m 1,0,-1
 278 0 l 1,1,-1
 0 556 l 1,2,-1
 0 778 l 1,3,-1
 111 778 l 1,4,-1
 111 581 l 1,5,-1
 278 250 l 1,6,-1
 444 583 l 1,7,-1
 444 778 l 1,8,-1
 556 778 l 1,9,-1
 556 556 l 1,0,-1
EndSplineSet
Validated: 1
Substitution2: "<3,2> All Lower Case in Latin lookup 2 subtable" v
EndChar

StartChar: W
Encoding: 87 87 62
Width: 666
GlyphClass: 1
Flags: W
LayerCount: 2
Fore
SplineSet
556 0 m 1,0,-1
 472 0 l 1,1,-1
 278 194 l 1,2,-1
 83 0 l 1,3,-1
 0 0 l 1,4,-1
 0 778 l 1,5,-1
 111 778 l 1,6,-1
 111 194 l 1,7,-1
 222 306 l 1,8,-1
 222 444 l 1,9,-1
 333 444 l 1,10,-1
 333 306 l 1,11,-1
 444 194 l 1,12,-1
 444 778 l 1,13,-1
 556 778 l 1,14,-1
 556 0 l 1,0,-1
EndSplineSet
Validated: 1
Substitution2: "<3,2> All Lower Case in Latin lookup 2 subtable" w
EndChar

StartChar: X
Encoding: 88 88 63
Width: 666
GlyphClass: 1
Flags: W
LayerCount: 2
Fore
SplineSet
556 0 m 1,0,-1
 444 0 l 1,1,-1
 444 146 l 1,2,-1
 278 312 l 1,3,-1
 111 146 l 1,4,-1
 111 0 l 1,5,-1
 0 0 l 1,6,-1
 0 188 l 1,7,-1
 201 389 l 1,8,-1
 0 590 l 1,9,-1
 0 778 l 1,10,-1
 111 778 l 1,11,-1
 111 632 l 1,12,-1
 278 466 l 1,13,-1
 444 632 l 1,14,-1
 444 778 l 1,15,-1
 556 778 l 1,16,-1
 556 590 l 1,17,-1
 354 389 l 1,18,-1
 556 188 l 1,19,-1
 556 0 l 1,0,-1
EndSplineSet
Validated: 1
Substitution2: "<3,2> All Lower Case in Latin lookup 2 subtable" x
EndChar

StartChar: Y
Encoding: 89 89 64
Width: 666
GlyphClass: 1
Flags: W
LayerCount: 2
Fore
SplineSet
556 479 m 1,0,-1
 333 257 l 1,1,-1
 333 0 l 1,2,-1
 222 0 l 1,3,-1
 222 257 l 1,4,-1
 0 479 l 1,5,-1
 0 778 l 1,6,-1
 111 778 l 1,7,-1
 111 521 l 1,8,-1
 278 354 l 1,9,-1
 444 521 l 1,10,-1
 444 778 l 1,11,-1
 556 778 l 1,12,-1
 556 479 l 1,0,-1
EndSplineSet
Validated: 1
Substitution2: "<3,2> All Lower Case in Latin lookup 2 subtable" y
EndChar

StartChar: Z
Encoding: 90 90 65
Width: 666
GlyphClass: 1
Flags: W
LayerCount: 2
Fore
SplineSet
556 0 m 1,0,-1
 0 0 l 1,1,-1
 0 199 l 1,2,-1
 444 642 l 1,3,-1
 444 667 l 1,4,-1
 0 667 l 1,5,-1
 0 778 l 1,6,-1
 556 778 l 1,7,-1
 556 598 l 1,8,-1
 111 153 l 1,9,-1
 111 111 l 1,10,-1
 556 111 l 1,11,-1
 556 0 l 1,0,-1
EndSplineSet
Validated: 1
Substitution2: "<3,2> All Lower Case in Latin lookup 2 subtable" z
EndChar

StartChar: bracketleft
Encoding: 91 91 66
Width: 666
GlyphClass: 1
Flags: W
LayerCount: 2
Fore
SplineSet
444 -111 m 1,0,-1
 222 -111 l 1,1,-1
 222 889 l 1,2,-1
 444 889 l 1,3,-1
 444 778 l 1,4,-1
 333 778 l 1,5,-1
 333 0 l 1,6,-1
 444 0 l 1,7,-1
 444 -111 l 1,0,-1
EndSplineSet
Validated: 1
Substitution2: "'rtla' Right to Left Alternates in Latin lookup 0 subtable" bracketright
EndChar

StartChar: backslash
Encoding: 92 92 67
Width: 666
GlyphClass: 1
Flags: W
LayerCount: 2
Fore
SplineSet
667 -162 m 1,0,-1
 576 -212 l 1,1,-1
 39 839 l 1,2,-1
 138 890 l 1,3,-1
 667 -162 l 1,0,-1
EndSplineSet
Validated: 1
EndChar

StartChar: bracketright
Encoding: 93 93 68
Width: 666
GlyphClass: 1
Flags: W
LayerCount: 2
Fore
SplineSet
333 -111 m 1,0,-1
 111 -111 l 1,1,-1
 111 0 l 1,2,-1
 222 0 l 1,3,-1
 222 778 l 1,4,-1
 111 778 l 1,5,-1
 111 889 l 1,6,-1
 333 889 l 1,7,-1
 333 -111 l 1,0,-1
EndSplineSet
Validated: 1
Substitution2: "'rtla' Right to Left Alternates in Latin lookup 0 subtable" bracketleft
EndChar

StartChar: asciicircum
Encoding: 94 94 69
Width: 666
GlyphClass: 1
Flags: W
LayerCount: 2
Fore
SplineSet
591 506 m 1,0,-1
 513 427 l 1,1,-1
 297 643 l 1,2,-1
 81 428 l 1,3,-1
 2 507 l 1,4,-1
 297 801 l 1,5,-1
 591 506 l 1,0,-1
EndSplineSet
Validated: 1
EndChar

StartChar: underscore
Encoding: 95 95 70
Width: 666
GlyphClass: 1
Flags: W
LayerCount: 2
Fore
SplineSet
667 -222 m 1,0,-1
 0 -222 l 1,1,-1
 0 -111 l 1,2,-1
 667 -111 l 1,3,-1
 667 -222 l 1,0,-1
EndSplineSet
Validated: 1
EndChar

StartChar: grave
Encoding: 96 96 71
Width: 666
GlyphClass: 1
Flags: W
LayerCount: 2
Fore
SplineSet
472 607 m 1,0,-1
 393 528 l 1,1,-1
 83 838 l 1,2,-1
 162 917 l 1,3,-1
 472 607 l 1,0,-1
EndSplineSet
Validated: 1
EndChar

StartChar: a
Encoding: 97 97 72
Width: 666
GlyphClass: 1
Flags: W
LayerCount: 2
Fore
SplineSet
556 556 m 1,0,-1
 556 0 l 1,1,-1
 444 0 l 1,2,-1
 444 153 l 1,3,-1
 376 83 l 2,4,5
 293 0 293 0 222 0 c 0,6,7
 130 0 130 0 65 65 c 128,-1,8
 0 130 0 130 0 222 c 2,9,-1
 0 333 l 2,10,11
 0 425 0 425 65 490.5 c 128,-1,12
 130 556 130 556 222 556 c 2,13,-1
 556 556 l 1,0,-1
222 444 m 2,14,15
 176 444 176 444 143.5 411.5 c 128,-1,16
 111 379 111 379 111 333 c 2,17,-1
 111 222 l 2,18,19
 111 176 111 176 144 143.5 c 128,-1,20
 177 111 177 111 222 111 c 0,21,22
 278 111 278 111 333 167 c 2,23,-1
 444 278 l 1,24,-1
 444 444 l 1,25,-1
 222 444 l 2,14,15
EndSplineSet
Validated: 1
Substitution2: "<3,1> All Capitals in Latin lookup 1 subtable" A
EndChar

StartChar: b
Encoding: 98 98 73
Width: 666
GlyphClass: 1
Flags: W
LayerCount: 2
Fore
SplineSet
556 222 m 2,0,1
 556 130 556 130 491 65 c 128,-1,2
 426 0 426 0 333 0 c 2,3,-1
 0 0 l 1,4,-1
 0 778 l 1,5,-1
 111 778 l 1,6,-1
 111 556 l 1,7,-1
 333 556 l 2,8,9
 424 556 424 556 490 490 c 128,-1,10
 556 424 556 424 556 333 c 2,11,-1
 556 222 l 2,0,1
444 222 m 2,12,-1
 444 333 l 2,13,14
 444 379 444 379 411.5 411.5 c 128,-1,15
 379 444 379 444 333 444 c 2,16,-1
 111 444 l 1,17,-1
 111 111 l 1,18,-1
 333 111 l 2,19,20
 379 111 379 111 411.5 143.5 c 128,-1,21
 444 176 444 176 444 222 c 2,12,-1
EndSplineSet
Validated: 1
Substitution2: "<3,1> All Capitals in Latin lookup 1 subtable" B
EndChar

StartChar: c
Encoding: 99 99 74
Width: 666
GlyphClass: 1
Flags: W
LayerCount: 2
Fore
SplineSet
556 0 m 1,0,-1
 222 0 l 2,1,2
 131 0 131 0 65.5 65.5 c 128,-1,3
 0 131 0 131 0 222 c 2,4,-1
 0 333 l 2,5,6
 0 424 0 424 65.5 490 c 128,-1,7
 131 556 131 556 222 556 c 2,8,-1
 333 556 l 2,9,10
 424 556 424 556 490 490 c 128,-1,11
 556 424 556 424 556 333 c 1,12,-1
 444 333 l 1,13,14
 444 379 444 379 411.5 411.5 c 128,-1,15
 379 444 379 444 333 444 c 2,16,-1
 222 444 l 2,17,18
 176 444 176 444 143.5 411.5 c 128,-1,19
 111 379 111 379 111 333 c 2,20,-1
 111 222 l 2,21,22
 111 176 111 176 144 143.5 c 128,-1,23
 177 111 177 111 222 111 c 2,24,-1
 556 111 l 1,25,-1
 556 0 l 1,0,-1
EndSplineSet
Validated: 1
Substitution2: "<3,1> All Capitals in Latin lookup 1 subtable" C
EndChar

StartChar: d
Encoding: 100 100 75
Width: 666
GlyphClass: 1
Flags: W
LayerCount: 2
Fore
SplineSet
556 0 m 1,0,-1
 222 0 l 2,1,2
 130 0 130 0 65 65 c 128,-1,3
 0 130 0 130 0 222 c 2,4,-1
 0 333 l 2,5,6
 0 425 0 425 65 490.5 c 128,-1,7
 130 556 130 556 222 556 c 2,8,-1
 444 556 l 1,9,-1
 444 778 l 1,10,-1
 556 778 l 1,11,-1
 556 0 l 1,0,-1
444 111 m 1,12,-1
 444 444 l 1,13,-1
 222 444 l 2,14,15
 176 444 176 444 143.5 411.5 c 128,-1,16
 111 379 111 379 111 333 c 2,17,-1
 111 222 l 2,18,19
 111 176 111 176 144 143.5 c 128,-1,20
 177 111 177 111 222 111 c 2,21,-1
 444 111 l 1,12,-1
EndSplineSet
Validated: 1
Substitution2: "<3,1> All Capitals in Latin lookup 1 subtable" D
EndChar

StartChar: e
Encoding: 101 101 76
Width: 666
GlyphClass: 1
Flags: W
LayerCount: 2
Fore
SplineSet
556 0 m 1,0,-1
 222 0 l 2,1,2
 130 0 130 0 65 65 c 128,-1,3
 0 130 0 130 0 222 c 2,4,-1
 0 333 l 2,5,6
 0 425 0 425 65 490.5 c 128,-1,7
 130 556 130 556 222 556 c 2,8,-1
 333 556 l 2,9,10
 424 556 424 556 490 490 c 128,-1,11
 556 424 556 424 556 333 c 2,12,-1
 556 222 l 1,13,-1
 111 222 l 1,14,15
 111 176 111 176 144 143.5 c 128,-1,16
 177 111 177 111 222 111 c 2,17,-1
 556 111 l 1,18,-1
 556 0 l 1,0,-1
444 333 m 1,19,20
 444 379 444 379 411.5 411.5 c 128,-1,21
 379 444 379 444 333 444 c 2,22,-1
 222 444 l 2,23,24
 176 444 176 444 143.5 411.5 c 128,-1,25
 111 379 111 379 111 333 c 1,26,-1
 444 333 l 1,19,20
EndSplineSet
Validated: 1
Substitution2: "<3,1> All Capitals in Latin lookup 1 subtable" E
EndChar

StartChar: f
Encoding: 102 102 77
Width: 666
GlyphClass: 1
Flags: W
LayerCount: 2
Fore
SplineSet
556 667 m 1,0,-1
 444 667 l 2,1,2
 398 667 398 667 365.5 634 c 128,-1,3
 333 601 333 601 333 556 c 1,4,-1
 444 556 l 1,5,-1
 444 444 l 1,6,-1
 333 444 l 1,7,-1
 333 0 l 1,8,-1
 222 0 l 1,9,-1
 222 444 l 1,10,-1
 111 444 l 1,11,-1
 111 556 l 1,12,-1
 222 556 l 1,13,14
 222 648 222 648 287.5 713 c 128,-1,15
 353 778 353 778 444 778 c 2,16,-1
 556 778 l 1,17,-1
 556 667 l 1,0,-1
EndSplineSet
Validated: 1
Substitution2: "<3,1> All Capitals in Latin lookup 1 subtable" F
EndChar

StartChar: g
Encoding: 103 103 78
Width: 666
GlyphClass: 1
Flags: W
LayerCount: 2
Fore
SplineSet
556 0 m 2,0,1
 556 -91 556 -91 491 -156.5 c 128,-1,2
 426 -222 426 -222 333 -222 c 2,3,-1
 111 -222 l 1,4,-1
 111 -111 l 1,5,-1
 333 -111 l 2,6,7
 379 -111 379 -111 411.5 -78.5 c 128,-1,8
 444 -46 444 -46 444 0 c 1,9,-1
 222 0 l 2,10,11
 130 0 130 0 65 65 c 128,-1,12
 0 130 0 130 0 222 c 2,13,-1
 0 333 l 2,14,15
 0 425 0 425 65 490.5 c 128,-1,16
 130 556 130 556 222 556 c 2,17,-1
 556 556 l 1,18,-1
 556 0 l 2,0,1
444 111 m 1,19,-1
 444 444 l 1,20,-1
 222 444 l 2,21,22
 176 444 176 444 143.5 411.5 c 128,-1,23
 111 379 111 379 111 333 c 2,24,-1
 111 222 l 2,25,26
 111 176 111 176 144 143.5 c 128,-1,27
 177 111 177 111 222 111 c 2,28,-1
 444 111 l 1,19,-1
EndSplineSet
Validated: 1
Substitution2: "<3,1> All Capitals in Latin lookup 1 subtable" G
EndChar

StartChar: h
Encoding: 104 104 79
Width: 666
GlyphClass: 1
Flags: W
LayerCount: 2
Fore
SplineSet
556 0 m 1,0,-1
 444 0 l 1,1,-1
 444 333 l 2,2,3
 444 379 444 379 411.5 411.5 c 128,-1,4
 379 444 379 444 333 444 c 2,5,-1
 111 444 l 1,6,-1
 111 0 l 1,7,-1
 0 0 l 1,8,-1
 0 778 l 1,9,-1
 111 778 l 1,10,-1
 111 556 l 1,11,-1
 333 556 l 2,12,13
 424 556 424 556 490 490 c 128,-1,14
 556 424 556 424 556 333 c 2,15,-1
 556 0 l 1,0,-1
EndSplineSet
Validated: 1
Substitution2: "<3,1> All Capitals in Latin lookup 1 subtable" H
EndChar

StartChar: i
Encoding: 105 105 80
Width: 666
GlyphClass: 1
Flags: W
LayerCount: 2
Fore
SplineSet
333 722 m 256,0,1
 333 699 333 699 317 683 c 128,-1,2
 301 667 301 667 278 667 c 256,3,4
 255 667 255 667 238.5 683 c 128,-1,5
 222 699 222 699 222 722 c 256,6,7
 222 745 222 745 238 761.5 c 128,-1,8
 254 778 254 778 278 778 c 256,9,10
 301 778 301 778 317 761.5 c 128,-1,11
 333 745 333 745 333 722 c 256,0,1
444 0 m 1,12,-1
 111 0 l 1,13,-1
 111 111 l 1,14,-1
 222 111 l 1,15,-1
 222 444 l 1,16,-1
 111 444 l 1,17,-1
 111 556 l 1,18,-1
 333 556 l 1,19,-1
 333 111 l 1,20,-1
 444 111 l 1,21,-1
 444 0 l 1,12,-1
EndSplineSet
Validated: 1
Substitution2: "<3,1> All Capitals in Latin lookup 1 subtable" I
EndChar

StartChar: j
Encoding: 106 106 81
Width: 666
GlyphClass: 1
Flags: W
LayerCount: 2
Fore
SplineSet
333 722 m 256,0,1
 333 699 333 699 317 683 c 128,-1,2
 301 667 301 667 278 667 c 256,3,4
 255 667 255 667 238.5 683 c 128,-1,5
 222 699 222 699 222 722 c 256,6,7
 222 745 222 745 238 761.5 c 128,-1,8
 254 778 254 778 278 778 c 256,9,10
 301 778 301 778 317 761.5 c 128,-1,11
 333 745 333 745 333 722 c 256,0,1
333 0 m 2,12,13
 333 -91 333 -91 268 -156.5 c 128,-1,14
 203 -222 203 -222 111 -222 c 2,15,-1
 0 -222 l 1,16,-1
 0 -111 l 1,17,-1
 111 -111 l 2,18,19
 157 -111 157 -111 189.5 -78.5 c 128,-1,20
 222 -46 222 -46 222 0 c 2,21,-1
 222 444 l 1,22,-1
 111 444 l 1,23,-1
 111 556 l 1,24,-1
 333 556 l 1,25,-1
 333 0 l 2,12,13
0 -222 m 1024,26,-1
EndSplineSet
Validated: 1
Substitution2: "<3,1> All Capitals in Latin lookup 1 subtable" J
EndChar

StartChar: k
Encoding: 107 107 82
Width: 666
GlyphClass: 1
Flags: W
LayerCount: 2
Fore
SplineSet
556 0 m 1,0,-1
 479 0 l 1,1,-1
 222 257 l 1,2,-1
 111 146 l 1,3,-1
 111 0 l 1,4,-1
 0 0 l 1,5,-1
 0 778 l 1,6,-1
 111 778 l 1,7,-1
 111 299 l 1,8,-1
 368 556 l 1,9,-1
 521 556 l 1,10,-1
 299 333 l 1,11,-1
 556 77 l 1,12,-1
 556 0 l 1,0,-1
EndSplineSet
Validated: 1
Substitution2: "<3,1> All Capitals in Latin lookup 1 subtable" K
EndChar

StartChar: l
Encoding: 108 108 83
Width: 666
GlyphClass: 1
Flags: W
LayerCount: 2
Fore
SplineSet
444 0 m 1,0,-1
 111 0 l 1,1,-1
 111 111 l 1,2,-1
 222 111 l 1,3,-1
 222 667 l 1,4,-1
 111 667 l 1,5,-1
 111 778 l 1,6,-1
 333 778 l 1,7,-1
 333 111 l 1,8,-1
 444 111 l 1,9,-1
 444 0 l 1,0,-1
EndSplineSet
Validated: 1
Substitution2: "<3,1> All Capitals in Latin lookup 1 subtable" L
EndChar

StartChar: m
Encoding: 109 109 84
Width: 666
GlyphClass: 1
Flags: W
LayerCount: 2
Fore
SplineSet
556 0 m 1,0,-1
 444 0 l 1,1,-1
 444 333 l 2,2,3
 444 379 444 379 411.5 411.5 c 128,-1,4
 379 444 379 444 333 444 c 1,5,-1
 333 0 l 1,6,-1
 222 0 l 1,7,-1
 222 444 l 1,8,-1
 111 444 l 1,9,-1
 111 0 l 1,10,-1
 0 0 l 1,11,-1
 0 556 l 1,12,-1
 333 556 l 2,13,14
 424 556 424 556 490 490 c 128,-1,15
 556 424 556 424 556 333 c 2,16,-1
 556 0 l 1,0,-1
EndSplineSet
Validated: 1
Substitution2: "<3,1> All Capitals in Latin lookup 1 subtable" M
EndChar

StartChar: n
Encoding: 110 110 85
Width: 666
GlyphClass: 1
Flags: W
LayerCount: 2
Fore
SplineSet
111 556 m 1,0,-1
 111 403 l 1,1,-1
 181 472 l 2,2,3
 264 555 264 555 333 556 c 0,4,5
 425 556 425 556 490.5 491 c 128,-1,6
 556 426 556 426 556 333 c 2,7,-1
 556 0 l 1,8,-1
 444 0 l 1,9,-1
 444 333 l 2,10,11
 444 379 444 379 411.5 411.5 c 128,-1,12
 379 444 379 444 333 444 c 0,13,14
 277 444 277 444 222 389 c 2,15,-1
 111 278 l 1,16,-1
 111 0 l 1,17,-1
 0 0 l 1,18,-1
 0 556 l 1,19,-1
 111 556 l 1,0,-1
EndSplineSet
Validated: 1
Substitution2: "<3,1> All Capitals in Latin lookup 1 subtable" N
EndChar

StartChar: o
Encoding: 111 111 86
Width: 666
GlyphClass: 1
Flags: W
LayerCount: 2
Fore
SplineSet
556 222 m 2,0,1
 556 130 556 130 491 65 c 128,-1,2
 426 0 426 0 333 0 c 2,3,-1
 222 0 l 2,4,5
 130 0 130 0 65 65 c 128,-1,6
 0 130 0 130 0 222 c 2,7,-1
 0 333 l 2,8,9
 0 425 0 425 65 490.5 c 128,-1,10
 130 556 130 556 222 556 c 2,11,-1
 333 556 l 2,12,13
 424 556 424 556 490 490 c 128,-1,14
 556 424 556 424 556 333 c 2,15,-1
 556 222 l 2,0,1
444 222 m 2,16,-1
 444 333 l 2,17,18
 444 379 444 379 411.5 411.5 c 128,-1,19
 379 444 379 444 333 444 c 2,20,-1
 222 444 l 2,21,22
 176 444 176 444 143.5 411.5 c 128,-1,23
 111 379 111 379 111 333 c 2,24,-1
 111 222 l 2,25,26
 111 176 111 176 144 143.5 c 128,-1,27
 177 111 177 111 222 111 c 2,28,-1
 333 111 l 2,29,30
 379 111 379 111 411.5 143.5 c 128,-1,31
 444 176 444 176 444 222 c 2,16,-1
EndSplineSet
Validated: 1
Substitution2: "<3,1> All Capitals in Latin lookup 1 subtable" O
EndChar

StartChar: p
Encoding: 112 112 87
Width: 666
GlyphClass: 1
Flags: W
LayerCount: 2
Fore
SplineSet
556 222 m 2,0,1
 556 130 556 130 491 65 c 128,-1,2
 426 0 426 0 333 0 c 2,3,-1
 111 0 l 1,4,-1
 111 -222 l 1,5,-1
 0 -222 l 1,6,-1
 0 556 l 1,7,-1
 333 556 l 2,8,9
 424 556 424 556 490 490 c 128,-1,10
 556 424 556 424 556 333 c 2,11,-1
 556 222 l 2,0,1
444 222 m 2,12,-1
 444 333 l 2,13,14
 444 379 444 379 411.5 411.5 c 128,-1,15
 379 444 379 444 333 444 c 2,16,-1
 111 444 l 1,17,-1
 111 111 l 1,18,-1
 333 111 l 2,19,20
 379 111 379 111 411.5 143.5 c 128,-1,21
 444 176 444 176 444 222 c 2,12,-1
0 -222 m 1024,22,-1
EndSplineSet
Validated: 1
Substitution2: "<3,1> All Capitals in Latin lookup 1 subtable" P
EndChar

StartChar: q
Encoding: 113 113 88
Width: 666
GlyphClass: 1
Flags: W
LayerCount: 2
Fore
SplineSet
556 -222 m 1,0,-1
 444 -222 l 1,1,-1
 444 0 l 1,2,-1
 222 0 l 2,3,4
 130 0 130 0 65 65 c 128,-1,5
 0 130 0 130 0 222 c 2,6,-1
 0 333 l 2,7,8
 0 425 0 425 65 490.5 c 128,-1,9
 130 556 130 556 222 556 c 2,10,-1
 556 556 l 1,11,-1
 556 -222 l 1,0,-1
444 111 m 1,12,-1
 444 444 l 1,13,-1
 222 444 l 2,14,15
 176 444 176 444 143.5 411.5 c 128,-1,16
 111 379 111 379 111 333 c 2,17,-1
 111 222 l 2,18,19
 111 176 111 176 144 143.5 c 128,-1,20
 177 111 177 111 222 111 c 2,21,-1
 444 111 l 1,12,-1
EndSplineSet
Validated: 1
Substitution2: "<3,1> All Capitals in Latin lookup 1 subtable" Q
EndChar

StartChar: r
Encoding: 114 114 89
Width: 666
GlyphClass: 1
Flags: W
LayerCount: 2
Fore
SplineSet
111 556 m 1,0,-1
 111 403 l 1,1,-1
 181 472 l 2,2,3
 264 555 264 555 333 556 c 0,4,5
 425 556 425 556 490.5 491 c 128,-1,6
 556 426 556 426 556 333 c 1,7,-1
 444 333 l 1,8,9
 444 379 444 379 411.5 411.5 c 128,-1,10
 379 444 379 444 333 444 c 0,11,12
 277 444 277 444 222 389 c 2,13,-1
 111 278 l 1,14,-1
 111 0 l 1,15,-1
 0 0 l 1,16,-1
 0 556 l 1,17,-1
 111 556 l 1,0,-1
EndSplineSet
Validated: 1
Substitution2: "<3,1> All Capitals in Latin lookup 1 subtable" R
EndChar

StartChar: s
Encoding: 115 115 90
Width: 666
GlyphClass: 1
Flags: W
LayerCount: 2
Fore
SplineSet
556 556 m 1,0,-1
 556 444 l 1,1,-1
 264 444 l 2,2,3
 206 444 206 444 166 428 c 128,-1,4
 126 412 126 412 126 389 c 256,5,6
 126 366 126 366 166.5 349.5 c 128,-1,7
 207 333 207 333 264 333 c 2,8,-1
 292 333 l 2,9,10
 395 333 395 333 468.5 284.5 c 128,-1,11
 542 236 542 236 542 167 c 256,12,13
 542 98 542 98 469 49 c 128,-1,14
 396 0 396 0 292 0 c 2,15,-1
 0 0 l 1,16,-1
 0 111 l 1,17,-1
 292 111 l 2,18,19
 349 111 349 111 390 127 c 128,-1,20
 431 143 431 143 431 167 c 256,21,22
 431 190 431 190 390 206 c 128,-1,23
 349 222 349 222 292 222 c 2,24,-1
 264 222 l 2,25,26
 160 222 160 222 87 271 c 128,-1,27
 14 320 14 320 14 389 c 256,28,29
 14 458 14 458 87 507 c 128,-1,30
 160 556 160 556 264 556 c 2,31,-1
 556 556 l 1,0,-1
EndSplineSet
Validated: 1
Substitution2: "<3,1> All Capitals in Latin lookup 1 subtable" S
EndChar

StartChar: t
Encoding: 116 116 91
Width: 666
GlyphClass: 1
Flags: W
LayerCount: 2
Fore
SplineSet
556 0 m 1,0,-1
 444 0 l 2,1,2
 352 0 352 0 287 65 c 128,-1,3
 222 130 222 130 222 222 c 2,4,-1
 222 444 l 1,5,-1
 111 444 l 1,6,-1
 111 556 l 1,7,-1
 222 556 l 1,8,-1
 222 778 l 1,9,-1
 333 778 l 1,10,-1
 333 556 l 1,11,-1
 444 556 l 1,12,-1
 444 444 l 1,13,-1
 333 444 l 1,14,-1
 333 222 l 2,15,16
 333 176 333 176 366 143.5 c 128,-1,17
 399 111 399 111 444 111 c 2,18,-1
 556 111 l 1,19,-1
 556 0 l 1,0,-1
EndSplineSet
Validated: 1
Substitution2: "<3,1> All Capitals in Latin lookup 1 subtable" T
EndChar

StartChar: u
Encoding: 117 117 92
Width: 666
GlyphClass: 1
Flags: W
LayerCount: 2
Fore
SplineSet
444 0 m 1,0,-1
 444 153 l 1,1,-1
 376 83 l 2,2,3
 293 0 293 0 222 0 c 0,4,5
 130 0 130 0 65 65 c 128,-1,6
 0 130 0 130 0 222 c 2,7,-1
 0 556 l 1,8,-1
 111 556 l 1,9,-1
 111 222 l 2,10,11
 111 176 111 176 144 143.5 c 128,-1,12
 177 111 177 111 222 111 c 0,13,14
 278 111 278 111 333 167 c 2,15,-1
 444 278 l 1,16,-1
 444 556 l 1,17,-1
 556 556 l 1,18,-1
 556 0 l 1,19,-1
 444 0 l 1,0,-1
EndSplineSet
Validated: 1
Substitution2: "<3,1> All Capitals in Latin lookup 1 subtable" U
EndChar

StartChar: v
Encoding: 118 118 93
Width: 666
GlyphClass: 1
Flags: W
LayerCount: 2
Fore
SplineSet
556 444 m 1,0,-1
 333 0 l 1,1,-1
 222 0 l 1,2,-1
 0 444 l 1,3,-1
 0 556 l 1,4,-1
 111 556 l 1,5,-1
 111 472 l 1,6,-1
 278 139 l 1,7,-1
 444 472 l 1,8,-1
 444 556 l 1,9,-1
 556 556 l 1,10,-1
 556 444 l 1,0,-1
EndSplineSet
Validated: 1
Substitution2: "<3,1> All Capitals in Latin lookup 1 subtable" V
EndChar

StartChar: w
Encoding: 119 119 94
Width: 666
GlyphClass: 1
Flags: W
LayerCount: 2
Fore
SplineSet
271 111 m 1,0,1
 225 0 225 0 167 0 c 0,2,3
 98 0 98 0 49 73.5 c 128,-1,4
 0 147 0 147 0 250 c 2,5,-1
 0 556 l 1,6,-1
 111 556 l 1,7,-1
 111 250 l 2,8,9
 111 192 111 192 127 151 c 128,-1,10
 143 110 143 110 167 110 c 256,11,12
 190 110 190 110 206 151 c 128,-1,13
 222 192 222 192 222 250 c 2,14,-1
 222 556 l 1,15,-1
 333 556 l 1,16,-1
 333 250 l 2,17,18
 333 192 333 192 349.5 151.5 c 128,-1,19
 366 111 366 111 389 111 c 256,20,21
 412 111 412 111 428 151.5 c 128,-1,22
 444 192 444 192 444 250 c 2,23,-1
 444 556 l 1,24,-1
 556 556 l 1,25,-1
 556 250 l 2,26,27
 556 147 556 147 507 73.5 c 128,-1,28
 458 0 458 0 389 0 c 0,29,30
 330 0 330 0 284 111 c 1,31,-1
 271 111 l 1,0,1
EndSplineSet
Validated: 1
Substitution2: "<3,1> All Capitals in Latin lookup 1 subtable" W
EndChar

StartChar: x
Encoding: 120 120 95
Width: 666
GlyphClass: 1
Flags: W
LayerCount: 2
Fore
SplineSet
556 0 m 1,0,-1
 444 0 l 1,1,-1
 444 34 l 1,2,-1
 278 201 l 1,3,-1
 111 34 l 1,4,-1
 111 0 l 1,5,-1
 0 0 l 1,6,-1
 0 77 l 1,7,-1
 201 278 l 1,8,-1
 0 479 l 1,9,-1
 0 556 l 1,10,-1
 111 556 l 1,11,-1
 111 521 l 1,12,-1
 278 354 l 1,13,-1
 444 521 l 1,14,-1
 444 556 l 1,15,-1
 556 556 l 1,16,-1
 556 479 l 1,17,-1
 354 278 l 1,18,-1
 556 77 l 1,19,-1
 556 0 l 1,0,-1
EndSplineSet
Validated: 1
Substitution2: "<3,1> All Capitals in Latin lookup 1 subtable" X
EndChar

StartChar: y
Encoding: 121 121 96
Width: 666
GlyphClass: 1
Flags: W
LayerCount: 2
Fore
SplineSet
556 0 m 2,0,1
 556 -91 556 -91 491 -156.5 c 128,-1,2
 426 -222 426 -222 333 -222 c 2,3,-1
 111 -222 l 1,4,-1
 111 -111 l 1,5,-1
 333 -111 l 2,6,7
 379 -111 379 -111 411.5 -78.5 c 128,-1,8
 444 -46 444 -46 444 0 c 1,9,-1
 222 0 l 2,10,11
 130 0 130 0 65 65 c 128,-1,12
 0 130 0 130 0 222 c 2,13,-1
 0 556 l 1,14,-1
 111 556 l 1,15,-1
 111 222 l 2,16,17
 111 176 111 176 144 143.5 c 128,-1,18
 177 111 177 111 222 111 c 2,19,-1
 444 111 l 1,20,-1
 444 556 l 1,21,-1
 556 556 l 1,22,-1
 556 0 l 2,0,1
EndSplineSet
Validated: 1
Substitution2: "<3,1> All Capitals in Latin lookup 1 subtable" Y
EndChar

StartChar: z
Encoding: 122 122 97
Width: 666
GlyphClass: 1
Flags: W
LayerCount: 2
Fore
SplineSet
556 0 m 1,0,-1
 0 0 l 1,1,-1
 0 77 l 1,2,-1
 368 444 l 1,3,-1
 0 444 l 1,4,-1
 0 556 l 1,5,-1
 556 556 l 1,6,-1
 556 479 l 1,7,-1
 188 111 l 1,8,-1
 556 111 l 1,9,-1
 556 0 l 1,0,-1
EndSplineSet
Validated: 1
Substitution2: "<3,1> All Capitals in Latin lookup 1 subtable" Z
EndChar

StartChar: braceleft
Encoding: 123 123 98
Width: 666
GlyphClass: 1
Flags: W
LayerCount: 2
Fore
SplineSet
444 -222 m 1,0,1
 352 -222 352 -222 287 -165 c 128,-1,2
 222 -108 222 -108 222 -28 c 2,3,-1
 222 222 l 2,4,5
 222 268 222 268 189.5 300.5 c 128,-1,6
 157 333 157 333 111 333 c 1,7,-1
 111 444 l 1,8,9
 157 444 157 444 189.5 477 c 128,-1,10
 222 510 222 510 222 556 c 2,11,-1
 222 806 l 2,12,13
 222 886 222 886 287 943 c 128,-1,14
 352 1000 352 1000 444 1000 c 1,15,-1
 444 889 l 1,16,17
 398 889 398 889 365.5 856 c 128,-1,18
 333 823 333 823 333 778 c 2,19,-1
 333 500 l 2,20,21
 333 441 333 441 222 396 c 1,22,-1
 222 382 l 1,23,24
 333 336 333 336 333 278 c 2,25,-1
 333 0 l 2,26,27
 333 -46 333 -46 366 -78.5 c 128,-1,28
 399 -111 399 -111 444 -111 c 1,29,-1
 444 -222 l 1,0,1
EndSplineSet
Validated: 1
Substitution2: "'rtla' Right to Left Alternates in Latin lookup 0 subtable" braceright
EndChar

StartChar: bar
Encoding: 124 124 99
Width: 666
GlyphClass: 1
Flags: W
LayerCount: 2
Fore
SplineSet
333 -111 m 1,0,-1
 222 -111 l 1,1,-1
 222 889 l 1,2,-1
 333 889 l 1,3,-1
 333 -111 l 1,0,-1
EndSplineSet
Validated: 1
Substitution2: "<17,1> Broken Vertical Bar lookup 13 subtable" brokenbar
EndChar

StartChar: braceright
Encoding: 125 125 100
Width: 666
GlyphClass: 1
Flags: W
LayerCount: 2
Fore
SplineSet
444 333 m 1,0,1
 398 333 398 333 365.5 300.5 c 128,-1,2
 333 268 333 268 333 222 c 2,3,-1
 333 -28 l 2,4,5
 333 -108 333 -108 268 -165 c 128,-1,6
 203 -222 203 -222 111 -222 c 1,7,-1
 111 -111 l 1,8,9
 157 -111 157 -111 189.5 -78.5 c 128,-1,10
 222 -46 222 -46 222 0 c 2,11,-1
 222 278 l 2,12,13
 222 337 222 337 333 382 c 1,14,-1
 333 396 l 1,15,16
 222 442 222 442 222 500 c 2,17,-1
 222 778 l 2,18,19
 222 824 222 824 189.5 856.5 c 128,-1,20
 157 889 157 889 111 889 c 1,21,-1
 111 1000 l 1,22,23
 203 1000 203 1000 268 943 c 128,-1,24
 333 886 333 886 333 806 c 2,25,-1
 333 556 l 2,26,27
 333 510 333 510 366 477 c 128,-1,28
 399 444 399 444 444 444 c 1,29,-1
 444 333 l 1,0,1
EndSplineSet
Validated: 1
Substitution2: "'rtla' Right to Left Alternates in Latin lookup 0 subtable" braceleft
EndChar

StartChar: asciitilde
Encoding: 126 126 101
Width: 666
GlyphClass: 1
Flags: W
LayerCount: 2
Fore
SplineSet
556 500 m 2,0,1
 556 431 556 431 507 382 c 128,-1,2
 458 333 458 333 389 333 c 256,3,4
 320 333 320 333 278 376 c 0,5,6
 209 445 209 445 167 444 c 0,7,8
 144 444 144 444 127.5 428 c 128,-1,9
 111 412 111 412 111 389 c 2,10,-1
 111 333 l 1,11,-1
 0 333 l 1,12,-1
 0 389 l 2,13,14
 0 458 0 458 49 507 c 128,-1,15
 98 556 98 556 167 556 c 0,16,17
 237 556 237 556 278 514 c 0,18,19
 348 444 348 444 389 444 c 0,20,21
 412 444 412 444 428 460.5 c 128,-1,22
 444 477 444 477 444 500 c 2,23,-1
 444 556 l 1,24,-1
 556 556 l 1,25,-1
 556 500 l 2,0,1
EndSplineSet
Validated: 33
EndChar

StartChar: exclamdown
Encoding: 161 161 104
Width: 666
GlyphClass: 1
Flags: W
LayerCount: 2
Fore
SplineSet
444 722 m 256,0,1
 444 699 444 699 428 683 c 128,-1,2
 412 667 412 667 389 667 c 256,3,4
 366 667 366 667 349.5 683 c 128,-1,5
 333 699 333 699 333 722 c 256,6,7
 333 745 333 745 349.5 761.5 c 128,-1,8
 366 778 366 778 389 778 c 256,9,10
 412 778 412 778 428 761.5 c 128,-1,11
 444 745 444 745 444 722 c 256,0,1
444 0 m 1,12,-1
 333 0 l 1,13,-1
 333 556 l 1,14,-1
 444 556 l 1,15,-1
 444 0 l 1,12,-1
EndSplineSet
Validated: 1
EndChar

StartChar: cent
Encoding: 162 162 105
Width: 666
GlyphClass: 1
Flags: W
LayerCount: 2
Fore
SplineSet
556 0 m 1,0,-1
 333 0 l 1,1,-1
 333 -111 l 1,2,-1
 222 -111 l 1,3,-1
 222 0 l 1,4,5
 131 0 131 0 65.5 65.5 c 128,-1,6
 0 131 0 131 0 222 c 2,7,-1
 0 333 l 2,8,9
 0 424 0 424 65.5 490 c 128,-1,10
 131 556 131 556 222 556 c 1,11,-1
 222 667 l 1,12,-1
 333 667 l 1,13,-1
 333 556 l 1,14,15
 424 556 424 556 490 490 c 128,-1,16
 556 424 556 424 556 333 c 1,17,-1
 444 333 l 1,18,19
 444 379 444 379 411.5 411.5 c 128,-1,20
 379 444 379 444 333 444 c 1,21,-1
 333 111 l 1,22,-1
 556 111 l 1,23,-1
 556 0 l 1,0,-1
222 111 m 1,24,-1
 222 444 l 1,25,26
 176 444 176 444 143.5 411.5 c 128,-1,27
 111 379 111 379 111 333 c 2,28,-1
 111 222 l 2,29,30
 111 176 111 176 143.5 143.5 c 128,-1,31
 176 111 176 111 222 111 c 1,24,-1
EndSplineSet
Validated: 1
EndChar

StartChar: sterling
Encoding: 163 163 106
Width: 666
GlyphClass: 1
Flags: W
LayerCount: 2
Fore
SplineSet
556 222 m 1,0,1
 556 135 556 135 488 67.5 c 128,-1,2
 420 0 420 0 333 0 c 2,3,-1
 0 0 l 1,4,-1
 0 667 l 2,5,6
 0 759 0 759 65 824 c 128,-1,7
 130 889 130 889 222 889 c 0,8,9
 313 889 313 889 378.5 823.5 c 128,-1,10
 444 758 444 758 444 667 c 1,11,-1
 333 667 l 1,12,13
 333 713 333 713 300.5 745.5 c 128,-1,14
 268 778 268 778 222 778 c 256,15,16
 176 778 176 778 143.5 745 c 128,-1,17
 111 712 111 712 111 667 c 2,18,-1
 111 556 l 1,19,-1
 333 556 l 1,20,-1
 333 444 l 1,21,-1
 111 444 l 1,22,-1
 111 111 l 1,23,-1
 333 111 l 2,24,25
 373 111 373 111 408.5 146.5 c 128,-1,26
 444 182 444 182 444 222 c 1,27,-1
 556 222 l 1,0,1
EndSplineSet
Validated: 1
EndChar

StartChar: currency
Encoding: 164 164 107
Width: 666
GlyphClass: 1
Flags: W
LayerCount: 2
Fore
SplineSet
556 79 m 1,0,-1
 477 0 l 1,1,-1
 350 128 l 1,2,3
 317 111 317 111 278 111 c 256,4,5
 239 111 239 111 206 128 c 1,6,-1
 79 0 l 1,7,-1
 0 79 l 1,8,-1
 128 206 l 1,9,10
 111 239 111 239 111 278 c 256,11,12
 111 317 111 317 128 350 c 1,13,-1
 0 477 l 1,14,-1
 79 556 l 1,15,-1
 206 428 l 1,16,17
 239 445 239 445 278 444 c 256,18,19
 317 444 317 444 350 428 c 1,20,-1
 477 556 l 1,21,-1
 556 477 l 1,22,-1
 428 350 l 1,23,24
 445 317 445 317 444 278 c 256,25,26
 444 239 444 239 428 206 c 1,27,-1
 556 79 l 1,0,-1
333 278 m 256,28,29
 333 301 333 301 317 317 c 128,-1,30
 301 333 301 333 278 333 c 256,31,32
 255 333 255 333 238.5 317 c 128,-1,33
 222 301 222 301 222 278 c 256,34,35
 222 255 222 255 238 238.5 c 128,-1,36
 254 222 254 222 278 222 c 256,37,38
 301 222 301 222 317 238.5 c 128,-1,39
 333 255 333 255 333 278 c 256,28,29
EndSplineSet
Validated: 33
EndChar

StartChar: yen
Encoding: 165 165 108
Width: 666
GlyphClass: 1
Flags: W
LayerCount: 2
Fore
SplineSet
597 722 m 1,0,-1
 430 556 l 1,1,-1
 577 556 l 1,2,-1
 577 444 l 1,3,-1
 354 444 l 1,4,-1
 354 333 l 1,5,-1
 577 333 l 1,6,-1
 577 222 l 1,7,-1
 354 222 l 1,8,-1
 354 0 l 1,9,-1
 243 0 l 1,10,-1
 243 222 l 1,11,-1
 21 222 l 1,12,-1
 21 333 l 1,13,-1
 243 333 l 1,14,-1
 243 444 l 1,15,-1
 21 444 l 1,16,-1
 21 556 l 1,17,-1
 167 556 l 1,18,-1
 0 722 l 1,19,-1
 77 799 l 1,20,-1
 299 577 l 1,21,-1
 521 799 l 1,22,-1
 597 722 l 1,0,-1
EndSplineSet
Validated: 1
EndChar

StartChar: section
Encoding: 167 167 110
Width: 666
GlyphClass: 1
Flags: W
LayerCount: 2
Fore
SplineSet
556 222 m 1,0,-1
 444 222 l 1,1,-1
 444 368 l 1,2,-1
 56 756 l 2,3,4
 32 780 32 780 31 816 c 0,5,6
 31 878 31 878 94 939 c 128,-1,7
 157 1000 157 1000 222 1000 c 2,8,-1
 333 1000 l 2,9,10
 425 1000 425 1000 490.5 935 c 128,-1,11
 556 870 556 870 556 778 c 0,12,13
 557 665 557 665 556 667 c 2,14,-1
 444 667 l 1,15,-1
 444 778 l 2,16,17
 444 824 444 824 411.5 856.5 c 128,-1,18
 379 889 379 889 333 889 c 2,19,-1
 209 889 l 2,20,21
 186 889 186 889 169.5 873 c 128,-1,22
 153 857 153 857 153 833 c 0,23,24
 153 817 153 817 160 807 c 2,25,-1
 556 410 l 1,26,-1
 556 222 l 1,0,-1
500 133 m 2,27,28
 524 109 524 109 524 73 c 0,29,30
 524 11 524 11 461.5 -50 c 128,-1,31
 399 -111 399 -111 333 -111 c 2,32,-1
 222 -111 l 2,33,34
 130 -111 130 -111 65 -46 c 128,-1,35
 0 19 0 19 0 111 c 2,36,-1
 0 222 l 1,37,-1
 111 222 l 1,38,-1
 111 111 l 2,39,40
 111 65 111 65 144 32.5 c 128,-1,41
 177 0 177 0 222 0 c 2,42,-1
 348 0 l 2,43,44
 370 0 370 0 386.5 16 c 128,-1,45
 403 32 403 32 403 56 c 0,46,47
 403 70 403 70 397 82 c 2,48,-1
 0 479 l 1,49,-1
 0 667 l 1,50,-1
 111 667 l 1,51,-1
 111 521 l 1,52,-1
 500 133 l 2,27,28
EndSplineSet
Validated: 33
EndChar

StartChar: dieresis
Encoding: 168 168 111
Width: 666
GlyphClass: 1
Flags: W
LayerCount: 2
Fore
SplineSet
444 722 m 256,0,1
 444 699 444 699 428 683 c 128,-1,2
 412 667 412 667 389 667 c 256,3,4
 366 667 366 667 349.5 683 c 128,-1,5
 333 699 333 699 333 722 c 256,6,7
 333 745 333 745 349.5 761.5 c 128,-1,8
 366 778 366 778 389 778 c 256,9,10
 412 778 412 778 428 761.5 c 128,-1,11
 444 745 444 745 444 722 c 256,0,1
222 722 m 256,12,13
 222 699 222 699 206 683 c 128,-1,14
 190 667 190 667 167 667 c 256,15,16
 144 667 144 667 127.5 683 c 128,-1,17
 111 699 111 699 111 722 c 256,18,19
 111 745 111 745 127 761.5 c 128,-1,20
 143 778 143 778 167 778 c 256,21,22
 190 778 190 778 206 761.5 c 128,-1,23
 222 745 222 745 222 722 c 256,12,13
EndSplineSet
Validated: 1
EndChar

StartChar: copyright
Encoding: 169 169 112
Width: 666
GlyphClass: 1
Flags: W
LayerCount: 2
Fore
SplineSet
556 389 m 256,0,1
 556 228 556 228 442 114 c 128,-1,2
 328 0 328 0 167 0 c 0,3,4
 79 0 79 0 0 38 c 1,5,-1
 0 167 l 1,6,7
 73 111 73 111 167 111 c 0,8,9
 283 111 283 111 363.5 192 c 128,-1,10
 444 273 444 273 444 389 c 256,11,12
 444 505 444 505 362.5 586 c 128,-1,13
 281 667 281 667 167 667 c 0,14,15
 76 667 76 667 0 611 c 1,16,-1
 0 740 l 1,17,18
 79 778 79 778 167 778 c 0,19,20
 328 778 328 778 442 664 c 128,-1,21
 556 550 556 550 556 389 c 256,0,1
333 222 m 1,22,-1
 167 222 l 2,23,24
 98 222 98 222 49 271 c 128,-1,25
 0 320 0 320 0 389 c 256,26,27
 0 458 0 458 49 507 c 128,-1,28
 98 556 98 556 167 556 c 2,29,-1
 333 556 l 1,30,-1
 333 444 l 1,31,-1
 167 444 l 2,32,33
 144 444 144 444 127.5 428 c 128,-1,34
 111 412 111 412 111 389 c 256,35,36
 111 366 111 366 127 349.5 c 128,-1,37
 143 333 143 333 167 333 c 2,38,-1
 333 333 l 1,39,-1
 333 222 l 1,22,-1
EndSplineSet
Validated: 1
EndChar

StartChar: ordfeminine
Encoding: 170 170 113
Width: 666
GlyphClass: 1
Flags: W
LayerCount: 2
Fore
SplineSet
556 556 m 1,0,-1
 333 556 l 2,1,2
 241 556 241 556 176 621 c 128,-1,3
 111 686 111 686 111 778 c 256,4,5
 111 870 111 870 176 935 c 128,-1,6
 241 1000 241 1000 333 1000 c 2,7,-1
 556 1000 l 1,8,-1
 556 556 l 1,0,-1
556 333 m 1,9,-1
 111 333 l 1,10,-1
 111 444 l 1,11,-1
 556 444 l 1,12,-1
 556 333 l 1,9,-1
444 667 m 1,13,-1
 444 889 l 1,14,-1
 333 889 l 2,15,16
 287 889 287 889 254.5 856 c 128,-1,17
 222 823 222 823 222 778 c 256,18,19
 222 732 222 732 255 699.5 c 128,-1,20
 288 667 288 667 333 667 c 2,21,-1
 444 667 l 1,13,-1
EndSplineSet
Validated: 1
EndChar

StartChar: guillemotleft
Encoding: 171 171 114
Width: 666
GlyphClass: 1
Flags: W
LayerCount: 2
Fore
SplineSet
544 10 m 1,0,-1
 442 -33 l 1,1,-1
 333 222 l 1,2,-1
 442 478 l 1,3,-1
 544 434 l 1,4,-1
 451 222 l 1,5,-1
 544 10 l 1,0,-1
211 10 m 1,6,-1
 109 -33 l 1,7,-1
 0 222 l 1,8,-1
 109 478 l 1,9,-1
 211 434 l 1,10,-1
 118 222 l 1,11,-1
 211 10 l 1,6,-1
EndSplineSet
Validated: 1
EndChar

StartChar: logicalnot
Encoding: 172 172 115
Width: 666
GlyphClass: 1
Flags: W
LayerCount: 2
Fore
SplineSet
556 111 m 1,0,-1
 444 111 l 1,1,-1
 444 333 l 1,2,-1
 0 333 l 1,3,-1
 0 444 l 1,4,-1
 556 444 l 1,5,-1
 556 111 l 1,0,-1
EndSplineSet
Validated: 1
EndChar

StartChar: registered
Encoding: 174 174 117
Width: 666
GlyphClass: 1
Flags: W
LayerCount: 2
Fore
SplineSet
556 306 m 2,0,1
 556 225 556 225 499 168 c 128,-1,2
 442 111 442 111 361 111 c 2,3,-1
 256 111 l 1,4,-1
 146 222 l 1,5,-1
 111 222 l 1,6,-1
 111 111 l 1,7,-1
 0 111 l 1,8,-1
 0 556 l 1,9,-1
 167 556 l 2,10,11
 236 556 236 556 284.5 507 c 128,-1,12
 333 458 333 458 333 389 c 0,13,14
 333 307 333 307 267 257 c 1,15,-1
 301 222 l 1,16,-1
 319 222 l 2,17,18
 371 222 371 222 407.5 259 c 128,-1,19
 444 296 444 296 444 348 c 2,20,-1
 444 389 l 2,21,22
 444 505 444 505 362.5 586 c 128,-1,23
 281 667 281 667 167 667 c 0,24,25
 76 667 76 667 0 611 c 1,26,-1
 0 740 l 1,27,28
 79 778 79 778 167 778 c 0,29,30
 328 778 328 778 442 664 c 128,-1,31
 556 550 556 550 556 389 c 2,32,-1
 556 306 l 2,0,1
222 389 m 256,33,34
 222 412 222 412 206 428 c 128,-1,35
 190 444 190 444 167 444 c 2,36,-1
 111 444 l 1,37,-1
 111 333 l 1,38,-1
 167 333 l 2,39,40
 190 333 190 333 206 349.5 c 128,-1,41
 222 366 222 366 222 389 c 256,33,34
EndSplineSet
Validated: 1
EndChar

StartChar: macron
Encoding: 175 175 118
AltUni2: 0002c9.ffffffff.0 0002c9.ffffffff.0
Width: 666
GlyphClass: 1
Flags: W
LayerCount: 2
Fore
SplineSet
444 667 m 1,0,-1
 111 667 l 1,1,-1
 111 778 l 1,2,-1
 444 778 l 1,3,-1
 444 667 l 1,0,-1
EndSplineSet
Validated: 1
EndChar

StartChar: degree
Encoding: 176 176 119
Width: 666
GlyphClass: 1
Flags: W
LayerCount: 2
Fore
SplineSet
556 667 m 256,0,1
 556 576 556 576 491 510 c 128,-1,2
 426 444 426 444 333 444 c 256,3,4
 241 444 241 444 176 509 c 128,-1,5
 111 574 111 574 111 667 c 256,6,7
 111 759 111 759 176 824 c 128,-1,8
 241 889 241 889 333 889 c 0,9,10
 424 889 424 889 490 823.5 c 128,-1,11
 556 758 556 758 556 667 c 256,0,1
444 667 m 256,12,13
 444 713 444 713 411.5 745.5 c 128,-1,14
 379 778 379 778 333 778 c 256,15,16
 287 778 287 778 254.5 745 c 128,-1,17
 222 712 222 712 222 667 c 256,18,19
 222 621 222 621 255 588.5 c 128,-1,20
 288 556 288 556 333 556 c 256,21,22
 379 556 379 556 411.5 588.5 c 128,-1,23
 444 621 444 621 444 667 c 256,12,13
EndSplineSet
Validated: 1
EndChar

StartChar: plusminus
Encoding: 177 177 120
Width: 666
GlyphClass: 1
Flags: W
LayerCount: 2
Fore
SplineSet
556 0 m 1,0,-1
 0 0 l 1,1,-1
 0 111 l 1,2,-1
 222 111 l 1,3,-1
 222 333 l 1,4,-1
 0 333 l 1,5,-1
 0 444 l 1,6,-1
 222 444 l 1,7,-1
 222 667 l 1,8,-1
 333 667 l 1,9,-1
 333 444 l 1,10,-1
 556 444 l 1,11,-1
 556 333 l 1,12,-1
 333 333 l 1,13,-1
 333 111 l 1,14,-1
 556 111 l 1,15,-1
 556 0 l 1,0,-1
EndSplineSet
Validated: 1
EndChar

StartChar: acute
Encoding: 180 180 123
Width: 666
GlyphClass: 1
Flags: W
LayerCount: 2
Fore
SplineSet
466 722 m 1,0,-1
 284 542 l 1,1,-1
 208 618 l 1,2,-1
 389 799 l 1,3,-1
 466 722 l 1,0,-1
EndSplineSet
Validated: 1
EndChar

StartChar: mu
Encoding: 181 181 124
AltUni2: 0003bc.ffffffff.0 0003bc.ffffffff.0
Width: 666
GlyphClass: 1
Flags: W
LayerCount: 2
Fore
SplineSet
556 0 m 1,0,1
 456 0 456 0 389 76 c 1,2,3
 325 0 325 0 222 0 c 2,4,-1
 111 0 l 1,5,-1
 111 -222 l 1,6,-1
 0 -222 l 1,7,-1
 0 556 l 1,8,-1
 111 556 l 1,9,-1
 111 111 l 1,10,-1
 222 111 l 2,11,12
 268 111 268 111 300.5 144 c 128,-1,13
 333 177 333 177 333 222 c 2,14,-1
 333 556 l 1,15,-1
 444 556 l 1,16,-1
 444 222 l 2,17,18
 444 176 444 176 477 143.5 c 128,-1,19
 510 111 510 111 556 111 c 1,20,-1
 556 0 l 1,0,1
0 -222 m 1024,21,-1
EndSplineSet
Validated: 1
EndChar

StartChar: paragraph
Encoding: 182 182 125
Width: 666
GlyphClass: 1
Flags: W
LayerCount: 2
Fore
SplineSet
556 0 m 1,0,-1
 444 0 l 1,1,-1
 444 333 l 1,2,-1
 333 333 l 1,3,-1
 333 0 l 1,4,-1
 222 0 l 1,5,-1
 222 339 l 1,6,7
 126 358 126 358 63 434.5 c 128,-1,8
 0 511 0 511 0 611 c 0,9,10
 0 727 0 727 81 808 c 128,-1,11
 162 889 162 889 278 889 c 2,12,-1
 556 889 l 1,13,-1
 556 0 l 1,0,-1
444 444 m 1,14,-1
 444 778 l 1,15,-1
 333 778 l 1,16,-1
 333 444 l 1,17,-1
 444 444 l 1,14,-1
222 454 m 1,18,-1
 222 768 l 1,19,20
 173 750 173 750 142 707 c 128,-1,21
 111 664 111 664 111 611 c 256,22,23
 111 558 111 558 142 514.5 c 128,-1,24
 173 471 173 471 222 454 c 1,18,-1
EndSplineSet
Validated: 1
EndChar

StartChar: periodcentered
Encoding: 183 183 126
AltUni2: 002219.ffffffff.0 002219.ffffffff.0
Width: 666
GlyphClass: 1
Flags: W
LayerCount: 2
Fore
SplineSet
444 361 m 256,0,1
 444 315 444 315 411.5 282.5 c 128,-1,2
 379 250 379 250 333 250 c 256,3,4
 287 250 287 250 254.5 283 c 128,-1,5
 222 316 222 316 222 361 c 256,6,7
 222 407 222 407 255 439.5 c 128,-1,8
 288 472 288 472 333 472 c 256,9,10
 379 472 379 472 411.5 439.5 c 128,-1,11
 444 407 444 407 444 361 c 256,0,1
EndSplineSet
Validated: 1
EndChar

StartChar: cedilla
Encoding: 184 184 127
Width: 666
GlyphClass: 1
Flags: W
LayerCount: 2
Fore
SplineSet
333 -62 m 1,0,-1
 173 -222 l 1,1,-1
 97 -146 l 1,2,-1
 222 -21 l 1,3,-1
 222 0 l 1,4,-1
 111 0 l 1,5,-1
 111 111 l 1,6,-1
 333 111 l 1,7,-1
 333 -62 l 1,0,-1
EndSplineSet
Validated: 1
EndChar

StartChar: ordmasculine
Encoding: 186 186 129
Width: 666
GlyphClass: 1
Flags: W
LayerCount: 2
Fore
SplineSet
556 778 m 0,0,1
 556 686 556 686 491 621 c 128,-1,2
 426 556 426 556 333 556 c 256,3,4
 241 556 241 556 176 621 c 128,-1,5
 111 686 111 686 111 778 c 256,6,7
 111 870 111 870 176 935 c 128,-1,8
 241 1000 241 1000 333 1000 c 0,9,10
 424 1000 424 1000 490 934.5 c 128,-1,11
 556 869 556 869 556 778 c 0,0,1
556 333 m 1,12,-1
 111 333 l 1,13,-1
 111 444 l 1,14,-1
 556 444 l 1,15,-1
 556 333 l 1,12,-1
444 778 m 256,16,17
 444 824 444 824 411.5 856.5 c 128,-1,18
 379 889 379 889 333 889 c 256,19,20
 287 889 287 889 254.5 856 c 128,-1,21
 222 823 222 823 222 778 c 256,22,23
 222 732 222 732 255 699.5 c 128,-1,24
 288 667 288 667 333 667 c 256,25,26
 379 667 379 667 411.5 699.5 c 128,-1,27
 444 732 444 732 444 778 c 256,16,17
EndSplineSet
Validated: 1
EndChar

StartChar: guillemotright
Encoding: 187 187 130
Width: 666
GlyphClass: 1
Flags: W
LayerCount: 2
Fore
SplineSet
556 222 m 1,0,-1
 447 -33 l 1,1,-1
 344 10 l 1,2,-1
 438 222 l 1,3,-1
 344 434 l 1,4,-1
 447 478 l 1,5,-1
 556 222 l 1,0,-1
222 222 m 1,6,-1
 113 -33 l 1,7,-1
 11 10 l 1,8,-1
 104 222 l 1,9,-1
 11 434 l 1,10,-1
 113 478 l 1,11,-1
 222 222 l 1,6,-1
EndSplineSet
Validated: 1
EndChar

StartChar: questiondown
Encoding: 191 191 134
Width: 666
GlyphClass: 1
Flags: W
LayerCount: 2
Fore
SplineSet
333 722 m 256,0,1
 333 699 333 699 317 683 c 128,-1,2
 301 667 301 667 278 667 c 256,3,4
 255 667 255 667 238.5 683 c 128,-1,5
 222 699 222 699 222 722 c 256,6,7
 222 745 222 745 238 761.5 c 128,-1,8
 254 778 254 778 278 778 c 256,9,10
 301 778 301 778 317 761.5 c 128,-1,11
 333 745 333 745 333 722 c 256,0,1
556 222 m 1,12,13
 556 130 556 130 491 65 c 128,-1,14
 426 0 426 0 333 0 c 2,15,-1
 222 0 l 2,16,17
 130 0 130 0 65 65 c 128,-1,18
 0 130 0 130 0 222 c 0,19,20
 0 278 0 278 24 324 c 1,21,-1
 257 556 l 1,22,-1
 333 556 l 1,23,-1
 333 479 l 1,24,-1
 119 263 l 1,25,26
 111 246 111 246 111 222 c 0,27,28
 111 176 111 176 144 143.5 c 128,-1,29
 177 111 177 111 222 111 c 2,30,-1
 333 111 l 2,31,32
 379 111 379 111 411.5 144 c 128,-1,33
 444 177 444 177 444 222 c 1,34,-1
 556 222 l 1,12,13
EndSplineSet
Validated: 1
EndChar

StartChar: Agrave
Encoding: 192 192 135
Width: 666
GlyphClass: 1
Flags: W
LayerCount: 2
Fore
SplineSet
237 778 m 1,0,-1
 90 923 l 1,1,-1
 167 1000 l 1,2,-1
 347 820 l 1,3,-1
 306 778 l 1,4,-1
 348 778 l 1,5,-1
 556 361 l 1,6,-1
 556 0 l 1,7,-1
 444 0 l 1,8,-1
 444 222 l 1,9,-1
 111 222 l 1,10,-1
 111 0 l 1,11,-1
 0 0 l 1,12,-1
 0 361 l 1,13,-1
 209 778 l 1,14,-1
 237 778 l 1,0,-1
278 667 m 1,15,-1
 111 333 l 1,16,-1
 444 333 l 1,17,-1
 278 667 l 1,15,-1
EndSplineSet
Validated: 1
Substitution2: "<3,2> All Lower Case in Latin lookup 2 subtable" agrave
EndChar

StartChar: Aacute
Encoding: 193 193 136
Width: 666
GlyphClass: 1
Flags: W
LayerCount: 2
Fore
SplineSet
320 778 m 1,0,-1
 348 778 l 1,1,-1
 556 361 l 1,2,-1
 556 0 l 1,3,-1
 444 0 l 1,4,-1
 444 222 l 1,5,-1
 111 222 l 1,6,-1
 111 0 l 1,7,-1
 0 0 l 1,8,-1
 0 361 l 1,9,-1
 209 778 l 1,10,-1
 250 778 l 1,11,-1
 209 820 l 1,12,-1
 389 1000 l 1,13,-1
 466 923 l 1,14,-1
 320 778 l 1,0,-1
278 667 m 1,15,-1
 111 333 l 1,16,-1
 444 333 l 1,17,-1
 278 667 l 1,15,-1
EndSplineSet
Validated: 1
Substitution2: "<3,2> All Lower Case in Latin lookup 2 subtable" aacute
EndChar

StartChar: Acircumflex
Encoding: 194 194 137
Width: 666
GlyphClass: 1
Flags: W
LayerCount: 2
Fore
SplineSet
278 848 m 1,0,-1
 173 743 l 1,1,-1
 97 820 l 1,2,-1
 278 1000 l 1,3,-1
 459 820 l 1,4,-1
 382 743 l 1,5,-1
 278 848 l 1,0,-1
111 222 m 1,6,-1
 111 0 l 1,7,-1
 0 0 l 1,8,-1
 0 361 l 1,9,-1
 209 778 l 1,10,-1
 348 778 l 1,11,-1
 556 361 l 1,12,-1
 556 0 l 1,13,-1
 444 0 l 1,14,-1
 444 222 l 1,15,-1
 111 222 l 1,6,-1
278 667 m 1,16,-1
 111 333 l 1,17,-1
 444 333 l 1,18,-1
 278 667 l 1,16,-1
EndSplineSet
Validated: 5
Substitution2: "<3,2> All Lower Case in Latin lookup 2 subtable" acircumflex
EndChar

StartChar: Atilde
Encoding: 195 195 138
Width: 666
GlyphClass: 1
Flags: W
LayerCount: 2
Fore
SplineSet
556 944 m 2,0,1
 556 875 556 875 507 826.5 c 128,-1,2
 458 778 458 778 389 778 c 256,3,4
 320 778 320 778 278 820 c 0,5,6
 209 889 209 889 167 889 c 0,7,8
 144 889 144 889 127.5 873 c 128,-1,9
 111 857 111 857 111 833 c 2,10,-1
 111 778 l 1,11,-1
 0 778 l 1,12,-1
 0 833 l 2,13,14
 0 902 0 902 49 951 c 128,-1,15
 98 1000 98 1000 167 1000 c 0,16,17
 237 1000 237 1000 278 959 c 0,18,19
 348 889 348 889 389 889 c 0,20,21
 412 889 412 889 428 905 c 128,-1,22
 444 921 444 921 444 944 c 2,23,-1
 444 1000 l 1,24,-1
 556 1000 l 1,25,-1
 556 944 l 2,0,1
111 222 m 1,26,-1
 111 0 l 1,27,-1
 0 0 l 1,28,-1
 0 361 l 1,29,-1
 209 778 l 1,30,-1
 348 778 l 1,31,-1
 556 361 l 1,32,-1
 556 0 l 1,33,-1
 444 0 l 1,34,-1
 444 222 l 1,35,-1
 111 222 l 1,26,-1
278 667 m 1,36,-1
 111 333 l 1,37,-1
 444 333 l 1,38,-1
 278 667 l 1,36,-1
EndSplineSet
Validated: 1
Substitution2: "<3,2> All Lower Case in Latin lookup 2 subtable" atilde
EndChar

StartChar: Adieresis
Encoding: 196 196 139
Width: 666
GlyphClass: 1
Flags: W
LayerCount: 2
Fore
SplineSet
444 944 m 256,0,1
 444 921 444 921 428 905 c 128,-1,2
 412 889 412 889 389 889 c 256,3,4
 366 889 366 889 349.5 905 c 128,-1,5
 333 921 333 921 333 944 c 256,6,7
 333 967 333 967 349.5 983.5 c 128,-1,8
 366 1000 366 1000 389 1000 c 256,9,10
 412 1000 412 1000 428 983.5 c 128,-1,11
 444 967 444 967 444 944 c 256,0,1
222 944 m 256,12,13
 222 921 222 921 206 905 c 128,-1,14
 190 889 190 889 167 889 c 256,15,16
 144 889 144 889 127.5 905 c 128,-1,17
 111 921 111 921 111 944 c 256,18,19
 111 967 111 967 127 983.5 c 128,-1,20
 143 1000 143 1000 167 1000 c 256,21,22
 190 1000 190 1000 206 983.5 c 128,-1,23
 222 967 222 967 222 944 c 256,12,13
111 222 m 1,24,-1
 111 0 l 1,25,-1
 0 0 l 1,26,-1
 0 361 l 1,27,-1
 209 778 l 1,28,-1
 348 778 l 1,29,-1
 556 361 l 1,30,-1
 556 0 l 1,31,-1
 444 0 l 1,32,-1
 444 222 l 1,33,-1
 111 222 l 1,24,-1
278 667 m 1,34,-1
 111 333 l 1,35,-1
 444 333 l 1,36,-1
 278 667 l 1,34,-1
EndSplineSet
Validated: 1
Substitution2: "<3,2> All Lower Case in Latin lookup 2 subtable" adieresis
EndChar

StartChar: Aring
Encoding: 197 197 140
Width: 666
GlyphClass: 1
Flags: W
LayerCount: 2
Fore
SplineSet
172 704 m 1,0,1
 111 754 111 754 111 833 c 0,2,3
 111 902 111 902 160 951 c 128,-1,4
 209 1000 209 1000 278 1000 c 256,5,6
 347 1000 347 1000 395.5 951 c 128,-1,7
 444 902 444 902 444 833 c 0,8,9
 444 754 444 754 383 704 c 1,10,-1
 556 361 l 1,11,-1
 556 0 l 1,12,-1
 444 0 l 1,13,-1
 444 222 l 1,14,-1
 111 222 l 1,15,-1
 111 0 l 1,16,-1
 0 0 l 1,17,-1
 0 361 l 1,18,-1
 172 704 l 1,0,1
222 833 m 256,19,20
 222 810 222 810 238 794 c 128,-1,21
 254 778 254 778 278 778 c 256,22,23
 301 778 301 778 317 794 c 128,-1,24
 333 810 333 810 333 833 c 256,25,26
 333 856 333 856 317 872.5 c 128,-1,27
 301 889 301 889 278 889 c 256,28,29
 255 889 255 889 238.5 872.5 c 128,-1,30
 222 856 222 856 222 833 c 256,19,20
278 667 m 1,31,-1
 111 333 l 1,32,-1
 444 333 l 1,33,-1
 278 667 l 1,31,-1
EndSplineSet
Validated: 1
Substitution2: "<3,2> All Lower Case in Latin lookup 2 subtable" aring
EndChar

StartChar: AE
Encoding: 198 198 141
Width: 666
GlyphClass: 1
Flags: W
LayerCount: 2
Fore
SplineSet
556 0 m 1,0,-1
 222 0 l 1,1,-1
 222 333 l 1,2,-1
 111 333 l 1,3,-1
 111 0 l 1,4,-1
 0 0 l 1,5,-1
 0 556 l 2,6,7
 0 648 0 648 65 713 c 128,-1,8
 130 778 130 778 222 778 c 2,9,-1
 556 778 l 1,10,-1
 556 667 l 1,11,-1
 333 667 l 1,12,-1
 333 444 l 1,13,-1
 444 444 l 1,14,-1
 444 333 l 1,15,-1
 333 333 l 1,16,-1
 333 111 l 1,17,-1
 556 111 l 1,18,-1
 556 0 l 1,0,-1
222 444 m 1,19,-1
 222 667 l 1,20,21
 176 667 176 667 143.5 634 c 128,-1,22
 111 601 111 601 111 556 c 2,23,-1
 111 444 l 1,24,-1
 222 444 l 1,19,-1
EndSplineSet
Validated: 1
Ligature2: "<1,10> Diphthong Ligatures in Latin lookup 9 subtable" A e
Ligature2: "<1,10> Diphthong Ligatures in Latin lookup 9 subtable" A E
Substitution2: "<3,2> All Lower Case in Latin lookup 2 subtable" ae
EndChar

StartChar: Ccedilla
Encoding: 199 199 142
Width: 666
GlyphClass: 1
Flags: W
LayerCount: 2
Fore
SplineSet
556 222 m 1,0,1
 556 130 556 130 491 65 c 128,-1,2
 426 0 426 0 333 0 c 2,3,-1
 312 0 l 1,4,-1
 354 -41 l 1,5,-1
 173 -222 l 1,6,-1
 97 -146 l 1,7,-1
 243 0 l 1,8,-1
 222 0 l 2,9,10
 130 0 130 0 65 65 c 128,-1,11
 0 130 0 130 0 222 c 2,12,-1
 0 556 l 2,13,14
 0 648 0 648 65 713 c 128,-1,15
 130 778 130 778 222 778 c 2,16,-1
 333 778 l 2,17,18
 425 778 425 778 490.5 712.5 c 128,-1,19
 556 647 556 647 556 556 c 1,20,-1
 444 556 l 1,21,22
 444 602 444 602 411.5 634.5 c 128,-1,23
 379 667 379 667 333 667 c 2,24,-1
 222 667 l 2,25,26
 176 667 176 667 143.5 634 c 128,-1,27
 111 601 111 601 111 556 c 2,28,-1
 111 222 l 2,29,30
 111 176 111 176 144 143.5 c 128,-1,31
 177 111 177 111 222 111 c 2,32,-1
 333 111 l 2,33,34
 379 111 379 111 411.5 144 c 128,-1,35
 444 177 444 177 444 222 c 1,36,-1
 556 222 l 1,0,1
312 0 m 1,37,-1
 243 0 l 1,38,-1
 312 0 l 1,37,-1
EndSplineSet
Validated: 5
Substitution2: "<3,2> All Lower Case in Latin lookup 2 subtable" ccedilla
EndChar

StartChar: Egrave
Encoding: 200 200 143
Width: 666
GlyphClass: 1
Flags: W
LayerCount: 2
Fore
SplineSet
306 778 m 1,0,-1
 556 778 l 1,1,-1
 556 667 l 1,2,-1
 111 667 l 1,3,-1
 111 444 l 1,4,-1
 444 444 l 1,5,-1
 444 333 l 1,6,-1
 111 333 l 1,7,-1
 111 111 l 1,8,-1
 556 111 l 1,9,-1
 556 0 l 1,10,-1
 0 0 l 1,11,-1
 0 778 l 1,12,-1
 237 778 l 1,13,-1
 90 923 l 1,14,-1
 167 1000 l 1,15,-1
 348 820 l 1,16,-1
 306 778 l 1,0,-1
EndSplineSet
Validated: 1
Substitution2: "<3,2> All Lower Case in Latin lookup 2 subtable" egrave
EndChar

StartChar: Eacute
Encoding: 201 201 144
Width: 666
GlyphClass: 1
Flags: W
LayerCount: 2
Fore
SplineSet
327 778 m 1,0,-1
 556 778 l 1,1,-1
 556 667 l 1,2,-1
 111 667 l 1,3,-1
 111 444 l 1,4,-1
 444 444 l 1,5,-1
 444 333 l 1,6,-1
 111 333 l 1,7,-1
 111 111 l 1,8,-1
 556 111 l 1,9,-1
 556 0 l 1,10,-1
 0 0 l 1,11,-1
 0 778 l 1,12,-1
 243 778 l 1,13,-1
 209 812 l 1,14,-1
 389 993 l 1,15,-1
 466 917 l 1,16,-1
 327 778 l 1,0,-1
EndSplineSet
Validated: 1
Substitution2: "<3,2> All Lower Case in Latin lookup 2 subtable" eacute
EndChar

StartChar: Ecircumflex
Encoding: 202 202 145
Width: 666
GlyphClass: 1
Flags: W
LayerCount: 2
Fore
SplineSet
556 0 m 1,0,-1
 0 0 l 1,1,-1
 0 778 l 1,2,-1
 139 778 l 1,3,-1
 97 819 l 1,4,-1
 278 1000 l 1,5,-1
 458 819 l 1,6,-1
 417 778 l 1,7,-1
 556 778 l 1,8,-1
 556 667 l 1,9,-1
 111 667 l 1,10,-1
 111 444 l 1,11,-1
 444 444 l 1,12,-1
 444 333 l 1,13,-1
 111 333 l 1,14,-1
 111 111 l 1,15,-1
 556 111 l 1,16,-1
 556 0 l 1,0,-1
348 778 m 1,17,-1
 278 847 l 1,18,-1
 208 778 l 1,19,-1
 348 778 l 1,17,-1
EndSplineSet
Validated: 1
Substitution2: "<3,2> All Lower Case in Latin lookup 2 subtable" ecircumflex
EndChar

StartChar: Edieresis
Encoding: 203 203 146
Width: 666
GlyphClass: 1
Flags: W
LayerCount: 2
Fore
SplineSet
444 944 m 256,0,1
 444 921 444 921 428 905 c 128,-1,2
 412 889 412 889 389 889 c 256,3,4
 366 889 366 889 349.5 905 c 128,-1,5
 333 921 333 921 333 944 c 256,6,7
 333 967 333 967 349.5 983.5 c 128,-1,8
 366 1000 366 1000 389 1000 c 256,9,10
 412 1000 412 1000 428 983.5 c 128,-1,11
 444 967 444 967 444 944 c 256,0,1
222 944 m 256,12,13
 222 921 222 921 206 905 c 128,-1,14
 190 889 190 889 167 889 c 256,15,16
 144 889 144 889 127.5 905 c 128,-1,17
 111 921 111 921 111 944 c 256,18,19
 111 967 111 967 127 983.5 c 128,-1,20
 143 1000 143 1000 167 1000 c 256,21,22
 190 1000 190 1000 206 983.5 c 128,-1,23
 222 967 222 967 222 944 c 256,12,13
556 0 m 1,24,-1
 0 0 l 1,25,-1
 0 778 l 1,26,-1
 556 778 l 1,27,-1
 556 667 l 1,28,-1
 111 667 l 1,29,-1
 111 444 l 1,30,-1
 444 444 l 1,31,-1
 444 333 l 1,32,-1
 111 333 l 1,33,-1
 111 111 l 1,34,-1
 556 111 l 1,35,-1
 556 0 l 1,24,-1
EndSplineSet
Validated: 1
Substitution2: "<3,2> All Lower Case in Latin lookup 2 subtable" edieresis
EndChar

StartChar: Igrave
Encoding: 204 204 147
Width: 666
GlyphClass: 1
Flags: W
LayerCount: 2
Fore
SplineSet
237 778 m 1,0,-1
 90 923 l 1,1,-1
 167 1000 l 1,2,-1
 348 820 l 1,3,-1
 306 778 l 1,4,-1
 556 778 l 1,5,-1
 556 667 l 1,6,-1
 333 667 l 1,7,-1
 333 111 l 1,8,-1
 556 111 l 1,9,-1
 556 0 l 1,10,-1
 0 0 l 1,11,-1
 0 111 l 1,12,-1
 222 111 l 1,13,-1
 222 667 l 1,14,-1
 0 667 l 1,15,-1
 0 778 l 1,16,-1
 237 778 l 1,0,-1
EndSplineSet
Validated: 1
Substitution2: "<3,2> All Lower Case in Latin lookup 2 subtable" igrave
EndChar

StartChar: Iacute
Encoding: 205 205 148
Width: 666
GlyphClass: 1
Flags: W
LayerCount: 2
Fore
SplineSet
320 778 m 1,0,-1
 556 778 l 1,1,-1
 556 667 l 1,2,-1
 333 667 l 1,3,-1
 333 111 l 1,4,-1
 556 111 l 1,5,-1
 556 0 l 1,6,-1
 0 0 l 1,7,-1
 0 111 l 1,8,-1
 222 111 l 1,9,-1
 222 667 l 1,10,-1
 0 667 l 1,11,-1
 0 778 l 1,12,-1
 250 778 l 1,13,-1
 209 820 l 1,14,-1
 389 1000 l 1,15,-1
 466 923 l 1,16,-1
 320 778 l 1,0,-1
EndSplineSet
Validated: 1
Substitution2: "<3,2> All Lower Case in Latin lookup 2 subtable" iacute
EndChar

StartChar: Icircumflex
Encoding: 206 206 149
Width: 666
GlyphClass: 1
Flags: W
LayerCount: 2
Fore
SplineSet
556 0 m 1,0,-1
 0 0 l 1,1,-1
 0 111 l 1,2,-1
 222 111 l 1,3,-1
 222 667 l 1,4,-1
 0 667 l 1,5,-1
 0 778 l 1,6,-1
 138 778 l 1,7,8
 128 789 128 789 97 819 c 1,9,-1
 278 1000 l 1,10,-1
 458 819 l 1,11,-1
 417 778 l 1,12,-1
 556 778 l 1,13,-1
 556 667 l 1,14,-1
 333 667 l 1,15,-1
 333 111 l 1,16,-1
 556 111 l 1,17,-1
 556 0 l 1,0,-1
347 778 m 1,18,19
 329 797 329 797 278 847 c 1,20,-1
 208 778 l 1,21,-1
 347 778 l 1,18,19
EndSplineSet
Validated: 1
Substitution2: "<3,2> All Lower Case in Latin lookup 2 subtable" icircumflex
EndChar

StartChar: Idieresis
Encoding: 207 207 150
Width: 666
GlyphClass: 1
Flags: W
LayerCount: 2
Fore
SplineSet
444 944 m 256,0,1
 444 921 444 921 428 905 c 128,-1,2
 412 889 412 889 389 889 c 256,3,4
 366 889 366 889 349.5 905 c 128,-1,5
 333 921 333 921 333 944 c 256,6,7
 333 967 333 967 349.5 983.5 c 128,-1,8
 366 1000 366 1000 389 1000 c 256,9,10
 412 1000 412 1000 428 983.5 c 128,-1,11
 444 967 444 967 444 944 c 256,0,1
222 944 m 256,12,13
 222 921 222 921 206 905 c 128,-1,14
 190 889 190 889 167 889 c 256,15,16
 144 889 144 889 127.5 905 c 128,-1,17
 111 921 111 921 111 944 c 256,18,19
 111 967 111 967 127 983.5 c 128,-1,20
 143 1000 143 1000 167 1000 c 256,21,22
 190 1000 190 1000 206 983.5 c 128,-1,23
 222 967 222 967 222 944 c 256,12,13
556 0 m 1,24,-1
 0 0 l 1,25,-1
 0 111 l 1,26,-1
 222 111 l 1,27,-1
 222 667 l 1,28,-1
 0 667 l 1,29,-1
 0 778 l 1,30,-1
 556 778 l 1,31,-1
 556 667 l 1,32,-1
 333 667 l 1,33,-1
 333 111 l 1,34,-1
 556 111 l 1,35,-1
 556 0 l 1,24,-1
EndSplineSet
Validated: 1
Substitution2: "<3,2> All Lower Case in Latin lookup 2 subtable" idieresis
EndChar

StartChar: Ntilde
Encoding: 209 209 152
Width: 666
GlyphClass: 1
Flags: W
LayerCount: 2
Fore
SplineSet
556 956 m 2,0,1
 556 887 556 887 507 838 c 128,-1,2
 458 789 458 789 389 789 c 256,3,4
 320 789 320 789 278 831 c 0,5,6
 209 900 209 900 167 900 c 0,7,8
 144 900 144 900 127.5 884 c 128,-1,9
 111 868 111 868 111 844 c 2,10,-1
 111 789 l 1,11,-1
 0 789 l 1,12,-1
 0 844 l 2,13,14
 0 913 0 913 49 962 c 128,-1,15
 98 1011 98 1011 167 1011 c 0,16,17
 237 1011 237 1011 278 970 c 0,18,19
 348 900 348 900 389 900 c 0,20,21
 412 900 412 900 428 916 c 128,-1,22
 444 932 444 932 444 956 c 2,23,-1
 444 1011 l 1,24,-1
 556 1011 l 1,25,-1
 556 956 l 2,0,1
556 11 m 1,26,-1
 444 11 l 1,27,-1
 444 268 l 1,28,-1
 111 601 l 1,29,-1
 111 11 l 1,30,-1
 0 11 l 1,31,-1
 0 783 l 1,32,-1
 77 783 l 1,33,-1
 444 421 l 1,34,-1
 444 783 l 1,35,-1
 556 783 l 1,36,-1
 556 11 l 1,26,-1
EndSplineSet
Validated: 1
Substitution2: "<3,2> All Lower Case in Latin lookup 2 subtable" ntilde
EndChar

StartChar: Ograve
Encoding: 210 210 153
Width: 666
GlyphClass: 1
Flags: W
LayerCount: 2
Fore
SplineSet
306 778 m 1,0,-1
 333 778 l 2,1,2
 425 778 425 778 490.5 713 c 128,-1,3
 556 648 556 648 556 556 c 2,4,-1
 556 222 l 2,5,6
 556 130 556 130 491 65 c 128,-1,7
 426 0 426 0 333 0 c 2,8,-1
 222 0 l 2,9,10
 130 0 130 0 65 65 c 128,-1,11
 0 130 0 130 0 222 c 2,12,-1
 0 556 l 2,13,14
 0 648 0 648 65 713 c 128,-1,15
 130 778 130 778 222 778 c 2,16,-1
 237 778 l 1,17,-1
 90 923 l 1,18,-1
 167 1000 l 1,19,-1
 348 820 l 1,20,-1
 306 778 l 1,0,-1
333 667 m 2,21,-1
 222 667 l 2,22,23
 176 667 176 667 143.5 634 c 128,-1,24
 111 601 111 601 111 556 c 2,25,-1
 111 222 l 2,26,27
 111 176 111 176 144 143.5 c 128,-1,28
 177 111 177 111 222 111 c 2,29,-1
 333 111 l 2,30,31
 379 111 379 111 411.5 144 c 128,-1,32
 444 177 444 177 444 222 c 2,33,-1
 444 556 l 2,34,35
 444 602 444 602 411.5 634.5 c 128,-1,36
 379 667 379 667 333 667 c 2,21,-1
EndSplineSet
Validated: 1
Substitution2: "<3,2> All Lower Case in Latin lookup 2 subtable" ograve
EndChar

StartChar: Oacute
Encoding: 211 211 154
Width: 666
GlyphClass: 1
Flags: W
LayerCount: 2
Fore
SplineSet
209 820 m 1,0,-1
 389 1000 l 1,1,-1
 466 923 l 1,2,-1
 320 778 l 1,3,-1
 333 778 l 2,4,5
 425 778 425 778 490.5 713 c 128,-1,6
 556 648 556 648 556 556 c 2,7,-1
 556 222 l 2,8,9
 556 130 556 130 491 65 c 128,-1,10
 426 0 426 0 333 0 c 2,11,-1
 222 0 l 2,12,13
 130 0 130 0 65 65 c 128,-1,14
 0 130 0 130 0 222 c 2,15,-1
 0 556 l 2,16,17
 0 648 0 648 65 713 c 128,-1,18
 130 778 130 778 222 778 c 2,19,-1
 250 778 l 1,20,-1
 209 820 l 1,0,-1
333 667 m 2,21,-1
 222 667 l 2,22,23
 176 667 176 667 143.5 634 c 128,-1,24
 111 601 111 601 111 556 c 2,25,-1
 111 222 l 2,26,27
 111 176 111 176 144 143.5 c 128,-1,28
 177 111 177 111 222 111 c 2,29,-1
 333 111 l 2,30,31
 379 111 379 111 411.5 144 c 128,-1,32
 444 177 444 177 444 222 c 2,33,-1
 444 556 l 2,34,35
 444 602 444 602 411.5 634.5 c 128,-1,36
 379 667 379 667 333 667 c 2,21,-1
EndSplineSet
Validated: 1
Substitution2: "<3,2> All Lower Case in Latin lookup 2 subtable" oacute
EndChar

StartChar: Ocircumflex
Encoding: 212 212 155
Width: 666
GlyphClass: 1
Flags: W
LayerCount: 2
Fore
SplineSet
556 222 m 2,0,1
 556 130 556 130 491 65 c 128,-1,2
 426 0 426 0 333 0 c 2,3,-1
 222 0 l 2,4,5
 130 0 130 0 65 65 c 128,-1,6
 0 130 0 130 0 222 c 2,7,-1
 0 556 l 2,8,9
 0 627 0 627 42 684.5 c 128,-1,10
 84 742 84 742 150 766 c 1,11,-1
 97 819 l 1,12,-1
 278 1000 l 1,13,-1
 458 819 l 1,14,-1
 404 766 l 1,15,16
 471 744 471 744 513.5 686 c 128,-1,17
 556 628 556 628 556 556 c 2,18,-1
 556 222 l 2,0,1
348 778 m 1,19,-1
 278 847 l 1,20,-1
 208 778 l 1,21,-1
 348 778 l 1,19,-1
444 222 m 2,22,-1
 444 556 l 2,23,24
 444 602 444 602 411.5 634.5 c 128,-1,25
 379 667 379 667 333 667 c 2,26,-1
 222 667 l 2,27,28
 176 667 176 667 143.5 634 c 128,-1,29
 111 601 111 601 111 556 c 2,30,-1
 111 222 l 2,31,32
 111 176 111 176 144 143.5 c 128,-1,33
 177 111 177 111 222 111 c 2,34,-1
 333 111 l 2,35,36
 379 111 379 111 411.5 143.5 c 128,-1,37
 444 176 444 176 444 222 c 2,22,-1
EndSplineSet
Validated: 1
Substitution2: "<3,2> All Lower Case in Latin lookup 2 subtable" ocircumflex
EndChar

StartChar: Otilde
Encoding: 213 213 156
Width: 666
GlyphClass: 1
Flags: W
LayerCount: 2
Fore
SplineSet
556 944 m 2,0,1
 556 875 556 875 507 826.5 c 128,-1,2
 458 778 458 778 389 778 c 256,3,4
 320 778 320 778 278 820 c 0,5,6
 209 889 209 889 167 889 c 0,7,8
 144 889 144 889 127.5 873 c 128,-1,9
 111 857 111 857 111 833 c 2,10,-1
 111 778 l 1,11,-1
 0 778 l 1,12,-1
 0 833 l 2,13,14
 0 902 0 902 49 951 c 128,-1,15
 98 1000 98 1000 167 1000 c 0,16,17
 237 1000 237 1000 278 959 c 0,18,19
 348 889 348 889 389 889 c 0,20,21
 412 889 412 889 428 905 c 128,-1,22
 444 921 444 921 444 944 c 2,23,-1
 444 1000 l 1,24,-1
 556 1000 l 1,25,-1
 556 944 l 2,0,1
556 222 m 2,26,27
 556 130 556 130 491 65 c 128,-1,28
 426 0 426 0 333 0 c 2,29,-1
 222 0 l 2,30,31
 130 0 130 0 65 65 c 128,-1,32
 0 130 0 130 0 222 c 2,33,-1
 0 556 l 2,34,35
 0 648 0 648 65 713 c 128,-1,36
 130 778 130 778 222 778 c 2,37,-1
 333 778 l 2,38,39
 425 778 425 778 490.5 712.5 c 128,-1,40
 556 647 556 647 556 556 c 2,41,-1
 556 222 l 2,26,27
444 222 m 2,42,-1
 444 556 l 2,43,44
 444 602 444 602 411.5 634.5 c 128,-1,45
 379 667 379 667 333 667 c 2,46,-1
 222 667 l 2,47,48
 176 667 176 667 143.5 634 c 128,-1,49
 111 601 111 601 111 556 c 2,50,-1
 111 222 l 2,51,52
 111 176 111 176 144 143.5 c 128,-1,53
 177 111 177 111 222 111 c 2,54,-1
 333 111 l 2,55,56
 379 111 379 111 411.5 143.5 c 128,-1,57
 444 176 444 176 444 222 c 2,42,-1
EndSplineSet
Validated: 1
Substitution2: "<3,2> All Lower Case in Latin lookup 2 subtable" otilde
EndChar

StartChar: Odieresis
Encoding: 214 214 157
Width: 666
GlyphClass: 1
Flags: W
LayerCount: 2
Fore
SplineSet
444 944 m 256,0,1
 444 921 444 921 428 905 c 128,-1,2
 412 889 412 889 389 889 c 256,3,4
 366 889 366 889 349.5 905 c 128,-1,5
 333 921 333 921 333 944 c 256,6,7
 333 967 333 967 349.5 983.5 c 128,-1,8
 366 1000 366 1000 389 1000 c 256,9,10
 412 1000 412 1000 428 983.5 c 128,-1,11
 444 967 444 967 444 944 c 256,0,1
222 944 m 256,12,13
 222 921 222 921 206 905 c 128,-1,14
 190 889 190 889 167 889 c 256,15,16
 144 889 144 889 127.5 905 c 128,-1,17
 111 921 111 921 111 944 c 256,18,19
 111 967 111 967 127 983.5 c 128,-1,20
 143 1000 143 1000 167 1000 c 256,21,22
 190 1000 190 1000 206 983.5 c 128,-1,23
 222 967 222 967 222 944 c 256,12,13
556 222 m 2,24,25
 556 130 556 130 491 65 c 128,-1,26
 426 0 426 0 333 0 c 2,27,-1
 222 0 l 2,28,29
 130 0 130 0 65 65 c 128,-1,30
 0 130 0 130 0 222 c 2,31,-1
 0 556 l 2,32,33
 0 648 0 648 65 713 c 128,-1,34
 130 778 130 778 222 778 c 2,35,-1
 333 778 l 2,36,37
 425 778 425 778 490.5 712.5 c 128,-1,38
 556 647 556 647 556 556 c 2,39,-1
 556 222 l 2,24,25
444 222 m 2,40,-1
 444 556 l 2,41,42
 444 602 444 602 411.5 634.5 c 128,-1,43
 379 667 379 667 333 667 c 2,44,-1
 222 667 l 2,45,46
 176 667 176 667 143.5 634 c 128,-1,47
 111 601 111 601 111 556 c 2,48,-1
 111 222 l 2,49,50
 111 176 111 176 144 143.5 c 128,-1,51
 177 111 177 111 222 111 c 2,52,-1
 333 111 l 2,53,54
 379 111 379 111 411.5 143.5 c 128,-1,55
 444 176 444 176 444 222 c 2,40,-1
EndSplineSet
Validated: 1
Substitution2: "<3,2> All Lower Case in Latin lookup 2 subtable" odieresis
EndChar

StartChar: Oslash
Encoding: 216 216 158
Width: 666
GlyphClass: 1
Flags: W
LayerCount: 2
Fore
SplineSet
556 222 m 2,0,1
 556 130 556 130 491 65 c 128,-1,2
 426 0 426 0 333 0 c 2,3,-1
 222 0 l 2,4,5
 130 0 130 0 65 65 c 128,-1,6
 0 130 0 130 0 222 c 2,7,-1
 0 556 l 2,8,9
 0 648 0 648 65 713 c 128,-1,10
 130 778 130 778 222 778 c 2,11,-1
 333 778 l 2,12,13
 425 778 425 778 490.5 712.5 c 128,-1,14
 556 647 556 647 556 556 c 2,15,-1
 556 222 l 2,0,1
428 616 m 1,16,17
 395 667 395 667 333 667 c 2,18,-1
 222 667 l 2,19,20
 176 667 176 667 143.5 634 c 128,-1,21
 111 601 111 601 111 556 c 2,22,-1
 111 299 l 1,23,-1
 428 616 l 1,16,17
444 222 m 2,24,-1
 444 477 l 1,25,-1
 130 162 l 1,26,27
 163 111 163 111 222 111 c 2,28,-1
 333 111 l 2,29,30
 379 111 379 111 411.5 143.5 c 128,-1,31
 444 176 444 176 444 222 c 2,24,-1
EndSplineSet
Validated: 1
Substitution2: "<3,2> All Lower Case in Latin lookup 2 subtable" oslash
EndChar

StartChar: Ugrave
Encoding: 217 217 159
Width: 666
GlyphClass: 1
Flags: W
LayerCount: 2
Fore
SplineSet
347 819 m 1,0,-1
 271 743 l 1,1,-1
 90 923 l 1,2,-1
 167 1000 l 1,3,-1
 347 819 l 1,0,-1
556 222 m 2,4,5
 556 130 556 130 491 65 c 128,-1,6
 426 0 426 0 333 0 c 2,7,-1
 222 0 l 2,8,9
 130 0 130 0 65 65 c 128,-1,10
 0 130 0 130 0 222 c 2,11,-1
 0 778 l 1,12,-1
 111 778 l 1,13,-1
 111 222 l 2,14,15
 111 176 111 176 144 143.5 c 128,-1,16
 177 111 177 111 222 111 c 2,17,-1
 333 111 l 2,18,19
 379 111 379 111 411.5 144 c 128,-1,20
 444 177 444 177 444 222 c 2,21,-1
 444 778 l 1,22,-1
 556 778 l 1,23,-1
 556 222 l 2,4,5
EndSplineSet
Validated: 1
Substitution2: "<3,2> All Lower Case in Latin lookup 2 subtable" ugrave
EndChar

StartChar: Uacute
Encoding: 218 218 160
Width: 666
GlyphClass: 1
Flags: W
LayerCount: 2
Fore
SplineSet
466 923 m 1,0,-1
 284 743 l 1,1,-1
 208 819 l 1,2,-1
 389 1000 l 1,3,-1
 466 923 l 1,0,-1
556 222 m 2,4,5
 556 130 556 130 491 65 c 128,-1,6
 426 0 426 0 333 0 c 2,7,-1
 222 0 l 2,8,9
 130 0 130 0 65 65 c 128,-1,10
 0 130 0 130 0 222 c 2,11,-1
 0 778 l 1,12,-1
 111 778 l 1,13,-1
 111 222 l 2,14,15
 111 176 111 176 144 143.5 c 128,-1,16
 177 111 177 111 222 111 c 2,17,-1
 333 111 l 2,18,19
 379 111 379 111 411.5 144 c 128,-1,20
 444 177 444 177 444 222 c 2,21,-1
 444 778 l 1,22,-1
 556 778 l 1,23,-1
 556 222 l 2,4,5
EndSplineSet
Validated: 1
Substitution2: "<3,2> All Lower Case in Latin lookup 2 subtable" uacute
EndChar

StartChar: Ucircumflex
Encoding: 219 219 161
Width: 666
GlyphClass: 1
Flags: W
LayerCount: 2
Fore
SplineSet
458 819 m 1,0,-1
 382 743 l 1,1,-1
 278 847 l 1,2,-1
 173 743 l 1,3,-1
 97 819 l 1,4,-1
 278 1000 l 1,5,-1
 458 819 l 1,0,-1
556 222 m 2,6,7
 556 130 556 130 491 65 c 128,-1,8
 426 0 426 0 333 0 c 2,9,-1
 222 0 l 2,10,11
 130 0 130 0 65 65 c 128,-1,12
 0 130 0 130 0 222 c 2,13,-1
 0 778 l 1,14,-1
 111 778 l 1,15,-1
 111 222 l 2,16,17
 111 176 111 176 144 143.5 c 128,-1,18
 177 111 177 111 222 111 c 2,19,-1
 333 111 l 2,20,21
 379 111 379 111 411.5 144 c 128,-1,22
 444 177 444 177 444 222 c 2,23,-1
 444 778 l 1,24,-1
 556 778 l 1,25,-1
 556 222 l 2,6,7
EndSplineSet
Validated: 1
Substitution2: "<3,2> All Lower Case in Latin lookup 2 subtable" ucircumflex
EndChar

StartChar: Udieresis
Encoding: 220 220 162
Width: 666
GlyphClass: 1
Flags: W
LayerCount: 2
Fore
SplineSet
444 944 m 256,0,1
 444 921 444 921 428 905 c 128,-1,2
 412 889 412 889 389 889 c 256,3,4
 366 889 366 889 349.5 905 c 128,-1,5
 333 921 333 921 333 944 c 256,6,7
 333 967 333 967 349.5 983.5 c 128,-1,8
 366 1000 366 1000 389 1000 c 256,9,10
 412 1000 412 1000 428 983.5 c 128,-1,11
 444 967 444 967 444 944 c 256,0,1
222 944 m 256,12,13
 222 921 222 921 206 905 c 128,-1,14
 190 889 190 889 167 889 c 256,15,16
 144 889 144 889 127.5 905 c 128,-1,17
 111 921 111 921 111 944 c 256,18,19
 111 967 111 967 127 983.5 c 128,-1,20
 143 1000 143 1000 167 1000 c 256,21,22
 190 1000 190 1000 206 983.5 c 128,-1,23
 222 967 222 967 222 944 c 256,12,13
556 222 m 2,24,25
 556 130 556 130 491 65 c 128,-1,26
 426 0 426 0 333 0 c 2,27,-1
 222 0 l 2,28,29
 130 0 130 0 65 65 c 128,-1,30
 0 130 0 130 0 222 c 2,31,-1
 0 778 l 1,32,-1
 111 778 l 1,33,-1
 111 222 l 2,34,35
 111 176 111 176 144 143.5 c 128,-1,36
 177 111 177 111 222 111 c 2,37,-1
 333 111 l 2,38,39
 379 111 379 111 411.5 144 c 128,-1,40
 444 177 444 177 444 222 c 2,41,-1
 444 778 l 1,42,-1
 556 778 l 1,43,-1
 556 222 l 2,24,25
EndSplineSet
Validated: 1
Substitution2: "<3,2> All Lower Case in Latin lookup 2 subtable" udieresis
EndChar

StartChar: germandbls
Encoding: 223 223 165
Width: 666
GlyphClass: 1
Flags: W
LayerCount: 2
Fore
SplineSet
556 222 m 0,0,1
 556 130 556 130 491 65 c 128,-1,2
 426 0 426 0 333 0 c 2,3,-1
 222 0 l 1,4,-1
 222 111 l 1,5,-1
 333 111 l 2,6,7
 379 111 379 111 411.5 144 c 128,-1,8
 444 177 444 177 444 222 c 0,9,10
 444 288 444 288 388.5 320.5 c 128,-1,11
 333 353 333 353 333 417 c 2,12,-1
 333 472 l 2,13,14
 333 518 333 518 362 547 c 2,15,-1
 416 593 l 2,16,17
 445 622 445 622 444 667 c 0,18,19
 444 713 444 713 411.5 745.5 c 128,-1,20
 379 778 379 778 333 778 c 0,21,22
 307 778 307 778 290 769 c 1,23,-1
 142 622 l 2,24,25
 111 591 111 591 111 546 c 2,26,-1
 111 -111 l 1,27,-1
 0 -111 l 1,28,-1
 0 562 l 2,29,30
 0 632 0 632 46 678 c 2,31,-1
 257 889 l 1,32,-1
 333 889 l 2,33,34
 424 889 424 889 490 823.5 c 128,-1,35
 556 758 556 758 556 667 c 0,36,37
 556 556 556 556 467 489 c 0,38,39
 445 472 445 472 444 444 c 0,40,41
 444 417 444 417 464 402 c 0,42,43
 556 331 556 331 556 222 c 0,0,1
EndSplineSet
Validated: 33
EndChar

StartChar: agrave
Encoding: 224 224 166
Width: 666
GlyphClass: 1
Flags: W
LayerCount: 2
Fore
SplineSet
458 729 m 1,0,-1
 382 653 l 1,1,-1
 201 833 l 1,2,-1
 278 910 l 1,3,-1
 458 729 l 1,0,-1
556 556 m 1,4,-1
 556 0 l 1,5,-1
 444 0 l 1,6,-1
 444 153 l 1,7,-1
 376 83 l 2,8,9
 293 0 293 0 222 0 c 0,10,11
 130 0 130 0 65 65 c 128,-1,12
 0 130 0 130 0 222 c 2,13,-1
 0 333 l 2,14,15
 0 425 0 425 65 490.5 c 128,-1,16
 130 556 130 556 222 556 c 2,17,-1
 556 556 l 1,4,-1
222 444 m 2,18,19
 176 444 176 444 143.5 411.5 c 128,-1,20
 111 379 111 379 111 333 c 2,21,-1
 111 222 l 2,22,23
 111 176 111 176 144 143.5 c 128,-1,24
 177 111 177 111 222 111 c 0,25,26
 278 111 278 111 333 167 c 2,27,-1
 444 278 l 1,28,-1
 444 444 l 1,29,-1
 222 444 l 2,18,19
EndSplineSet
Validated: 1
Substitution2: "<3,1> All Capitals in Latin lookup 1 subtable" Agrave
EndChar

StartChar: aacute
Encoding: 225 225 167
Width: 666
GlyphClass: 1
Flags: W
LayerCount: 2
Fore
SplineSet
466 833 m 1,0,-1
 284 653 l 1,1,-1
 208 729 l 1,2,-1
 389 910 l 1,3,-1
 466 833 l 1,0,-1
556 556 m 1,4,-1
 556 0 l 1,5,-1
 444 0 l 1,6,-1
 444 153 l 1,7,-1
 376 83 l 2,8,9
 293 0 293 0 222 0 c 0,10,11
 130 0 130 0 65 65 c 128,-1,12
 0 130 0 130 0 222 c 2,13,-1
 0 333 l 2,14,15
 0 425 0 425 65 490.5 c 128,-1,16
 130 556 130 556 222 556 c 2,17,-1
 556 556 l 1,4,-1
222 444 m 2,18,19
 176 444 176 444 143.5 411.5 c 128,-1,20
 111 379 111 379 111 333 c 2,21,-1
 111 222 l 2,22,23
 111 176 111 176 144 143.5 c 128,-1,24
 177 111 177 111 222 111 c 0,25,26
 278 111 278 111 333 167 c 2,27,-1
 444 278 l 1,28,-1
 444 444 l 1,29,-1
 222 444 l 2,18,19
EndSplineSet
Validated: 1
Substitution2: "<3,1> All Capitals in Latin lookup 1 subtable" Aacute
EndChar

StartChar: acircumflex
Encoding: 226 226 168
Width: 666
GlyphClass: 1
Flags: W
LayerCount: 2
Fore
SplineSet
458 729 m 1,0,-1
 382 653 l 1,1,-1
 278 757 l 1,2,-1
 173 653 l 1,3,-1
 97 729 l 1,4,-1
 278 910 l 1,5,-1
 458 729 l 1,0,-1
556 556 m 1,6,-1
 556 0 l 1,7,-1
 444 0 l 1,8,-1
 444 153 l 1,9,-1
 376 83 l 2,10,11
 293 0 293 0 222 0 c 0,12,13
 130 0 130 0 65 65 c 128,-1,14
 0 130 0 130 0 222 c 2,15,-1
 0 333 l 2,16,17
 0 425 0 425 65 490.5 c 128,-1,18
 130 556 130 556 222 556 c 2,19,-1
 556 556 l 1,6,-1
222 444 m 2,20,21
 176 444 176 444 143.5 411.5 c 128,-1,22
 111 379 111 379 111 333 c 2,23,-1
 111 222 l 2,24,25
 111 176 111 176 144 143.5 c 128,-1,26
 177 111 177 111 222 111 c 0,27,28
 278 111 278 111 333 167 c 2,29,-1
 444 278 l 1,30,-1
 444 444 l 1,31,-1
 222 444 l 2,20,21
EndSplineSet
Validated: 1
Substitution2: "<3,1> All Capitals in Latin lookup 1 subtable" Acircumflex
EndChar

StartChar: atilde
Encoding: 227 227 169
Width: 666
GlyphClass: 1
Flags: W
LayerCount: 2
Fore
SplineSet
556 833 m 2,0,1
 556 764 556 764 507 715.5 c 128,-1,2
 458 667 458 667 389 667 c 256,3,4
 320 667 320 667 278 709 c 0,5,6
 209 778 209 778 167 778 c 0,7,8
 144 778 144 778 127.5 762 c 128,-1,9
 111 746 111 746 111 722 c 2,10,-1
 111 667 l 1,11,-1
 0 667 l 1,12,-1
 0 722 l 2,13,14
 0 791 0 791 49 840 c 128,-1,15
 98 889 98 889 167 889 c 0,16,17
 237 889 237 889 278 848 c 0,18,19
 348 778 348 778 389 778 c 0,20,21
 412 778 412 778 428 794 c 128,-1,22
 444 810 444 810 444 833 c 2,23,-1
 444 889 l 1,24,-1
 556 889 l 1,25,-1
 556 833 l 2,0,1
556 556 m 1,26,-1
 556 0 l 1,27,-1
 444 0 l 1,28,-1
 444 153 l 1,29,-1
 376 83 l 2,30,31
 293 0 293 0 222 0 c 0,32,33
 130 0 130 0 65 65 c 128,-1,34
 0 130 0 130 0 222 c 2,35,-1
 0 333 l 2,36,37
 0 425 0 425 65 490.5 c 128,-1,38
 130 556 130 556 222 556 c 2,39,-1
 556 556 l 1,26,-1
222 444 m 2,40,41
 176 444 176 444 143.5 411.5 c 128,-1,42
 111 379 111 379 111 333 c 2,43,-1
 111 222 l 2,44,45
 111 176 111 176 144 143.5 c 128,-1,46
 177 111 177 111 222 111 c 0,47,48
 278 111 278 111 333 167 c 2,49,-1
 444 278 l 1,50,-1
 444 444 l 1,51,-1
 222 444 l 2,40,41
EndSplineSet
Validated: 1
Substitution2: "<3,1> All Capitals in Latin lookup 1 subtable" Atilde
EndChar

StartChar: adieresis
Encoding: 228 228 170
Width: 666
GlyphClass: 1
Flags: W
LayerCount: 2
Fore
SplineSet
444 722 m 256,0,1
 444 699 444 699 428 683 c 128,-1,2
 412 667 412 667 389 667 c 256,3,4
 366 667 366 667 349.5 683 c 128,-1,5
 333 699 333 699 333 722 c 256,6,7
 333 745 333 745 349.5 761.5 c 128,-1,8
 366 778 366 778 389 778 c 256,9,10
 412 778 412 778 428 761.5 c 128,-1,11
 444 745 444 745 444 722 c 256,0,1
222 722 m 256,12,13
 222 699 222 699 206 683 c 128,-1,14
 190 667 190 667 167 667 c 256,15,16
 144 667 144 667 127.5 683 c 128,-1,17
 111 699 111 699 111 722 c 256,18,19
 111 745 111 745 127 761.5 c 128,-1,20
 143 778 143 778 167 778 c 256,21,22
 190 778 190 778 206 761.5 c 128,-1,23
 222 745 222 745 222 722 c 256,12,13
556 556 m 1,24,-1
 556 0 l 1,25,-1
 444 0 l 1,26,-1
 444 153 l 1,27,-1
 376 83 l 2,28,29
 293 0 293 0 222 0 c 0,30,31
 130 0 130 0 65 65 c 128,-1,32
 0 130 0 130 0 222 c 2,33,-1
 0 333 l 2,34,35
 0 425 0 425 65 490.5 c 128,-1,36
 130 556 130 556 222 556 c 2,37,-1
 556 556 l 1,24,-1
222 444 m 2,38,39
 176 444 176 444 143.5 411.5 c 128,-1,40
 111 379 111 379 111 333 c 2,41,-1
 111 222 l 2,42,43
 111 176 111 176 144 143.5 c 128,-1,44
 177 111 177 111 222 111 c 0,45,46
 278 111 278 111 333 167 c 2,47,-1
 444 278 l 1,48,-1
 444 444 l 1,49,-1
 222 444 l 2,38,39
EndSplineSet
Validated: 1
Substitution2: "<3,1> All Capitals in Latin lookup 1 subtable" Adieresis
EndChar

StartChar: aring
Encoding: 229 229 171
Width: 666
GlyphClass: 1
Flags: W
LayerCount: 2
Fore
SplineSet
278 556 m 1,0,1
 209 556 209 556 160 604.5 c 128,-1,2
 111 653 111 653 111 722 c 256,3,4
 111 791 111 791 160 840 c 128,-1,5
 209 889 209 889 278 889 c 256,6,7
 347 889 347 889 395.5 840 c 128,-1,8
 444 791 444 791 444 722 c 256,9,10
 444 653 444 653 395.5 604.5 c 128,-1,11
 347 556 347 556 278 556 c 1,12,-1
 556 556 l 1,13,-1
 556 0 l 1,14,-1
 444 0 l 1,15,-1
 444 153 l 1,16,-1
 376 83 l 2,17,18
 293 0 293 0 222 0 c 0,19,20
 130 0 130 0 65 65 c 128,-1,21
 0 130 0 130 0 222 c 2,22,-1
 0 333 l 2,23,24
 0 425 0 425 65 490.5 c 128,-1,25
 130 556 130 556 222 556 c 2,26,-1
 278 556 l 1,0,1
222 722 m 256,27,28
 222 699 222 699 238 683 c 128,-1,29
 254 667 254 667 278 667 c 256,30,31
 301 667 301 667 317 683 c 128,-1,32
 333 699 333 699 333 722 c 256,33,34
 333 745 333 745 317 761.5 c 128,-1,35
 301 778 301 778 278 778 c 256,36,37
 255 778 255 778 238.5 761.5 c 128,-1,38
 222 745 222 745 222 722 c 256,27,28
222 444 m 2,39,40
 176 444 176 444 143.5 411.5 c 128,-1,41
 111 379 111 379 111 333 c 2,42,-1
 111 222 l 2,43,44
 111 176 111 176 144 143.5 c 128,-1,45
 177 111 177 111 222 111 c 0,46,47
 278 111 278 111 333 167 c 2,48,-1
 444 278 l 1,49,-1
 444 444 l 1,50,-1
 222 444 l 2,39,40
EndSplineSet
Validated: 5
Substitution2: "<3,1> All Capitals in Latin lookup 1 subtable" Aring
EndChar

StartChar: ae
Encoding: 230 230 172
Width: 666
GlyphClass: 1
Flags: W
LayerCount: 2
Fore
SplineSet
556 0 m 1,0,-1
 222 0 l 2,1,2
 130 0 130 0 65 65 c 128,-1,3
 0 130 0 130 0 222 c 2,4,-1
 0 333 l 2,5,6
 0 425 0 425 65 490.5 c 128,-1,7
 130 556 130 556 222 556 c 2,8,-1
 333 556 l 2,9,10
 424 556 424 556 490 490 c 128,-1,11
 556 424 556 424 556 333 c 2,12,-1
 556 222 l 1,13,-1
 333 222 l 1,14,-1
 333 111 l 1,15,-1
 556 111 l 1,16,-1
 556 0 l 1,0,-1
444 333 m 1,17,18
 444 379 444 379 411.5 411.5 c 128,-1,19
 379 444 379 444 333 444 c 1,20,-1
 333 333 l 1,21,-1
 444 333 l 1,17,18
222 111 m 1,22,-1
 222 444 l 1,23,24
 176 444 176 444 143.5 411.5 c 128,-1,25
 111 379 111 379 111 333 c 2,26,-1
 111 222 l 2,27,28
 111 176 111 176 143.5 143.5 c 128,-1,29
 176 111 176 111 222 111 c 1,22,-1
EndSplineSet
Validated: 1
Ligature2: "<1,10> Diphthong Ligatures in Latin lookup 9 subtable" a e
Substitution2: "<3,1> All Capitals in Latin lookup 1 subtable" AE
EndChar

StartChar: ccedilla
Encoding: 231 231 173
Width: 666
GlyphClass: 1
Flags: W
LayerCount: 2
Fore
SplineSet
556 0 m 1,0,-1
 312 0 l 1,1,-1
 354 -41 l 1,2,-1
 173 -222 l 1,3,-1
 97 -146 l 1,4,-1
 243 0 l 1,5,-1
 222 0 l 2,6,7
 130 0 130 0 65 65.5 c 128,-1,8
 0 131 0 131 0 222 c 2,9,-1
 0 333 l 2,10,11
 0 424 0 424 65.5 490 c 128,-1,12
 131 556 131 556 222 556 c 2,13,-1
 333 556 l 2,14,15
 424 556 424 556 490 490 c 128,-1,16
 556 424 556 424 556 333 c 1,17,-1
 444 333 l 1,18,19
 444 379 444 379 411.5 411.5 c 128,-1,20
 379 444 379 444 333 444 c 2,21,-1
 222 444 l 2,22,23
 176 444 176 444 143.5 411.5 c 128,-1,24
 111 379 111 379 111 333 c 2,25,-1
 111 222 l 2,26,27
 111 176 111 176 144 143.5 c 128,-1,28
 177 111 177 111 222 111 c 2,29,-1
 556 111 l 1,30,-1
 556 0 l 1,0,-1
312 0 m 1,31,-1
 243 0 l 1,32,-1
 312 0 l 1,31,-1
EndSplineSet
Validated: 5
Substitution2: "<3,1> All Capitals in Latin lookup 1 subtable" Ccedilla
EndChar

StartChar: egrave
Encoding: 232 232 174
Width: 666
GlyphClass: 1
Flags: W
LayerCount: 2
Fore
SplineSet
347 729 m 1,0,-1
 271 653 l 1,1,-1
 90 833 l 1,2,-1
 167 910 l 1,3,-1
 347 729 l 1,0,-1
556 0 m 1,4,-1
 222 0 l 2,5,6
 130 0 130 0 65 65 c 128,-1,7
 0 130 0 130 0 222 c 2,8,-1
 0 333 l 2,9,10
 0 425 0 425 65 490.5 c 128,-1,11
 130 556 130 556 222 556 c 2,12,-1
 333 556 l 2,13,14
 424 556 424 556 490 490 c 128,-1,15
 556 424 556 424 556 333 c 2,16,-1
 556 222 l 1,17,-1
 111 222 l 1,18,19
 111 176 111 176 144 143.5 c 128,-1,20
 177 111 177 111 222 111 c 2,21,-1
 556 111 l 1,22,-1
 556 0 l 1,4,-1
444 333 m 1,23,24
 444 379 444 379 411.5 411.5 c 128,-1,25
 379 444 379 444 333 444 c 2,26,-1
 222 444 l 2,27,28
 176 444 176 444 143.5 411.5 c 128,-1,29
 111 379 111 379 111 333 c 1,30,-1
 444 333 l 1,23,24
EndSplineSet
Validated: 1
Substitution2: "<3,1> All Capitals in Latin lookup 1 subtable" Egrave
EndChar

StartChar: eacute
Encoding: 233 233 175
Width: 666
GlyphClass: 1
Flags: W
LayerCount: 2
Fore
SplineSet
466 833 m 1,0,-1
 284 653 l 1,1,-1
 208 729 l 1,2,-1
 389 910 l 1,3,-1
 466 833 l 1,0,-1
556 0 m 1,4,-1
 222 0 l 2,5,6
 130 0 130 0 65 65 c 128,-1,7
 0 130 0 130 0 222 c 2,8,-1
 0 333 l 2,9,10
 0 425 0 425 65 490.5 c 128,-1,11
 130 556 130 556 222 556 c 2,12,-1
 333 556 l 2,13,14
 424 556 424 556 490 490 c 128,-1,15
 556 424 556 424 556 333 c 2,16,-1
 556 222 l 1,17,-1
 111 222 l 1,18,19
 111 176 111 176 144 143.5 c 128,-1,20
 177 111 177 111 222 111 c 2,21,-1
 556 111 l 1,22,-1
 556 0 l 1,4,-1
444 333 m 1,23,24
 444 379 444 379 411.5 411.5 c 128,-1,25
 379 444 379 444 333 444 c 2,26,-1
 222 444 l 2,27,28
 176 444 176 444 143.5 411.5 c 128,-1,29
 111 379 111 379 111 333 c 1,30,-1
 444 333 l 1,23,24
EndSplineSet
Validated: 1
Substitution2: "<3,1> All Capitals in Latin lookup 1 subtable" Eacute
EndChar

StartChar: ecircumflex
Encoding: 234 234 176
Width: 666
GlyphClass: 1
Flags: W
LayerCount: 2
Fore
SplineSet
458 729 m 1,0,-1
 382 653 l 1,1,-1
 278 757 l 1,2,-1
 173 653 l 1,3,-1
 97 729 l 1,4,-1
 278 910 l 1,5,-1
 458 729 l 1,0,-1
556 0 m 1,6,-1
 222 0 l 2,7,8
 130 0 130 0 65 65 c 128,-1,9
 0 130 0 130 0 222 c 2,10,-1
 0 333 l 2,11,12
 0 425 0 425 65 490.5 c 128,-1,13
 130 556 130 556 222 556 c 2,14,-1
 333 556 l 2,15,16
 424 556 424 556 490 490 c 128,-1,17
 556 424 556 424 556 333 c 2,18,-1
 556 222 l 1,19,-1
 111 222 l 1,20,21
 111 176 111 176 144 143.5 c 128,-1,22
 177 111 177 111 222 111 c 2,23,-1
 556 111 l 1,24,-1
 556 0 l 1,6,-1
444 333 m 1,25,26
 444 379 444 379 411.5 411.5 c 128,-1,27
 379 444 379 444 333 444 c 2,28,-1
 222 444 l 2,29,30
 176 444 176 444 143.5 411.5 c 128,-1,31
 111 379 111 379 111 333 c 1,32,-1
 444 333 l 1,25,26
EndSplineSet
Validated: 1
Substitution2: "<3,1> All Capitals in Latin lookup 1 subtable" Ecircumflex
EndChar

StartChar: edieresis
Encoding: 235 235 177
Width: 666
GlyphClass: 1
Flags: W
LayerCount: 2
Fore
SplineSet
444 722 m 256,0,1
 444 699 444 699 428 683 c 128,-1,2
 412 667 412 667 389 667 c 256,3,4
 366 667 366 667 349.5 683 c 128,-1,5
 333 699 333 699 333 722 c 256,6,7
 333 745 333 745 349.5 761.5 c 128,-1,8
 366 778 366 778 389 778 c 256,9,10
 412 778 412 778 428 761.5 c 128,-1,11
 444 745 444 745 444 722 c 256,0,1
222 722 m 256,12,13
 222 699 222 699 206 683 c 128,-1,14
 190 667 190 667 167 667 c 256,15,16
 144 667 144 667 127.5 683 c 128,-1,17
 111 699 111 699 111 722 c 256,18,19
 111 745 111 745 127 761.5 c 128,-1,20
 143 778 143 778 167 778 c 256,21,22
 190 778 190 778 206 761.5 c 128,-1,23
 222 745 222 745 222 722 c 256,12,13
556 0 m 1,24,-1
 222 0 l 2,25,26
 130 0 130 0 65 65 c 128,-1,27
 0 130 0 130 0 222 c 2,28,-1
 0 333 l 2,29,30
 0 425 0 425 65 490.5 c 128,-1,31
 130 556 130 556 222 556 c 2,32,-1
 333 556 l 2,33,34
 424 556 424 556 490 490 c 128,-1,35
 556 424 556 424 556 333 c 2,36,-1
 556 222 l 1,37,-1
 111 222 l 1,38,39
 111 176 111 176 144 143.5 c 128,-1,40
 177 111 177 111 222 111 c 2,41,-1
 556 111 l 1,42,-1
 556 0 l 1,24,-1
444 333 m 1,43,44
 444 379 444 379 411.5 411.5 c 128,-1,45
 379 444 379 444 333 444 c 2,46,-1
 222 444 l 2,47,48
 176 444 176 444 143.5 411.5 c 128,-1,49
 111 379 111 379 111 333 c 1,50,-1
 444 333 l 1,43,44
EndSplineSet
Validated: 1
Substitution2: "<3,1> All Capitals in Latin lookup 1 subtable" Edieresis
EndChar

StartChar: igrave
Encoding: 236 236 178
Width: 666
GlyphClass: 1
Flags: W
LayerCount: 2
Fore
SplineSet
347 729 m 1,0,-1
 271 653 l 1,1,-1
 90 833 l 1,2,-1
 167 910 l 1,3,-1
 347 729 l 1,0,-1
444 0 m 1,4,-1
 111 0 l 1,5,-1
 111 111 l 1,6,-1
 222 111 l 1,7,-1
 222 444 l 1,8,-1
 111 444 l 1,9,-1
 111 556 l 1,10,-1
 333 556 l 1,11,-1
 333 111 l 1,12,-1
 444 111 l 1,13,-1
 444 0 l 1,4,-1
EndSplineSet
Validated: 1
Substitution2: "<3,1> All Capitals in Latin lookup 1 subtable" Igrave
EndChar

StartChar: iacute
Encoding: 237 237 179
Width: 666
GlyphClass: 1
Flags: W
LayerCount: 2
Fore
SplineSet
466 833 m 1,0,-1
 284 653 l 1,1,-1
 208 729 l 1,2,-1
 389 910 l 1,3,-1
 466 833 l 1,0,-1
444 0 m 1,4,-1
 111 0 l 1,5,-1
 111 111 l 1,6,-1
 222 111 l 1,7,-1
 222 444 l 1,8,-1
 111 444 l 1,9,-1
 111 556 l 1,10,-1
 333 556 l 1,11,-1
 333 111 l 1,12,-1
 444 111 l 1,13,-1
 444 0 l 1,4,-1
EndSplineSet
Validated: 1
Substitution2: "<3,1> All Capitals in Latin lookup 1 subtable" Iacute
EndChar

StartChar: icircumflex
Encoding: 238 238 180
Width: 666
GlyphClass: 1
Flags: W
LayerCount: 2
Fore
SplineSet
458 729 m 1,0,-1
 382 653 l 1,1,-1
 278 757 l 1,2,-1
 173 653 l 1,3,-1
 97 729 l 1,4,-1
 278 910 l 1,5,-1
 458 729 l 1,0,-1
444 0 m 1,6,-1
 111 0 l 1,7,-1
 111 111 l 1,8,-1
 222 111 l 1,9,-1
 222 444 l 1,10,-1
 111 444 l 1,11,-1
 111 556 l 1,12,-1
 333 556 l 1,13,-1
 333 111 l 1,14,-1
 444 111 l 1,15,-1
 444 0 l 1,6,-1
EndSplineSet
Validated: 1
Substitution2: "<3,1> All Capitals in Latin lookup 1 subtable" Icircumflex
EndChar

StartChar: idieresis
Encoding: 239 239 181
Width: 666
GlyphClass: 1
Flags: W
LayerCount: 2
Fore
SplineSet
444 722 m 256,0,1
 444 699 444 699 428 683 c 128,-1,2
 412 667 412 667 389 667 c 256,3,4
 366 667 366 667 349.5 683 c 128,-1,5
 333 699 333 699 333 722 c 256,6,7
 333 745 333 745 349.5 761.5 c 128,-1,8
 366 778 366 778 389 778 c 256,9,10
 412 778 412 778 428 761.5 c 128,-1,11
 444 745 444 745 444 722 c 256,0,1
222 722 m 256,12,13
 222 699 222 699 206 683 c 128,-1,14
 190 667 190 667 167 667 c 256,15,16
 144 667 144 667 127.5 683 c 128,-1,17
 111 699 111 699 111 722 c 256,18,19
 111 745 111 745 127 761.5 c 128,-1,20
 143 778 143 778 167 778 c 256,21,22
 190 778 190 778 206 761.5 c 128,-1,23
 222 745 222 745 222 722 c 256,12,13
444 0 m 1,24,-1
 111 0 l 1,25,-1
 111 111 l 1,26,-1
 222 111 l 1,27,-1
 222 444 l 1,28,-1
 111 444 l 1,29,-1
 111 556 l 1,30,-1
 333 556 l 1,31,-1
 333 111 l 1,32,-1
 444 111 l 1,33,-1
 444 0 l 1,24,-1
EndSplineSet
Validated: 1
Substitution2: "<3,1> All Capitals in Latin lookup 1 subtable" Idieresis
EndChar

StartChar: ntilde
Encoding: 241 241 183
Width: 666
GlyphClass: 1
Flags: W
LayerCount: 2
Fore
SplineSet
556 833 m 2,0,1
 556 764 556 764 507 715.5 c 128,-1,2
 458 667 458 667 389 667 c 256,3,4
 320 667 320 667 278 709 c 0,5,6
 209 778 209 778 167 778 c 0,7,8
 144 778 144 778 127.5 762 c 128,-1,9
 111 746 111 746 111 722 c 2,10,-1
 111 667 l 1,11,-1
 0 667 l 1,12,-1
 0 722 l 2,13,14
 0 791 0 791 49 840 c 128,-1,15
 98 889 98 889 167 889 c 0,16,17
 237 889 237 889 278 848 c 0,18,19
 348 778 348 778 389 778 c 0,20,21
 412 778 412 778 428 794 c 128,-1,22
 444 810 444 810 444 833 c 2,23,-1
 444 889 l 1,24,-1
 556 889 l 1,25,-1
 556 833 l 2,0,1
111 556 m 1,26,-1
 111 403 l 1,27,-1
 181 472 l 2,28,29
 264 555 264 555 333 556 c 0,30,31
 425 556 425 556 490.5 491 c 128,-1,32
 556 426 556 426 556 333 c 2,33,-1
 556 0 l 1,34,-1
 444 0 l 1,35,-1
 444 333 l 2,36,37
 444 379 444 379 411.5 411.5 c 128,-1,38
 379 444 379 444 333 444 c 0,39,40
 277 444 277 444 222 389 c 2,41,-1
 111 278 l 1,42,-1
 111 0 l 1,43,-1
 0 0 l 1,44,-1
 0 556 l 1,45,-1
 111 556 l 1,26,-1
EndSplineSet
Validated: 1
Substitution2: "<3,1> All Capitals in Latin lookup 1 subtable" Ntilde
EndChar

StartChar: ograve
Encoding: 242 242 184
Width: 666
GlyphClass: 1
Flags: W
LayerCount: 2
Fore
SplineSet
347 729 m 1,0,-1
 271 653 l 1,1,-1
 90 833 l 1,2,-1
 167 910 l 1,3,-1
 347 729 l 1,0,-1
556 222 m 2,4,5
 556 130 556 130 491 65 c 128,-1,6
 426 0 426 0 333 0 c 2,7,-1
 222 0 l 2,8,9
 130 0 130 0 65 65 c 128,-1,10
 0 130 0 130 0 222 c 2,11,-1
 0 333 l 2,12,13
 0 425 0 425 65 490.5 c 128,-1,14
 130 556 130 556 222 556 c 2,15,-1
 333 556 l 2,16,17
 424 556 424 556 490 490 c 128,-1,18
 556 424 556 424 556 333 c 2,19,-1
 556 222 l 2,4,5
444 222 m 2,20,-1
 444 333 l 2,21,22
 444 379 444 379 411.5 411.5 c 128,-1,23
 379 444 379 444 333 444 c 2,24,-1
 222 444 l 2,25,26
 176 444 176 444 143.5 411.5 c 128,-1,27
 111 379 111 379 111 333 c 2,28,-1
 111 222 l 2,29,30
 111 176 111 176 144 143.5 c 128,-1,31
 177 111 177 111 222 111 c 2,32,-1
 333 111 l 2,33,34
 379 111 379 111 411.5 143.5 c 128,-1,35
 444 176 444 176 444 222 c 2,20,-1
EndSplineSet
Validated: 1
Substitution2: "<3,1> All Capitals in Latin lookup 1 subtable" Ograve
EndChar

StartChar: oacute
Encoding: 243 243 185
Width: 666
GlyphClass: 1
Flags: W
LayerCount: 2
Fore
SplineSet
466 833 m 1,0,-1
 284 653 l 1,1,-1
 208 729 l 1,2,-1
 389 910 l 1,3,-1
 466 833 l 1,0,-1
556 222 m 2,4,5
 556 130 556 130 491 65 c 128,-1,6
 426 0 426 0 333 0 c 2,7,-1
 222 0 l 2,8,9
 130 0 130 0 65 65 c 128,-1,10
 0 130 0 130 0 222 c 2,11,-1
 0 333 l 2,12,13
 0 425 0 425 65 490.5 c 128,-1,14
 130 556 130 556 222 556 c 2,15,-1
 333 556 l 2,16,17
 424 556 424 556 490 490 c 128,-1,18
 556 424 556 424 556 333 c 2,19,-1
 556 222 l 2,4,5
444 222 m 2,20,-1
 444 333 l 2,21,22
 444 379 444 379 411.5 411.5 c 128,-1,23
 379 444 379 444 333 444 c 2,24,-1
 222 444 l 2,25,26
 176 444 176 444 143.5 411.5 c 128,-1,27
 111 379 111 379 111 333 c 2,28,-1
 111 222 l 2,29,30
 111 176 111 176 144 143.5 c 128,-1,31
 177 111 177 111 222 111 c 2,32,-1
 333 111 l 2,33,34
 379 111 379 111 411.5 143.5 c 128,-1,35
 444 176 444 176 444 222 c 2,20,-1
EndSplineSet
Validated: 1
Substitution2: "<3,1> All Capitals in Latin lookup 1 subtable" Oacute
EndChar

StartChar: ocircumflex
Encoding: 244 244 186
Width: 666
GlyphClass: 1
Flags: W
LayerCount: 2
Fore
SplineSet
458 729 m 1,0,-1
 382 653 l 1,1,-1
 278 757 l 1,2,-1
 173 653 l 1,3,-1
 97 729 l 1,4,-1
 278 910 l 1,5,-1
 458 729 l 1,0,-1
556 222 m 2,6,7
 556 130 556 130 491 65 c 128,-1,8
 426 0 426 0 333 0 c 2,9,-1
 222 0 l 2,10,11
 130 0 130 0 65 65 c 128,-1,12
 0 130 0 130 0 222 c 2,13,-1
 0 333 l 2,14,15
 0 425 0 425 65 490.5 c 128,-1,16
 130 556 130 556 222 556 c 2,17,-1
 333 556 l 2,18,19
 424 556 424 556 490 490 c 128,-1,20
 556 424 556 424 556 333 c 2,21,-1
 556 222 l 2,6,7
444 222 m 2,22,-1
 444 333 l 2,23,24
 444 379 444 379 411.5 411.5 c 128,-1,25
 379 444 379 444 333 444 c 2,26,-1
 222 444 l 2,27,28
 176 444 176 444 143.5 411.5 c 128,-1,29
 111 379 111 379 111 333 c 2,30,-1
 111 222 l 2,31,32
 111 176 111 176 144 143.5 c 128,-1,33
 177 111 177 111 222 111 c 2,34,-1
 333 111 l 2,35,36
 379 111 379 111 411.5 143.5 c 128,-1,37
 444 176 444 176 444 222 c 2,22,-1
EndSplineSet
Validated: 1
Substitution2: "<3,1> All Capitals in Latin lookup 1 subtable" Ocircumflex
EndChar

StartChar: otilde
Encoding: 245 245 187
Width: 666
GlyphClass: 1
Flags: W
LayerCount: 2
Fore
SplineSet
556 833 m 2,0,1
 556 764 556 764 507 715.5 c 128,-1,2
 458 667 458 667 389 667 c 256,3,4
 320 667 320 667 278 709 c 0,5,6
 209 778 209 778 167 778 c 0,7,8
 144 778 144 778 127.5 762 c 128,-1,9
 111 746 111 746 111 722 c 2,10,-1
 111 667 l 1,11,-1
 0 667 l 1,12,-1
 0 722 l 2,13,14
 0 791 0 791 49 840 c 128,-1,15
 98 889 98 889 167 889 c 0,16,17
 237 889 237 889 278 848 c 0,18,19
 348 778 348 778 389 778 c 0,20,21
 412 778 412 778 428 794 c 128,-1,22
 444 810 444 810 444 833 c 2,23,-1
 444 889 l 1,24,-1
 556 889 l 1,25,-1
 556 833 l 2,0,1
556 222 m 2,26,27
 556 130 556 130 491 65 c 128,-1,28
 426 0 426 0 333 0 c 2,29,-1
 222 0 l 2,30,31
 130 0 130 0 65 65 c 128,-1,32
 0 130 0 130 0 222 c 2,33,-1
 0 333 l 2,34,35
 0 425 0 425 65 490.5 c 128,-1,36
 130 556 130 556 222 556 c 2,37,-1
 333 556 l 2,38,39
 424 556 424 556 490 490 c 128,-1,40
 556 424 556 424 556 333 c 2,41,-1
 556 222 l 2,26,27
444 222 m 2,42,-1
 444 333 l 2,43,44
 444 379 444 379 411.5 411.5 c 128,-1,45
 379 444 379 444 333 444 c 2,46,-1
 222 444 l 2,47,48
 176 444 176 444 143.5 411.5 c 128,-1,49
 111 379 111 379 111 333 c 2,50,-1
 111 222 l 2,51,52
 111 176 111 176 144 143.5 c 128,-1,53
 177 111 177 111 222 111 c 2,54,-1
 333 111 l 2,55,56
 379 111 379 111 411.5 143.5 c 128,-1,57
 444 176 444 176 444 222 c 2,42,-1
EndSplineSet
Validated: 1
Substitution2: "<3,1> All Capitals in Latin lookup 1 subtable" Otilde
EndChar

StartChar: odieresis
Encoding: 246 246 188
Width: 666
GlyphClass: 1
Flags: W
LayerCount: 2
Fore
SplineSet
444 722 m 256,0,1
 444 699 444 699 428 683 c 128,-1,2
 412 667 412 667 389 667 c 256,3,4
 366 667 366 667 349.5 683 c 128,-1,5
 333 699 333 699 333 722 c 256,6,7
 333 745 333 745 349.5 761.5 c 128,-1,8
 366 778 366 778 389 778 c 256,9,10
 412 778 412 778 428 761.5 c 128,-1,11
 444 745 444 745 444 722 c 256,0,1
222 722 m 256,12,13
 222 699 222 699 206 683 c 128,-1,14
 190 667 190 667 167 667 c 256,15,16
 144 667 144 667 127.5 683 c 128,-1,17
 111 699 111 699 111 722 c 256,18,19
 111 745 111 745 127 761.5 c 128,-1,20
 143 778 143 778 167 778 c 256,21,22
 190 778 190 778 206 761.5 c 128,-1,23
 222 745 222 745 222 722 c 256,12,13
556 222 m 2,24,25
 556 130 556 130 491 65 c 128,-1,26
 426 0 426 0 333 0 c 2,27,-1
 222 0 l 2,28,29
 130 0 130 0 65 65 c 128,-1,30
 0 130 0 130 0 222 c 2,31,-1
 0 333 l 2,32,33
 0 425 0 425 65 490.5 c 128,-1,34
 130 556 130 556 222 556 c 2,35,-1
 333 556 l 2,36,37
 424 556 424 556 490 490 c 128,-1,38
 556 424 556 424 556 333 c 2,39,-1
 556 222 l 2,24,25
444 222 m 2,40,-1
 444 333 l 2,41,42
 444 379 444 379 411.5 411.5 c 128,-1,43
 379 444 379 444 333 444 c 2,44,-1
 222 444 l 2,45,46
 176 444 176 444 143.5 411.5 c 128,-1,47
 111 379 111 379 111 333 c 2,48,-1
 111 222 l 2,49,50
 111 176 111 176 144 143.5 c 128,-1,51
 177 111 177 111 222 111 c 2,52,-1
 333 111 l 2,53,54
 379 111 379 111 411.5 143.5 c 128,-1,55
 444 176 444 176 444 222 c 2,40,-1
EndSplineSet
Validated: 1
Substitution2: "<3,1> All Capitals in Latin lookup 1 subtable" Odieresis
EndChar

StartChar: divide
Encoding: 247 247 189
Width: 666
GlyphClass: 1
Flags: W
LayerCount: 2
Fore
SplineSet
333 611 m 256,0,1
 333 588 333 588 317 572 c 128,-1,2
 301 556 301 556 278 556 c 256,3,4
 255 556 255 556 238.5 572 c 128,-1,5
 222 588 222 588 222 611 c 256,6,7
 222 634 222 634 238 650.5 c 128,-1,8
 254 667 254 667 278 667 c 256,9,10
 301 667 301 667 317 650.5 c 128,-1,11
 333 634 333 634 333 611 c 256,0,1
556 333 m 1,12,-1
 0 333 l 1,13,-1
 0 444 l 1,14,-1
 556 444 l 1,15,-1
 556 333 l 1,12,-1
333 167 m 256,16,17
 333 144 333 144 317 127.5 c 128,-1,18
 301 111 301 111 278 111 c 256,19,20
 255 111 255 111 238.5 127 c 128,-1,21
 222 143 222 143 222 167 c 256,22,23
 222 190 222 190 238 206 c 128,-1,24
 254 222 254 222 278 222 c 256,25,26
 301 222 301 222 317 206 c 128,-1,27
 333 190 333 190 333 167 c 256,16,17
EndSplineSet
Validated: 1
EndChar

StartChar: oslash
Encoding: 248 248 190
Width: 666
GlyphClass: 1
Flags: W
LayerCount: 2
Fore
SplineSet
556 222 m 2,0,1
 556 130 556 130 491 65 c 128,-1,2
 426 0 426 0 333 0 c 2,3,-1
 222 0 l 2,4,5
 130 0 130 0 65 65 c 128,-1,6
 0 130 0 130 0 222 c 2,7,-1
 0 333 l 2,8,9
 0 425 0 425 65 490.5 c 128,-1,10
 130 556 130 556 222 556 c 2,11,-1
 333 556 l 2,12,13
 424 556 424 556 490 490 c 128,-1,14
 556 424 556 424 556 333 c 2,15,-1
 556 222 l 2,0,1
362 440 m 1,16,17
 344 444 344 444 333 444 c 2,18,-1
 222 444 l 2,19,20
 176 444 176 444 143.5 411.5 c 128,-1,21
 111 379 111 379 111 333 c 2,22,-1
 111 222 l 2,23,24
 111 218 111 218 117 196 c 1,25,-1
 362 440 l 1,16,17
444 222 m 2,26,-1
 444 333 l 2,27,28
 444 347 444 347 441 362 c 1,29,-1
 194 116 l 1,30,31
 212 112 212 112 222 111 c 2,32,-1
 333 111 l 2,33,34
 379 111 379 111 411.5 143.5 c 128,-1,35
 444 176 444 176 444 222 c 2,26,-1
EndSplineSet
Validated: 1
Substitution2: "<3,1> All Capitals in Latin lookup 1 subtable" Oslash
EndChar

StartChar: ugrave
Encoding: 249 249 191
Width: 666
GlyphClass: 1
Flags: W
LayerCount: 2
Fore
SplineSet
347 729 m 1,0,-1
 271 653 l 1,1,-1
 90 833 l 1,2,-1
 167 910 l 1,3,-1
 347 729 l 1,0,-1
444 0 m 1,4,-1
 444 153 l 1,5,-1
 376 83 l 2,6,7
 293 0 293 0 222 0 c 0,8,9
 130 0 130 0 65 65 c 128,-1,10
 0 130 0 130 0 222 c 2,11,-1
 0 556 l 1,12,-1
 111 556 l 1,13,-1
 111 222 l 2,14,15
 111 176 111 176 144 143.5 c 128,-1,16
 177 111 177 111 222 111 c 0,17,18
 278 111 278 111 333 167 c 2,19,-1
 444 278 l 1,20,-1
 444 556 l 1,21,-1
 556 556 l 1,22,-1
 556 0 l 1,23,-1
 444 0 l 1,4,-1
EndSplineSet
Validated: 1
Substitution2: "<3,1> All Capitals in Latin lookup 1 subtable" Ugrave
EndChar

StartChar: uacute
Encoding: 250 250 192
Width: 666
GlyphClass: 1
Flags: W
LayerCount: 2
Fore
SplineSet
466 833 m 1,0,-1
 284 653 l 1,1,-1
 208 729 l 1,2,-1
 389 910 l 1,3,-1
 466 833 l 1,0,-1
444 0 m 1,4,-1
 444 153 l 1,5,-1
 376 83 l 2,6,7
 293 0 293 0 222 0 c 0,8,9
 130 0 130 0 65 65 c 128,-1,10
 0 130 0 130 0 222 c 2,11,-1
 0 556 l 1,12,-1
 111 556 l 1,13,-1
 111 222 l 2,14,15
 111 176 111 176 144 143.5 c 128,-1,16
 177 111 177 111 222 111 c 0,17,18
 278 111 278 111 333 167 c 2,19,-1
 444 278 l 1,20,-1
 444 556 l 1,21,-1
 556 556 l 1,22,-1
 556 0 l 1,23,-1
 444 0 l 1,4,-1
EndSplineSet
Validated: 1
Substitution2: "<3,1> All Capitals in Latin lookup 1 subtable" Uacute
EndChar

StartChar: ucircumflex
Encoding: 251 251 193
Width: 666
GlyphClass: 1
Flags: W
LayerCount: 2
Fore
SplineSet
458 722 m 1,0,-1
 382 646 l 1,1,-1
 278 750 l 1,2,-1
 173 646 l 1,3,-1
 97 722 l 1,4,-1
 278 903 l 1,5,-1
 458 722 l 1,0,-1
444 0 m 1,6,-1
 444 153 l 1,7,-1
 376 83 l 2,8,9
 293 0 293 0 222 0 c 0,10,11
 130 0 130 0 65 65 c 128,-1,12
 0 130 0 130 0 222 c 2,13,-1
 0 556 l 1,14,-1
 111 556 l 1,15,-1
 111 222 l 2,16,17
 111 176 111 176 144 143.5 c 128,-1,18
 177 111 177 111 222 111 c 0,19,20
 278 111 278 111 333 167 c 2,21,-1
 444 278 l 1,22,-1
 444 556 l 1,23,-1
 556 556 l 1,24,-1
 556 0 l 1,25,-1
 444 0 l 1,6,-1
EndSplineSet
Validated: 1
Substitution2: "<3,1> All Capitals in Latin lookup 1 subtable" Ucircumflex
EndChar

StartChar: udieresis
Encoding: 252 252 194
Width: 666
GlyphClass: 1
Flags: W
LayerCount: 2
Fore
SplineSet
444 722 m 256,0,1
 444 699 444 699 428 683 c 128,-1,2
 412 667 412 667 389 667 c 256,3,4
 366 667 366 667 349.5 683 c 128,-1,5
 333 699 333 699 333 722 c 256,6,7
 333 745 333 745 349.5 761.5 c 128,-1,8
 366 778 366 778 389 778 c 256,9,10
 412 778 412 778 428 761.5 c 128,-1,11
 444 745 444 745 444 722 c 256,0,1
222 722 m 256,12,13
 222 699 222 699 206 683 c 128,-1,14
 190 667 190 667 167 667 c 256,15,16
 144 667 144 667 127.5 683 c 128,-1,17
 111 699 111 699 111 722 c 256,18,19
 111 745 111 745 127 761.5 c 128,-1,20
 143 778 143 778 167 778 c 256,21,22
 190 778 190 778 206 761.5 c 128,-1,23
 222 745 222 745 222 722 c 256,12,13
444 0 m 1,24,-1
 444 153 l 1,25,-1
 376 83 l 2,26,27
 293 0 293 0 222 0 c 0,28,29
 130 0 130 0 65 65 c 128,-1,30
 0 130 0 130 0 222 c 2,31,-1
 0 556 l 1,32,-1
 111 556 l 1,33,-1
 111 222 l 2,34,35
 111 176 111 176 144 143.5 c 128,-1,36
 177 111 177 111 222 111 c 0,37,38
 278 111 278 111 333 167 c 2,39,-1
 444 278 l 1,40,-1
 444 556 l 1,41,-1
 556 556 l 1,42,-1
 556 0 l 1,43,-1
 444 0 l 1,24,-1
EndSplineSet
Validated: 1
Substitution2: "<3,1> All Capitals in Latin lookup 1 subtable" Udieresis
EndChar

StartChar: ydieresis
Encoding: 255 255 196
Width: 666
GlyphClass: 1
Flags: W
LayerCount: 2
Fore
SplineSet
444 722 m 256,0,1
 444 699 444 699 428 683 c 128,-1,2
 412 667 412 667 389 667 c 256,3,4
 366 667 366 667 349.5 683 c 128,-1,5
 333 699 333 699 333 722 c 256,6,7
 333 745 333 745 349.5 761.5 c 128,-1,8
 366 778 366 778 389 778 c 256,9,10
 412 778 412 778 428 761.5 c 128,-1,11
 444 745 444 745 444 722 c 256,0,1
222 722 m 256,12,13
 222 699 222 699 206 683 c 128,-1,14
 190 667 190 667 167 667 c 256,15,16
 144 667 144 667 127.5 683 c 128,-1,17
 111 699 111 699 111 722 c 256,18,19
 111 745 111 745 127 761.5 c 128,-1,20
 143 778 143 778 167 778 c 256,21,22
 190 778 190 778 206 761.5 c 128,-1,23
 222 745 222 745 222 722 c 256,12,13
556 0 m 2,24,25
 556 -91 556 -91 491 -156.5 c 128,-1,26
 426 -222 426 -222 333 -222 c 2,27,-1
 111 -222 l 1,28,-1
 111 -111 l 1,29,-1
 333 -111 l 2,30,31
 379 -111 379 -111 411.5 -78.5 c 128,-1,32
 444 -46 444 -46 444 0 c 1,33,-1
 222 0 l 2,34,35
 130 0 130 0 65 65 c 128,-1,36
 0 130 0 130 0 222 c 2,37,-1
 0 556 l 1,38,-1
 111 556 l 1,39,-1
 111 222 l 2,40,41
 111 176 111 176 144 143.5 c 128,-1,42
 177 111 177 111 222 111 c 2,43,-1
 444 111 l 1,44,-1
 444 556 l 1,45,-1
 556 556 l 1,46,-1
 556 0 l 2,24,25
EndSplineSet
Validated: 1
Substitution2: "<3,1> All Capitals in Latin lookup 1 subtable" Ydieresis
EndChar

StartChar: dotlessi
Encoding: 305 305 197
Width: 666
GlyphClass: 1
Flags: W
LayerCount: 2
Fore
SplineSet
444 0 m 1,0,-1
 111 0 l 1,1,-1
 111 111 l 1,2,-1
 222 111 l 1,3,-1
 222 444 l 1,4,-1
 111 444 l 1,5,-1
 111 556 l 1,6,-1
 333 556 l 1,7,-1
 333 111 l 1,8,-1
 444 111 l 1,9,-1
 444 0 l 1,0,-1
EndSplineSet
Validated: 1
Substitution2: "<3,1> All Capitals in Latin lookup 1 subtable" I
EndChar

StartChar: OE
Encoding: 338 338 200
Width: 666
GlyphClass: 1
Flags: W
LayerCount: 2
Fore
SplineSet
556 0 m 1,0,-1
 222 0 l 2,1,2
 130 0 130 0 65 65 c 128,-1,3
 0 130 0 130 0 222 c 2,4,-1
 0 556 l 2,5,6
 0 648 0 648 65 713 c 128,-1,7
 130 778 130 778 222 778 c 2,8,-1
 556 778 l 1,9,-1
 556 667 l 1,10,-1
 333 667 l 1,11,-1
 333 444 l 1,12,-1
 444 444 l 1,13,-1
 444 333 l 1,14,-1
 333 333 l 1,15,-1
 333 111 l 1,16,-1
 556 111 l 1,17,-1
 556 0 l 1,0,-1
222 111 m 1,18,-1
 222 667 l 1,19,20
 176 667 176 667 143.5 634 c 128,-1,21
 111 601 111 601 111 556 c 2,22,-1
 111 222 l 2,23,24
 111 176 111 176 143.5 143.5 c 128,-1,25
 176 111 176 111 222 111 c 1,18,-1
EndSplineSet
Validated: 1
Ligature2: "<1,10> Diphthong Ligatures in Latin lookup 9 subtable" O e
Ligature2: "<1,10> Diphthong Ligatures in Latin lookup 9 subtable" O E
Substitution2: "<3,2> All Lower Case in Latin lookup 2 subtable" oe
EndChar

StartChar: oe
Encoding: 339 339 201
Width: 666
GlyphClass: 1
Flags: W
LayerCount: 2
Fore
SplineSet
556 0 m 1,0,-1
 389 0 l 2,1,2
 328 0 328 0 280 44 c 1,3,4
 233 0 233 0 167 0 c 0,5,6
 98 0 98 0 49 49 c 128,-1,7
 0 98 0 98 0 167 c 2,8,-1
 0 389 l 2,9,10
 0 458 0 458 49 507 c 128,-1,11
 98 556 98 556 167 556 c 0,12,13
 233 556 233 556 281 510 c 1,14,15
 329 556 329 556 389 556 c 0,16,17
 458 556 458 556 507 507 c 128,-1,18
 556 458 556 458 556 389 c 2,19,-1
 556 222 l 1,20,-1
 389 222 l 2,21,22
 366 222 366 222 349.5 206 c 128,-1,23
 333 190 333 190 333 167 c 256,24,25
 333 144 333 144 349.5 127.5 c 128,-1,26
 366 111 366 111 389 111 c 2,27,-1
 556 111 l 1,28,-1
 556 0 l 1,0,-1
444 389 m 256,29,30
 444 412 444 412 428 428 c 128,-1,31
 412 444 412 444 389 444 c 256,32,33
 366 444 366 444 349.5 428 c 128,-1,34
 333 412 333 412 333 389 c 256,35,36
 333 366 333 366 349.5 349.5 c 128,-1,37
 366 333 366 333 389 333 c 256,38,39
 412 333 412 333 428 349.5 c 128,-1,40
 444 366 444 366 444 389 c 256,29,30
222 167 m 2,41,-1
 222 389 l 2,42,43
 222 412 222 412 206 428 c 128,-1,44
 190 444 190 444 167 444 c 256,45,46
 144 444 144 444 127.5 428 c 128,-1,47
 111 412 111 412 111 389 c 2,48,-1
 111 167 l 2,49,50
 111 144 111 144 127 127.5 c 128,-1,51
 143 111 143 111 167 111 c 256,52,53
 190 111 190 111 206 127.5 c 128,-1,54
 222 144 222 144 222 167 c 2,41,-1
EndSplineSet
Validated: 1
Ligature2: "<1,10> Diphthong Ligatures in Latin lookup 9 subtable" o e
Substitution2: "<3,1> All Capitals in Latin lookup 1 subtable" OE
EndChar

StartChar: Ydieresis
Encoding: 376 376 204
Width: 666
GlyphClass: 1
Flags: W
LayerCount: 2
Fore
SplineSet
444 944 m 256,0,1
 444 921 444 921 428 905 c 128,-1,2
 412 889 412 889 389 889 c 256,3,4
 366 889 366 889 349.5 905 c 128,-1,5
 333 921 333 921 333 944 c 256,6,7
 333 967 333 967 349.5 983.5 c 128,-1,8
 366 1000 366 1000 389 1000 c 256,9,10
 412 1000 412 1000 428 983.5 c 128,-1,11
 444 967 444 967 444 944 c 256,0,1
222 944 m 256,12,13
 222 921 222 921 206 905 c 128,-1,14
 190 889 190 889 167 889 c 256,15,16
 144 889 144 889 127.5 905 c 128,-1,17
 111 921 111 921 111 944 c 256,18,19
 111 967 111 967 127 983.5 c 128,-1,20
 143 1000 143 1000 167 1000 c 256,21,22
 190 1000 190 1000 206 983.5 c 128,-1,23
 222 967 222 967 222 944 c 256,12,13
556 479 m 1,24,-1
 333 257 l 1,25,-1
 333 0 l 1,26,-1
 222 0 l 1,27,-1
 222 257 l 1,28,-1
 0 479 l 1,29,-1
 0 778 l 1,30,-1
 111 778 l 1,31,-1
 111 521 l 1,32,-1
 278 354 l 1,33,-1
 444 521 l 1,34,-1
 444 778 l 1,35,-1
 556 778 l 1,36,-1
 556 479 l 1,24,-1
EndSplineSet
Validated: 1
Substitution2: "<3,2> All Lower Case in Latin lookup 2 subtable" ydieresis
EndChar

StartChar: florin
Encoding: 402 402 207
Width: 666
GlyphClass: 1
Flags: W
LayerCount: 2
Fore
SplineSet
556 889 m 1,0,-1
 444 889 l 2,1,2
 398 889 398 889 365.5 856 c 128,-1,3
 333 823 333 823 333 778 c 2,4,-1
 333 556 l 1,5,-1
 444 556 l 1,6,-1
 444 444 l 1,7,-1
 333 444 l 1,8,-1
 333 0 l 2,9,10
 333 -91 333 -91 268 -156.5 c 128,-1,11
 203 -222 203 -222 111 -222 c 2,12,-1
 0 -222 l 1,13,-1
 0 -111 l 1,14,-1
 111 -111 l 2,15,16
 157 -111 157 -111 189.5 -78.5 c 128,-1,17
 222 -46 222 -46 222 0 c 2,18,-1
 222 444 l 1,19,-1
 111 444 l 1,20,-1
 111 556 l 1,21,-1
 222 556 l 1,22,-1
 222 778 l 2,23,24
 222 870 222 870 287.5 935 c 128,-1,25
 353 1000 353 1000 444 1000 c 2,26,-1
 556 1000 l 1,27,-1
 556 889 l 1,0,-1
0 -222 m 1024,28,-1
EndSplineSet
Validated: 1
EndChar

StartChar: circumflex
Encoding: 710 710 208
Width: 666
GlyphClass: 1
Flags: W
LayerCount: 2
Fore
SplineSet
458 729 m 1,0,-1
 382 653 l 1,1,-1
 278 757 l 1,2,-1
 173 653 l 1,3,-1
 97 729 l 1,4,-1
 278 910 l 1,5,-1
 458 729 l 1,0,-1
EndSplineSet
Validated: 1
EndChar

StartChar: caron
Encoding: 711 711 209
Width: 666
GlyphClass: 1
Flags: W
LayerCount: 2
Fore
SplineSet
456 834 m 1,0,-1
 276 653 l 1,1,-1
 94 834 l 1,2,-1
 171 910 l 1,3,-1
 276 807 l 1,4,-1
 380 910 l 1,5,-1
 456 834 l 1,0,-1
EndSplineSet
Validated: 1
EndChar

StartChar: breve
Encoding: 728 728 210
Width: 666
GlyphClass: 1
Flags: W
LayerCount: 2
Fore
SplineSet
561 889 m 1,0,1
 561 798 561 798 495.5 732.5 c 128,-1,2
 430 667 430 667 339 667 c 0,3,4
 247 667 247 667 182 732 c 128,-1,5
 117 797 117 797 117 889 c 1,6,-1
 228 889 l 1,7,8
 228 843 228 843 260.5 810.5 c 128,-1,9
 293 778 293 778 339 778 c 256,10,11
 385 778 385 778 417.5 810.5 c 128,-1,12
 450 843 450 843 450 889 c 1,13,-1
 561 889 l 1,0,1
EndSplineSet
Validated: 1
EndChar

StartChar: dotaccent
Encoding: 729 729 211
Width: 666
GlyphClass: 1
Flags: W
LayerCount: 2
Fore
SplineSet
450 667 m 256,0,1
 450 621 450 621 417 588.5 c 128,-1,2
 384 556 384 556 339 556 c 256,3,4
 293 556 293 556 260.5 588.5 c 128,-1,5
 228 621 228 621 228 667 c 256,6,7
 228 713 228 713 260.5 745.5 c 128,-1,8
 293 778 293 778 339 778 c 256,9,10
 385 778 385 778 417.5 745.5 c 128,-1,11
 450 713 450 713 450 667 c 256,0,1
EndSplineSet
Validated: 1
EndChar

StartChar: ring
Encoding: 730 730 212
Width: 666
GlyphClass: 1
Flags: W
LayerCount: 2
Fore
SplineSet
450 722 m 256,0,1
 450 653 450 653 401 604.5 c 128,-1,2
 352 556 352 556 283 556 c 256,3,4
 214 556 214 556 165.5 604.5 c 128,-1,5
 117 653 117 653 117 722 c 256,6,7
 117 791 117 791 165.5 840 c 128,-1,8
 214 889 214 889 283 889 c 256,9,10
 352 889 352 889 401 840 c 128,-1,11
 450 791 450 791 450 722 c 256,0,1
339 722 m 256,12,13
 339 745 339 745 323 761.5 c 128,-1,14
 307 778 307 778 283 778 c 256,15,16
 260 778 260 778 244 762 c 128,-1,17
 228 746 228 746 228 722 c 256,18,19
 228 699 228 699 244 683 c 128,-1,20
 260 667 260 667 283 667 c 256,21,22
 306 667 306 667 322.5 683 c 128,-1,23
 339 699 339 699 339 722 c 256,12,13
EndSplineSet
Validated: 1
EndChar

StartChar: ogonek
Encoding: 731 731 213
Width: 666
GlyphClass: 1
Flags: W
LayerCount: 2
Fore
SplineSet
347 -146 m 1,0,-1
 271 -222 l 1,1,-1
 111 -62 l 1,2,-1
 111 111 l 1,3,-1
 333 111 l 1,4,-1
 333 0 l 1,5,-1
 222 0 l 1,6,-1
 222 -21 l 1,7,-1
 347 -146 l 1,0,-1
EndSplineSet
Validated: 1
EndChar

StartChar: tilde
Encoding: 732 732 214
Width: 666
GlyphClass: 1
Flags: W
LayerCount: 2
Fore
SplineSet
556 833 m 2,0,1
 556 764 556 764 507 715.5 c 128,-1,2
 458 667 458 667 389 667 c 256,3,4
 320 667 320 667 278 709 c 0,5,6
 209 778 209 778 167 778 c 0,7,8
 144 778 144 778 127.5 762 c 128,-1,9
 111 746 111 746 111 722 c 2,10,-1
 111 667 l 1,11,-1
 0 667 l 1,12,-1
 0 722 l 2,13,14
 0 791 0 791 49 840 c 128,-1,15
 98 889 98 889 167 889 c 0,16,17
 237 889 237 889 278 848 c 0,18,19
 348 778 348 778 389 778 c 0,20,21
 412 778 412 778 428 794 c 128,-1,22
 444 810 444 810 444 833 c 2,23,-1
 444 889 l 1,24,-1
 556 889 l 1,25,-1
 556 833 l 2,0,1
EndSplineSet
Validated: 1
EndChar

StartChar: hungarumlaut
Encoding: 733 733 215
Width: 666
GlyphClass: 1
Flags: W
LayerCount: 2
Fore
SplineSet
582 833 m 1,0,-1
 401 653 l 1,1,-1
 324 729 l 1,2,-1
 506 910 l 1,3,-1
 582 833 l 1,0,-1
262 833 m 1,4,-1
 82 653 l 1,5,-1
 6 729 l 1,6,-1
 186 910 l 1,7,-1
 262 833 l 1,4,-1
EndSplineSet
Validated: 1
EndChar

StartChar: Delta
Encoding: 916 916 216
AltUni2: 002206.ffffffff.0 002206.ffffffff.0
Width: 666
GlyphClass: 1
Flags: W
LayerCount: 2
Fore
SplineSet
556 0 m 1,0,-1
 0 0 l 1,1,-1
 0 111 l 1,2,-1
 278 667 l 1,3,-1
 556 111 l 1,4,-1
 556 0 l 1,0,-1
444 111 m 1,5,-1
 278 444 l 1,6,-1
 111 111 l 1,7,-1
 444 111 l 1,5,-1
EndSplineSet
Validated: 1
EndChar

StartChar: Omega
Encoding: 937 937 217
AltUni2: 002126.ffffffff.0 002126.ffffffff.0
Width: 666
GlyphClass: 1
Flags: W
LayerCount: 2
Fore
SplineSet
556 0 m 1,0,-1
 500 0 l 2,1,2
 431 0 431 0 382 49 c 128,-1,3
 333 98 333 98 333 167 c 0,4,5
 333 264 333 264 416 311 c 0,6,7
 445 328 445 328 444 389 c 2,8,-1
 444 556 l 2,9,10
 444 602 444 602 411.5 634.5 c 128,-1,11
 379 667 379 667 333 667 c 2,12,-1
 222 667 l 2,13,14
 176 667 176 667 143.5 634 c 128,-1,15
 111 601 111 601 111 556 c 2,16,-1
 111 389 l 2,17,18
 111 345 111 345 147 307 c 0,19,20
 223 227 223 227 222 167 c 0,21,22
 222 98 222 98 173 49 c 128,-1,23
 124 0 124 0 56 0 c 2,24,-1
 0 0 l 1,25,-1
 0 111 l 1,26,-1
 56 111 l 2,27,28
 79 111 79 111 95 127 c 128,-1,29
 111 143 111 143 111 167 c 0,30,31
 111 196 111 196 91 210 c 0,32,33
 0 278 0 278 0 389 c 2,34,-1
 0 556 l 2,35,36
 0 648 0 648 65 713 c 128,-1,37
 130 778 130 778 222 778 c 2,38,-1
 333 778 l 2,39,40
 425 778 425 778 490.5 712.5 c 128,-1,41
 556 647 556 647 556 556 c 2,42,-1
 556 389 l 2,43,44
 556 282 556 282 466 210 c 0,45,46
 445 193 445 193 444 167 c 0,47,48
 444 144 444 144 460.5 127.5 c 128,-1,49
 477 111 477 111 500 111 c 2,50,-1
 556 111 l 1,51,-1
 556 0 l 1,0,-1
EndSplineSet
Validated: 33
EndChar

StartChar: pi
Encoding: 960 960 218
Width: 666
GlyphClass: 1
Flags: W
LayerCount: 2
Fore
SplineSet
556 444 m 1,0,-1
 444 444 l 1,1,-1
 444 0 l 1,2,-1
 333 0 l 1,3,-1
 333 444 l 1,4,-1
 222 444 l 1,5,-1
 222 0 l 1,6,-1
 111 0 l 1,7,-1
 111 444 l 1,8,-1
 0 444 l 1,9,-1
 0 556 l 1,10,-1
 556 556 l 1,11,-1
 556 444 l 1,0,-1
EndSplineSet
Validated: 1
EndChar

StartChar: endash
Encoding: 8211 8211 219
Width: 666
GlyphClass: 1
Flags: W
LayerCount: 2
Fore
SplineSet
444 333 m 1,0,-1
 111 333 l 1,1,-1
 111 444 l 1,2,-1
 444 444 l 1,3,-1
 444 333 l 1,0,-1
EndSplineSet
Validated: 1
EndChar

StartChar: emdash
Encoding: 8212 8212 220
Width: 666
GlyphClass: 1
Flags: W
LayerCount: 2
Fore
SplineSet
667 333 m 1,0,-1
 0 333 l 1,1,-1
 0 444 l 1,2,-1
 667 444 l 1,3,-1
 667 333 l 1,0,-1
EndSplineSet
Validated: 1
EndChar

StartChar: quoteleft
Encoding: 8216 8216 221
Width: 666
GlyphClass: 1
Flags: W
LayerCount: 2
Fore
SplineSet
434 736 m 1,0,-1
 367 667 l 2,1,2
 334 634 334 634 333 591 c 2,3,-1
 333 444 l 1,4,-1
 222 444 l 1,5,-1
 222 592 l 2,6,7
 222 680 222 680 288 746 c 2,8,-1
 357 814 l 1,9,-1
 434 736 l 1,0,-1
EndSplineSet
Validated: 1
EndChar

StartChar: quoteright
Encoding: 8217 8217 222
Width: 666
GlyphClass: 1
Flags: W
LayerCount: 2
Fore
SplineSet
444 630 m 2,0,1
 444 542 444 542 379 477 c 2,2,-1
 310 408 l 1,3,-1
 232 487 l 1,4,-1
 300 556 l 2,5,6
 333 589 333 589 333 631 c 2,7,-1
 333 778 l 1,8,-1
 444 778 l 1,9,-1
 444 630 l 2,0,1
EndSplineSet
Validated: 1
EndChar

StartChar: quotesinglbase
Encoding: 8218 8218 223
Width: 666
GlyphClass: 1
Flags: W
LayerCount: 2
Fore
SplineSet
222 74 m 2,0,1
 222 -14 222 -14 157 -79 c 2,2,-1
 88 -148 l 1,3,-1
 10 -69 l 1,4,-1
 78 0 l 2,5,6
 111 33 111 33 111 76 c 2,7,-1
 111 222 l 1,8,-1
 222 222 l 1,9,-1
 222 74 l 2,0,1
EndSplineSet
Validated: 1
EndChar

StartChar: quotedblleft
Encoding: 8220 8220 224
Width: 666
GlyphClass: 1
Flags: W
LayerCount: 2
Fore
SplineSet
546 736 m 1,0,-1
 478 667 l 2,1,2
 445 634 445 634 444 591 c 2,3,-1
 444 444 l 1,4,-1
 333 444 l 1,5,-1
 333 592 l 2,6,7
 333 680 333 680 399 746 c 2,8,-1
 468 814 l 1,9,-1
 546 736 l 1,0,-1
323 736 m 1,10,-1
 256 667 l 2,11,12
 223 634 223 634 222 591 c 2,13,-1
 222 444 l 1,14,-1
 111 444 l 1,15,-1
 111 592 l 2,16,17
 111 680 111 680 177 746 c 2,18,-1
 246 814 l 1,19,-1
 323 736 l 1,10,-1
EndSplineSet
Validated: 1
EndChar

StartChar: quotedblright
Encoding: 8221 8221 225
Width: 666
GlyphClass: 1
Flags: W
LayerCount: 2
Fore
SplineSet
556 630 m 2,0,1
 556 542 556 542 490 477 c 2,2,-1
 421 408 l 1,3,-1
 343 487 l 1,4,-1
 411 556 l 2,5,6
 444 589 444 589 444 631 c 2,7,-1
 444 778 l 1,8,-1
 556 778 l 1,9,-1
 556 630 l 2,0,1
333 630 m 2,10,11
 333 542 333 542 268 477 c 2,12,-1
 199 408 l 1,13,-1
 121 487 l 1,14,-1
 189 556 l 2,15,16
 222 589 222 589 222 631 c 2,17,-1
 222 778 l 1,18,-1
 333 778 l 1,19,-1
 333 630 l 2,10,11
EndSplineSet
Validated: 1
EndChar

StartChar: quotedblbase
Encoding: 8222 8222 226
Width: 666
GlyphClass: 1
Flags: W
LayerCount: 2
Fore
SplineSet
444 74 m 2,0,1
 444 -14 444 -14 379 -79 c 2,2,-1
 310 -148 l 1,3,-1
 232 -69 l 1,4,-1
 300 0 l 2,5,6
 333 33 333 33 333 76 c 2,7,-1
 333 222 l 1,8,-1
 444 222 l 1,9,-1
 444 74 l 2,0,1
222 74 m 2,10,11
 222 -14 222 -14 157 -79 c 2,12,-1
 88 -148 l 1,13,-1
 10 -69 l 1,14,-1
 78 0 l 2,15,16
 111 33 111 33 111 76 c 2,17,-1
 111 222 l 1,18,-1
 222 222 l 1,19,-1
 222 74 l 2,10,11
EndSplineSet
Validated: 1
EndChar

StartChar: dagger
Encoding: 8224 8224 227
Width: 666
GlyphClass: 1
Flags: W
LayerCount: 2
Fore
SplineSet
444 556 m 1,0,-1
 333 556 l 1,1,-1
 333 222 l 1,2,-1
 222 222 l 1,3,-1
 222 556 l 1,4,-1
 111 556 l 1,5,-1
 111 667 l 1,6,-1
 222 667 l 1,7,-1
 222 778 l 1,8,-1
 333 778 l 1,9,-1
 333 667 l 1,10,-1
 444 667 l 1,11,-1
 444 556 l 1,0,-1
EndSplineSet
Validated: 1
EndChar

StartChar: daggerdbl
Encoding: 8225 8225 228
Width: 666
GlyphClass: 1
Flags: W
LayerCount: 2
Fore
SplineSet
444 333 m 1,0,-1
 333 333 l 1,1,-1
 333 222 l 1,2,-1
 222 222 l 1,3,-1
 222 333 l 1,4,-1
 111 333 l 1,5,-1
 111 444 l 1,6,-1
 222 444 l 1,7,-1
 222 556 l 1,8,-1
 111 556 l 1,9,-1
 111 667 l 1,10,-1
 222 667 l 1,11,-1
 222 778 l 1,12,-1
 333 778 l 1,13,-1
 333 667 l 1,14,-1
 444 667 l 1,15,-1
 444 556 l 1,16,-1
 333 556 l 1,17,-1
 333 444 l 1,18,-1
 444 444 l 1,19,-1
 444 333 l 1,0,-1
EndSplineSet
Validated: 1
EndChar

StartChar: bullet
Encoding: 8226 8226 229
Width: 666
GlyphClass: 1
Flags: W
LayerCount: 2
Fore
SplineSet
556 389 m 256,0,1
 556 273 556 273 474.5 192 c 128,-1,2
 393 111 393 111 278 111 c 256,3,4
 162 111 162 111 81 192 c 128,-1,5
 0 273 0 273 0 389 c 256,6,7
 0 505 0 505 81 586 c 128,-1,8
 162 667 162 667 278 667 c 256,9,10
 394 667 394 667 475 586 c 128,-1,11
 556 505 556 505 556 389 c 256,0,1
EndSplineSet
Validated: 1
EndChar

StartChar: ellipsis
Encoding: 8230 8230 230
Width: 666
GlyphClass: 1
Flags: W
LayerCount: 2
Fore
SplineSet
556 56 m 256,0,1
 556 33 556 33 539.5 16.5 c 128,-1,2
 523 0 523 0 500 0 c 256,3,4
 477 0 477 0 460.5 16 c 128,-1,5
 444 32 444 32 444 56 c 256,6,7
 444 79 444 79 460.5 95 c 128,-1,8
 477 111 477 111 500 111 c 256,9,10
 523 111 523 111 539.5 95 c 128,-1,11
 556 79 556 79 556 56 c 256,0,1
333 56 m 256,12,13
 333 33 333 33 317 16.5 c 128,-1,14
 301 0 301 0 278 0 c 256,15,16
 255 0 255 0 238.5 16 c 128,-1,17
 222 32 222 32 222 56 c 256,18,19
 222 79 222 79 238 95 c 128,-1,20
 254 111 254 111 278 111 c 256,21,22
 301 111 301 111 317 95 c 128,-1,23
 333 79 333 79 333 56 c 256,12,13
111 56 m 256,24,25
 111 33 111 33 95 16.5 c 128,-1,26
 79 0 79 0 56 0 c 256,27,28
 33 0 33 0 16.5 16 c 128,-1,29
 0 32 0 32 0 56 c 256,30,31
 0 79 0 79 16 95 c 128,-1,32
 32 111 32 111 56 111 c 256,33,34
 79 111 79 111 95 95 c 128,-1,35
 111 79 111 79 111 56 c 256,24,25
EndSplineSet
Validated: 1
EndChar

StartChar: perthousand
Encoding: 8240 8240 231
Width: 666
GlyphClass: 1
Flags: W
LayerCount: 2
Fore
SplineSet
672 222 m 256,0,1
 672 130 672 130 623 65 c 128,-1,2
 574 0 574 0 506 0 c 0,3,4
 444 0 444 0 394 57 c 1,5,6
 346 0 346 0 283 0 c 0,7,8
 214 0 214 0 165.5 65 c 128,-1,9
 117 130 117 130 117 222 c 0,10,11
 117 245 117 245 119 257 c 1,12,-1
 6 143 l 1,13,-1
 6 301 l 1,14,-1
 151 447 l 1,15,16
 90 458 90 458 48 520 c 128,-1,17
 6 582 6 582 6 667 c 0,18,19
 6 759 6 759 54.5 824 c 128,-1,20
 103 889 103 889 172 889 c 2,21,-1
 672 889 l 1,22,-1
 672 810 l 1,23,-1
 304 442 l 1,24,25
 355 434 355 434 394 388 c 1,26,27
 442 445 442 445 506 444 c 0,28,29
 575 444 575 444 623.5 379 c 128,-1,30
 672 314 672 314 672 222 c 256,0,1
482 778 m 1,31,-1
 317 778 l 1,32,33
 339 728 339 728 339 667 c 0,34,35
 339 655 339 655 337 632 c 1,36,-1
 482 778 l 1,31,-1
228 667 m 256,37,38
 228 713 228 713 212 745.5 c 128,-1,39
 196 778 196 778 172 778 c 256,40,41
 149 778 149 778 133 745 c 128,-1,42
 117 712 117 712 117 667 c 256,43,44
 117 621 117 621 133 588.5 c 128,-1,45
 149 556 149 556 172 556 c 256,46,47
 195 556 195 556 211.5 588.5 c 128,-1,48
 228 621 228 621 228 667 c 256,37,38
561 222 m 256,49,50
 561 268 561 268 545 300.5 c 128,-1,51
 529 333 529 333 506 333 c 256,52,53
 483 333 483 333 466.5 300.5 c 128,-1,54
 450 268 450 268 450 222 c 256,55,56
 450 176 450 176 466 143.5 c 128,-1,57
 482 111 482 111 506 111 c 256,58,59
 529 111 529 111 545 143.5 c 128,-1,60
 561 176 561 176 561 222 c 256,49,50
339 222 m 256,61,62
 339 268 339 268 323 300.5 c 128,-1,63
 307 333 307 333 283 333 c 256,64,65
 260 333 260 333 244 300.5 c 128,-1,66
 228 268 228 268 228 222 c 256,67,68
 228 176 228 176 244 143.5 c 128,-1,69
 260 111 260 111 283 111 c 256,70,71
 306 111 306 111 322.5 143.5 c 128,-1,72
 339 176 339 176 339 222 c 256,61,62
EndSplineSet
Validated: 33
Ligature2: "<1,8> Rebus Ligatures lookup 8 subtable" percent zero
EndChar

StartChar: guilsinglleft
Encoding: 8249 8249 232
Width: 666
GlyphClass: 1
Flags: W
LayerCount: 2
Fore
SplineSet
211 10 m 1,0,-1
 109 -33 l 1,1,-1
 0 222 l 1,2,-1
 109 478 l 1,3,-1
 211 434 l 1,4,-1
 118 222 l 1,5,-1
 211 10 l 1,0,-1
EndSplineSet
Validated: 1
Substitution2: "'rtla' Right to Left Alternates in Latin lookup 0 subtable" guilsinglright
EndChar

StartChar: guilsinglright
Encoding: 8250 8250 233
Width: 666
GlyphClass: 1
Flags: W
LayerCount: 2
Fore
SplineSet
222 222 m 1,0,-1
 113 -33 l 1,1,-1
 11 10 l 1,2,-1
 104 222 l 1,3,-1
 11 434 l 1,4,-1
 113 478 l 1,5,-1
 222 222 l 1,0,-1
EndSplineSet
Validated: 1
Substitution2: "'rtla' Right to Left Alternates in Latin lookup 0 subtable" guilsinglleft
EndChar

StartChar: fraction
Encoding: 8260 8260 234
Width: 666
GlyphClass: 1
Flags: W
LayerCount: 2
Fore
SplineSet
450 477 m 1,0,-1
 84 111 l 1,1,-1
 6 190 l 1,2,-1
 372 556 l 1,3,-1
 450 477 l 1,0,-1
EndSplineSet
Validated: 1
EndChar

StartChar: Euro
Encoding: 8364 8364 235
Width: 711
GlyphClass: 1
Flags: W
LayerCount: 2
Fore
SplineSet
604 133 m 1,0,1
 604 114 604 114 554 64 c 0,2,3
 488 0 488 0 398 0 c 2,4,-1
 287 0 l 2,5,6
 194 0 194 0 129 65 c 128,-1,7
 64 130 64 130 64 222 c 2,8,-1
 64 233 l 1,9,-1
 0 233 l 1,10,-1
 0 351 l 1,11,-1
 64 351 l 1,12,-1
 64 427 l 1,13,-1
 0 427 l 1,14,-1
 0 544 l 1,15,-1
 64 544 l 1,16,-1
 64 556 l 2,17,18
 64 648 64 648 128.5 713 c 128,-1,19
 193 778 193 778 287 778 c 2,20,-1
 398 778 l 2,21,22
 501 778 501 778 554 712 c 2,23,-1
 587 671 l 1,24,-1
 489 616 l 1,25,26
 489 620 489 620 476 633 c 0,27,28
 443 666 443 666 398 667 c 2,29,-1
 287 667 l 2,30,31
 239 667 239 667 208 633 c 0,32,33
 176 599 176 599 176 556 c 2,34,-1
 176 544 l 1,35,-1
 482 544 l 1,36,-1
 482 427 l 1,37,-1
 176 427 l 1,38,-1
 176 351 l 1,39,-1
 483 351 l 1,40,-1
 483 233 l 1,41,-1
 176 233 l 1,42,-1
 176 222 l 2,43,44
 176 179 176 179 208 144 c 0,45,46
 239 111 239 111 287 111 c 2,47,-1
 398 111 l 2,48,49
 452 111 452 111 476 144 c 2,50,-1
 496 170 l 1,51,-1
 604 133 l 1,0,1
EndSplineSet
Validated: 1
EndChar

StartChar: trademark
Encoding: 8482 8482 236
Width: 666
GlyphClass: 1
Flags: W
LayerCount: 2
Fore
SplineSet
667 444 m 1,0,-1
 556 444 l 1,1,-1
 556 611 l 1,2,-1
 500 500 l 1,3,-1
 444 611 l 1,4,-1
 444 444 l 1,5,-1
 333 444 l 1,6,-1
 333 667 l 1,7,-1
 222 667 l 1,8,-1
 222 444 l 1,9,-1
 111 444 l 1,10,-1
 111 667 l 1,11,-1
 0 667 l 1,12,-1
 0 778 l 1,13,-1
 444 778 l 1,14,-1
 500 667 l 1,15,-1
 556 778 l 1,16,-1
 667 778 l 1,17,-1
 667 444 l 1,0,-1
EndSplineSet
Validated: 1
EndChar

StartChar: partialdiff
Encoding: 8706 8706 237
Width: 666
GlyphClass: 1
Flags: W
LayerCount: 2
Fore
SplineSet
556 222 m 2,0,1
 556 130 556 130 491 65 c 128,-1,2
 426 0 426 0 333 0 c 0,3,4
 242 0 242 0 176.5 68.5 c 128,-1,5
 111 137 111 137 111 229 c 0,6,7
 111 298 111 298 156 342 c 2,8,-1
 368 556 l 1,9,-1
 201 722 l 1,10,-1
 278 799 l 1,11,-1
 512 564 l 2,12,13
 555 521 555 521 556 451 c 2,14,-1
 556 222 l 2,0,1
444 222 m 2,15,-1
 444 472 l 1,16,-1
 238 264 l 2,17,18
 222 248 222 248 222 226 c 0,19,20
 222 179 222 179 255 145 c 128,-1,21
 288 111 288 111 333 111 c 256,22,23
 379 111 379 111 411.5 143.5 c 128,-1,24
 444 176 444 176 444 222 c 2,15,-1
EndSplineSet
Validated: 1
EndChar

StartChar: product
Encoding: 8719 8719 238
Width: 666
GlyphClass: 1
Flags: W
LayerCount: 2
Fore
SplineSet
556 667 m 1,0,-1
 444 667 l 1,1,-1
 444 0 l 1,2,-1
 333 0 l 1,3,-1
 333 667 l 1,4,-1
 222 667 l 1,5,-1
 222 0 l 1,6,-1
 111 0 l 1,7,-1
 111 667 l 1,8,-1
 0 667 l 1,9,-1
 0 778 l 1,10,-1
 556 778 l 1,11,-1
 556 667 l 1,0,-1
EndSplineSet
Validated: 1
EndChar

StartChar: summation
Encoding: 8721 8721 239
Width: 666
GlyphClass: 1
Flags: W
LayerCount: 2
Fore
SplineSet
556 0 m 1,0,-1
 0 0 l 1,1,-1
 0 62 l 1,2,-1
 327 389 l 1,3,-1
 0 716 l 1,4,-1
 0 778 l 1,5,-1
 556 778 l 1,6,-1
 556 556 l 1,7,-1
 444 556 l 1,8,-1
 444 667 l 1,9,-1
 201 667 l 1,10,-1
 479 389 l 1,11,-1
 201 111 l 1,12,-1
 444 111 l 1,13,-1
 444 222 l 1,14,-1
 556 222 l 1,15,-1
 556 0 l 1,0,-1
EndSplineSet
Validated: 1
EndChar

StartChar: radical
Encoding: 8730 8730 240
Width: 666
GlyphClass: 1
Flags: W
LayerCount: 2
Fore
SplineSet
556 556 m 1,0,-1
 463 556 l 1,1,-1
 180 0 l 1,2,-1
 152 0 l 1,3,-1
 0 333 l 1,4,-1
 97 382 l 1,5,-1
 166 231 l 1,6,-1
 387 667 l 1,7,-1
 556 667 l 1,8,-1
 556 556 l 1,0,-1
EndSplineSet
Validated: 1
EndChar

StartChar: infinity
Encoding: 8734 8734 241
Width: 666
GlyphClass: 1
Flags: W
LayerCount: 2
Fore
SplineSet
556 389 m 256,0,1
 556 320 556 320 507 271 c 128,-1,2
 458 222 458 222 389 222 c 0,3,4
 331 222 331 222 282 269 c 1,5,6
 233 222 233 222 167 222 c 0,7,8
 98 222 98 222 49 271 c 128,-1,9
 0 320 0 320 0 389 c 256,10,11
 0 458 0 458 49 507 c 128,-1,12
 98 556 98 556 167 556 c 0,13,14
 225 556 225 556 273 509 c 1,15,16
 322 556 322 556 389 556 c 0,17,18
 458 556 458 556 507 507 c 128,-1,19
 556 458 556 458 556 389 c 256,0,1
444 389 m 256,20,21
 444 412 444 412 428 428 c 128,-1,22
 412 444 412 444 389 444 c 256,23,24
 366 444 366 444 349.5 428 c 128,-1,25
 333 412 333 412 333 389 c 256,26,27
 333 366 333 366 349.5 349.5 c 128,-1,28
 366 333 366 333 389 333 c 256,29,30
 412 333 412 333 428 349.5 c 128,-1,31
 444 366 444 366 444 389 c 256,20,21
222 389 m 256,32,33
 222 412 222 412 206 428 c 128,-1,34
 190 444 190 444 167 444 c 256,35,36
 144 444 144 444 127.5 428 c 128,-1,37
 111 412 111 412 111 389 c 256,38,39
 111 366 111 366 127 349.5 c 128,-1,40
 143 333 143 333 167 333 c 256,41,42
 190 333 190 333 206 349.5 c 128,-1,43
 222 366 222 366 222 389 c 256,32,33
EndSplineSet
Validated: 1
EndChar

StartChar: integral
Encoding: 8747 8747 242
Width: 666
GlyphClass: 1
Flags: W
LayerCount: 2
Fore
SplineSet
556 889 m 1,0,-1
 444 889 l 2,1,2
 398 889 398 889 365.5 856 c 128,-1,3
 333 823 333 823 333 778 c 2,4,-1
 333 0 l 2,5,6
 333 -91 333 -91 268 -156.5 c 128,-1,7
 203 -222 203 -222 111 -222 c 2,8,-1
 0 -222 l 1,9,-1
 0 -111 l 1,10,-1
 111 -111 l 2,11,12
 157 -111 157 -111 189.5 -78.5 c 128,-1,13
 222 -46 222 -46 222 0 c 2,14,-1
 222 778 l 2,15,16
 222 870 222 870 287.5 935 c 128,-1,17
 353 1000 353 1000 444 1000 c 2,18,-1
 556 1000 l 1,19,-1
 556 889 l 1,0,-1
0 -222 m 1024,20,-1
EndSplineSet
Validated: 1
EndChar

StartChar: approxequal
Encoding: 8776 8776 243
AltUni2: 0022f2.ffffffff.0 0022f2.ffffffff.0
Width: 666
GlyphClass: 1
Flags: W
LayerCount: 2
Fore
SplineSet
556 611 m 2,0,1
 556 542 556 542 507 493 c 128,-1,2
 458 444 458 444 389 444 c 2,3,-1
 167 444 l 2,4,5
 144 444 144 444 127.5 428 c 128,-1,6
 111 412 111 412 111 389 c 1,7,-1
 0 389 l 1,8,9
 0 458 0 458 49 507 c 128,-1,10
 98 556 98 556 167 556 c 2,11,-1
 389 556 l 2,12,13
 412 556 412 556 428 572 c 128,-1,14
 444 588 444 588 444 611 c 2,15,-1
 444 667 l 1,16,-1
 556 667 l 1,17,-1
 556 611 l 2,0,1
556 389 m 1,18,19
 556 320 556 320 507 271 c 128,-1,20
 458 222 458 222 389 222 c 2,21,-1
 167 222 l 2,22,23
 144 222 144 222 127.5 206 c 128,-1,24
 111 190 111 190 111 167 c 2,25,-1
 111 111 l 1,26,-1
 0 111 l 1,27,-1
 0 167 l 2,28,29
 0 236 0 236 49 284.5 c 128,-1,30
 98 333 98 333 167 333 c 2,31,-1
 389 333 l 2,32,33
 412 333 412 333 428 349.5 c 128,-1,34
 444 366 444 366 444 389 c 1,35,-1
 556 389 l 1,18,19
EndSplineSet
Validated: 1
EndChar

StartChar: notequal
Encoding: 8800 8800 244
Width: 666
GlyphClass: 1
Flags: W
LayerCount: 2
Fore
SplineSet
556 222 m 1,0,-1
 256 222 l 1,1,-1
 189 91 l 1,2,-1
 90 142 l 1,3,-1
 130 222 l 1,4,-1
 0 222 l 1,5,-1
 0 333 l 1,6,-1
 188 333 l 1,7,-1
 243 444 l 1,8,-1
 0 444 l 1,9,-1
 0 556 l 1,10,-1
 301 556 l 1,11,-1
 367 687 l 1,12,-1
 466 636 l 1,13,-1
 424 556 l 1,14,-1
 556 556 l 1,15,-1
 556 444 l 1,16,-1
 368 444 l 1,17,-1
 312 333 l 1,18,-1
 556 333 l 1,19,-1
 556 222 l 1,0,-1
EndSplineSet
Validated: 1
EndChar

StartChar: lessequal
Encoding: 8804 8804 245
Width: 666
GlyphClass: 1
Flags: W
LayerCount: 2
Fore
SplineSet
457 712 m 1,0,-1
 240 496 l 1,1,-1
 456 280 l 1,2,-1
 378 201 l 1,3,-1
 83 496 l 1,4,-1
 379 790 l 1,5,-1
 457 712 l 1,0,-1
472 0 m 1,6,-1
 83 0 l 1,7,-1
 83 111 l 1,8,-1
 472 111 l 1,9,-1
 472 0 l 1,6,-1
EndSplineSet
Validated: 1
Ligature2: "<15,6> Inequality Ligatures lookup 12 subtable" less equal
EndChar

StartChar: greaterequal
Encoding: 8805 8805 246
Width: 666
GlyphClass: 1
Flags: W
LayerCount: 2
Fore
SplineSet
583 496 m 1,0,-1
 289 201 l 1,1,-1
 211 280 l 1,2,-1
 427 496 l 1,3,-1
 210 712 l 1,4,-1
 288 790 l 1,5,-1
 583 496 l 1,0,-1
583 0 m 1,6,-1
 194 0 l 1,7,-1
 194 111 l 1,8,-1
 583 111 l 1,9,-1
 583 0 l 1,6,-1
EndSplineSet
Validated: 1
Ligature2: "<15,6> Inequality Ligatures lookup 12 subtable" greater equal
EndChar

StartChar: lozenge
Encoding: 9674 9674 247
Width: 666
GlyphClass: 1
Flags: W
LayerCount: 2
Fore
SplineSet
629 389 m 1,0,-1
 314 74 l 1,1,-1
 0 389 l 1,2,-1
 314 703 l 1,3,-1
 629 389 l 1,0,-1
471 389 m 1,4,-1
 314 546 l 1,5,-1
 157 389 l 1,6,-1
 314 232 l 1,7,-1
 471 389 l 1,4,-1
EndSplineSet
Validated: 1
EndChar

StartChar: apple
Encoding: 61440 61440 248
Width: 666
GlyphClass: 1
Flags: W
LayerCount: 2
Fore
SplineSet
451 920 m 2,0,1
 451 834 451 834 399 764 c 0,2,3
 366 720 366 720 309 713 c 1,4,5
 309 901 309 901 449 944 c 1,6,7
 450 940 450 940 451 931 c 2,8,-1
 451 920 l 2,0,1
612 251 m 1,9,10
 596 182 596 182 560 108 c 0,11,12
 504 -4 504 -4 450 -4 c 0,13,14
 430 -4 430 -4 389.5 14 c 128,-1,15
 349 32 349 32 326 32 c 0,16,17
 302 32 302 32 264.5 13 c 128,-1,18
 227 -6 227 -6 208 -6 c 0,19,20
 127 -6 127 -6 66 178 c 0,21,22
 16 326 16 326 16 430 c 0,23,24
 16 533 16 533 50 616 c 0,25,26
 97 726 97 726 186 726 c 0,27,28
 212 726 212 726 258 708.5 c 128,-1,29
 304 691 304 691 320 691 c 0,30,31
 342 691 342 691 383 710.5 c 128,-1,32
 424 730 424 730 456 730 c 0,33,34
 507 730 507 730 547 693 c 0,35,36
 568 673 568 673 592 636 c 1,37,38
 558 597 558 597 543 568 c 0,39,40
 514 512 514 512 514 450 c 0,41,42
 514 392 514 392 538 336 c 0,43,44
 565 269 565 269 612 251 c 1,9,10
EndSplineSet
Validated: 1
Ligature2: "<1,6> Logo Ligatures lookup 7 subtable" a p p l e
Ligature2: "<1,6> Logo Ligatures lookup 7 subtable" A p p l e
EndChar

StartChar: fi
Encoding: 61441 61441 249
Width: 666
GlyphClass: 1
Flags: W
LayerCount: 2
Fore
SplineSet
672 0 m 1,0,-1
 339 0 l 1,1,-1
 339 111 l 1,2,-1
 450 111 l 1,3,-1
 450 444 l 1,4,-1
 228 444 l 1,5,-1
 228 0 l 1,6,-1
 117 0 l 1,7,-1
 117 444 l 1,8,-1
 6 444 l 1,9,-1
 6 556 l 1,10,-1
 117 556 l 1,11,12
 117 648 117 648 182 713 c 128,-1,13
 247 778 247 778 339 778 c 2,14,-1
 450 778 l 1,15,-1
 450 667 l 1,16,-1
 339 667 l 2,17,18
 293 667 293 667 260.5 634 c 128,-1,19
 228 601 228 601 228 556 c 1,20,-1
 561 556 l 1,21,-1
 561 111 l 1,22,-1
 672 111 l 1,23,-1
 672 0 l 1,0,-1
EndSplineSet
Validated: 1
Ligature2: "<1,2> Common Ligatures lookup 5 subtable" f i
EndChar

StartChar: fl
Encoding: 61442 61442 250
Width: 666
GlyphClass: 1
Flags: W
LayerCount: 2
Fore
SplineSet
672 0 m 1,0,-1
 339 0 l 1,1,-1
 339 111 l 1,2,-1
 450 111 l 1,3,-1
 450 667 l 1,4,-1
 339 667 l 2,5,6
 293 667 293 667 260.5 634 c 128,-1,7
 228 601 228 601 228 556 c 1,8,-1
 339 556 l 1,9,-1
 339 444 l 1,10,-1
 228 444 l 1,11,-1
 228 0 l 1,12,-1
 117 0 l 1,13,-1
 117 444 l 1,14,-1
 6 444 l 1,15,-1
 6 556 l 1,16,-1
 117 556 l 1,17,18
 117 648 117 648 182 713 c 128,-1,19
 247 778 247 778 339 778 c 2,20,-1
 561 778 l 1,21,-1
 561 111 l 1,22,-1
 672 111 l 1,23,-1
 672 0 l 1,0,-1
EndSplineSet
Validated: 1
Ligature2: "<1,2> Common Ligatures lookup 5 subtable" f l
EndChar

StartChar: DC1
Encoding: 65539 -1 256
Width: 666
GlyphClass: 1
Flags: W
LayerCount: 2
Fore
SplineSet
396 111 m 256,1,2
 334 111 334 111 284 160 c 1,3,4
 235 111 235 111 167 111 c 256,5,6
 98 111 98 111 49 160 c 128,-1,7
 0 209 0 209 0 278 c 256,8,9
 0 347 0 347 49 396 c 1,10,11
 0 445 0 445 0 507 c 256,12,13
 0 569 0 569 49 618 c 128,-1,14
 98 667 98 667 160 667 c 256,15,16
 222 667 222 667 271 618 c 1,17,18
 320 667 320 667 389 667 c 256,19,20
 458 667 458 667 507 618 c 128,-1,21
 556 569 556 569 556 507 c 256,22,23
 556 445 556 445 507 396 c 1,24,25
 556 347 556 347 556 278 c 256,26,27
 556 209 556 209 507 160 c 128,-1,0
 458 111 458 111 396 111 c 256,1,2
444 500 m 256,28,29
 444 523 444 523 428 539.5 c 128,-1,30
 412 556 412 556 389 556 c 256,31,32
 366 556 366 556 349.5 539.5 c 128,-1,33
 333 523 333 523 333 500 c 256,34,35
 333 477 333 477 349.5 460.5 c 128,-1,36
 366 444 366 444 389 444 c 256,37,38
 412 444 412 444 428 460.5 c 128,-1,39
 444 477 444 477 444 500 c 256,28,29
222 500 m 256,40,41
 222 523 222 523 206 539.5 c 128,-1,42
 190 556 190 556 167 556 c 256,43,44
 144 556 144 556 127.5 539.5 c 128,-1,45
 111 523 111 523 111 500 c 256,46,47
 111 477 111 477 127 460.5 c 128,-1,48
 143 444 143 444 167 444 c 256,49,50
 190 444 190 444 206 460.5 c 128,-1,51
 222 477 222 477 222 500 c 256,40,41
444 278 m 256,52,53
 444 301 444 301 428 317 c 128,-1,54
 412 333 412 333 389 333 c 256,55,56
 366 333 366 333 349.5 317 c 128,-1,57
 333 301 333 301 333 278 c 256,58,59
 333 255 333 255 349.5 238.5 c 128,-1,60
 366 222 366 222 389 222 c 256,61,62
 412 222 412 222 428 238.5 c 128,-1,63
 444 255 444 255 444 278 c 256,52,53
222 278 m 256,64,65
 222 301 222 301 206 317 c 128,-1,66
 190 333 190 333 167 333 c 256,67,68
 144 333 144 333 127.5 317 c 128,-1,69
 111 301 111 301 111 278 c 256,70,71
 111 255 111 255 127 238.5 c 128,-1,72
 143 222 143 222 167 222 c 256,73,74
 190 222 190 222 206 238.5 c 128,-1,75
 222 255 222 255 222 278 c 256,64,65
EndSplineSet
Validated: 1
EndChar

StartChar: DC2
Encoding: 65540 -1 257
Width: 666
GlyphClass: 1
Flags: W
LayerCount: 2
Fore
SplineSet
618 858 m 1,0,-1
 180 0 l 1,1,-1
 152 0 l 1,2,-1
 0 278 l 1,3,-1
 67 423 l 1,4,-1
 166 231 l 1,5,-1
 512 911 l 1,6,-1
 618 858 l 1,0,-1
EndSplineSet
Validated: 1
EndChar

StartChar: DC3
Encoding: 65541 -1 258
Width: 666
GlyphClass: 1
Flags: W
LayerCount: 2
Fore
SplineSet
629 408 m 1,0,-1
 314 93 l 1,1,-1
 0 408 l 1,2,-1
 314 722 l 1,3,-1
 629 408 l 1,0,-1
EndSplineSet
Validated: 1
EndChar

StartChar: DC4
Encoding: 65542 -1 259
Width: 666
GlyphClass: 1
Flags: W
LayerCount: 2
Fore
SplineSet
451 920 m 2,0,1
 451 834 451 834 399 764 c 0,2,3
 366 720 366 720 309 713 c 1,4,5
 309 901 309 901 449 944 c 1,6,7
 450 940 450 940 451 931 c 2,8,-1
 451 920 l 2,0,1
612 251 m 1,9,10
 596 182 596 182 560 108 c 0,11,12
 504 -4 504 -4 450 -4 c 0,13,14
 430 -4 430 -4 389.5 14 c 128,-1,15
 349 32 349 32 326 32 c 0,16,17
 302 32 302 32 264.5 13 c 128,-1,18
 227 -6 227 -6 208 -6 c 0,19,20
 127 -6 127 -6 66 178 c 0,21,22
 16 326 16 326 16 430 c 0,23,24
 16 533 16 533 50 616 c 0,25,26
 97 726 97 726 186 726 c 0,27,28
 212 726 212 726 258 708.5 c 128,-1,29
 304 691 304 691 320 691 c 0,30,31
 342 691 342 691 383 710.5 c 128,-1,32
 424 730 424 730 456 730 c 0,33,34
 507 730 507 730 547 693 c 0,35,36
 568 673 568 673 592 636 c 1,37,38
 558 597 558 597 543 568 c 0,39,40
 514 512 514 512 514 450 c 0,41,42
 514 392 514 392 538 336 c 0,43,44
 565 269 565 269 612 251 c 1,9,10
EndSplineSet
Validated: 1
EndChar

StartChar: uni0410
Encoding: 1040 1040 263
Width: 666
Flags: W
LayerCount: 2
Fore
SplineSet
111 222 m 1,0,-1
 111 0 l 1,1,-1
 0 0 l 1,2,-1
 0 361 l 1,3,-1
 209 778 l 1,4,-1
 348 778 l 1,5,-1
 556 361 l 1,6,-1
 556 0 l 1,7,-1
 444 0 l 1,8,-1
 444 222 l 1,9,-1
 111 222 l 1,0,-1
278 667 m 1,10,-1
 111 333 l 1,11,-1
 444 333 l 1,12,-1
 278 667 l 1,10,-1
EndSplineSet
Validated: 1
EndChar

StartChar: uni0412
Encoding: 1042 1042 264
Width: 666
Flags: W
LayerCount: 2
Fore
SplineSet
556 556 m 0,0,1
 556 456 556 456 461 389 c 1,2,3
 555 322 555 322 556 222 c 0,4,5
 556 130 556 130 491 65 c 128,-1,6
 426 0 426 0 333 0 c 2,7,-1
 0 0 l 1,8,-1
 0 778 l 1,9,-1
 333 778 l 2,10,11
 425 778 425 778 490.5 713 c 128,-1,12
 556 648 556 648 556 556 c 0,0,1
111 667 m 1,13,-1
 111 444 l 1,14,-1
 333 444 l 2,15,16
 379 444 379 444 411.5 477 c 128,-1,17
 444 510 444 510 444 556 c 256,18,19
 444 602 444 602 411.5 634.5 c 128,-1,20
 379 667 379 667 333 667 c 2,21,-1
 111 667 l 1,13,-1
111 333 m 1,22,-1
 111 111 l 1,23,-1
 333 111 l 2,24,25
 379 111 379 111 411.5 144 c 128,-1,26
 444 177 444 177 444 222 c 256,27,28
 444 268 444 268 411.5 300.5 c 128,-1,29
 379 333 379 333 333 333 c 2,30,-1
 111 333 l 1,22,-1
EndSplineSet
Validated: 1
EndChar

StartChar: uni0421
Encoding: 1057 1057 265
Width: 666
Flags: W
LayerCount: 2
Fore
SplineSet
556 222 m 1,0,1
 556 130 556 130 491 65 c 128,-1,2
 426 0 426 0 333 0 c 2,3,-1
 222 0 l 2,4,5
 130 0 130 0 65 65 c 128,-1,6
 0 130 0 130 0 222 c 2,7,-1
 0 556 l 2,8,9
 0 648 0 648 65 713 c 128,-1,10
 130 778 130 778 222 778 c 2,11,-1
 333 778 l 2,12,13
 425 778 425 778 490.5 712.5 c 128,-1,14
 556 647 556 647 556 556 c 1,15,-1
 444 556 l 1,16,17
 444 602 444 602 411.5 634.5 c 128,-1,18
 379 667 379 667 333 667 c 2,19,-1
 222 667 l 2,20,21
 176 667 176 667 143.5 634 c 128,-1,22
 111 601 111 601 111 556 c 2,23,-1
 111 222 l 2,24,25
 111 176 111 176 144 143.5 c 128,-1,26
 177 111 177 111 222 111 c 2,27,-1
 333 111 l 2,28,29
 379 111 379 111 411.5 144 c 128,-1,30
 444 177 444 177 444 222 c 1,31,-1
 556 222 l 1,0,1
EndSplineSet
Validated: 1
EndChar

StartChar: uni0415
Encoding: 1045 1045 266
Width: 666
Flags: W
LayerCount: 2
Fore
SplineSet
556 0 m 1,0,-1
 0 0 l 1,1,-1
 0 778 l 1,2,-1
 556 778 l 1,3,-1
 556 667 l 1,4,-1
 111 667 l 1,5,-1
 111 444 l 1,6,-1
 444 444 l 1,7,-1
 444 333 l 1,8,-1
 111 333 l 1,9,-1
 111 111 l 1,10,-1
 556 111 l 1,11,-1
 556 0 l 1,0,-1
EndSplineSet
Validated: 1
EndChar

StartChar: uni041D
Encoding: 1053 1053 267
Width: 666
Flags: W
LayerCount: 2
Fore
SplineSet
556 0 m 1,0,-1
 444 0 l 1,1,-1
 444 333 l 1,2,-1
 111 333 l 1,3,-1
 111 0 l 1,4,-1
 0 0 l 1,5,-1
 0 778 l 1,6,-1
 111 778 l 1,7,-1
 111 444 l 1,8,-1
 444 444 l 1,9,-1
 444 778 l 1,10,-1
 556 778 l 1,11,-1
 556 0 l 1,0,-1
EndSplineSet
Validated: 1
EndChar

StartChar: uni041A
Encoding: 1050 1050 268
Width: 666
Flags: W
LayerCount: 2
Fore
SplineSet
556 0 m 1,0,-1
 444 0 l 1,1,-1
 111 333 l 1,2,-1
 111 0 l 1,3,-1
 0 0 l 1,4,-1
 0 778 l 1,5,-1
 111 778 l 1,6,-1
 111 444 l 1,7,-1
 444 778 l 1,8,-1
 556 778 l 1,9,-1
 556 737 l 1,10,-1
 208 389 l 1,11,-1
 556 42 l 1,12,-1
 556 0 l 1,0,-1
EndSplineSet
Validated: 1
EndChar

StartChar: uni041C
Encoding: 1052 1052 269
Width: 666
Flags: W
LayerCount: 2
Fore
SplineSet
556 0 m 1,0,-1
 444 0 l 1,1,-1
 444 583 l 1,2,-1
 333 472 l 1,3,-1
 333 333 l 1,4,-1
 222 333 l 1,5,-1
 222 472 l 1,6,-1
 111 583 l 1,7,-1
 111 0 l 1,8,-1
 0 0 l 1,9,-1
 0 778 l 1,10,-1
 83 778 l 1,11,-1
 278 583 l 1,12,-1
 472 778 l 1,13,-1
 556 778 l 1,14,-1
 556 0 l 1,0,-1
EndSplineSet
Validated: 1
EndChar

StartChar: uni041E
Encoding: 1054 1054 270
Width: 666
Flags: W
LayerCount: 2
Fore
SplineSet
556 222 m 2,0,1
 556 130 556 130 491 65 c 128,-1,2
 426 0 426 0 333 0 c 2,3,-1
 222 0 l 2,4,5
 130 0 130 0 65 65 c 128,-1,6
 0 130 0 130 0 222 c 2,7,-1
 0 556 l 2,8,9
 0 648 0 648 65 713 c 128,-1,10
 130 778 130 778 222 778 c 2,11,-1
 333 778 l 2,12,13
 425 778 425 778 490.5 712.5 c 128,-1,14
 556 647 556 647 556 556 c 2,15,-1
 556 222 l 2,0,1
444 222 m 2,16,-1
 444 556 l 2,17,18
 444 602 444 602 411.5 634.5 c 128,-1,19
 379 667 379 667 333 667 c 2,20,-1
 222 667 l 2,21,22
 176 667 176 667 143.5 634 c 128,-1,23
 111 601 111 601 111 556 c 2,24,-1
 111 222 l 2,25,26
 111 176 111 176 144 143.5 c 128,-1,27
 177 111 177 111 222 111 c 2,28,-1
 333 111 l 2,29,30
 379 111 379 111 411.5 143.5 c 128,-1,31
 444 176 444 176 444 222 c 2,16,-1
EndSplineSet
Validated: 1
EndChar

StartChar: uni0420
Encoding: 1056 1056 271
Width: 666
Flags: W
LayerCount: 2
Fore
SplineSet
556 556 m 0,0,1
 556 465 556 465 491 399 c 128,-1,2
 426 333 426 333 333 333 c 2,3,-1
 111 333 l 1,4,-1
 111 0 l 1,5,-1
 0 0 l 1,6,-1
 0 778 l 1,7,-1
 333 778 l 2,8,9
 425 778 425 778 490.5 713 c 128,-1,10
 556 648 556 648 556 556 c 0,0,1
444 556 m 256,11,12
 444 602 444 602 411.5 634.5 c 128,-1,13
 379 667 379 667 333 667 c 2,14,-1
 111 667 l 1,15,-1
 111 444 l 1,16,-1
 333 444 l 2,17,18
 379 444 379 444 411.5 477 c 128,-1,19
 444 510 444 510 444 556 c 256,11,12
EndSplineSet
Validated: 1
EndChar

StartChar: uni0422
Encoding: 1058 1058 272
Width: 666
Flags: W
LayerCount: 2
Fore
SplineSet
556 667 m 1,0,-1
 333 667 l 1,1,-1
 333 0 l 1,2,-1
 222 0 l 1,3,-1
 222 667 l 1,4,-1
 0 667 l 1,5,-1
 0 778 l 1,6,-1
 556 778 l 1,7,-1
 556 667 l 1,0,-1
EndSplineSet
Validated: 1
EndChar

StartChar: uni0425
Encoding: 1061 1061 273
Width: 666
Flags: W
LayerCount: 2
Fore
SplineSet
556 0 m 1,0,-1
 444 0 l 1,1,-1
 444 146 l 1,2,-1
 278 312 l 1,3,-1
 111 146 l 1,4,-1
 111 0 l 1,5,-1
 0 0 l 1,6,-1
 0 188 l 1,7,-1
 201 389 l 1,8,-1
 0 590 l 1,9,-1
 0 778 l 1,10,-1
 111 778 l 1,11,-1
 111 632 l 1,12,-1
 278 466 l 1,13,-1
 444 632 l 1,14,-1
 444 778 l 1,15,-1
 556 778 l 1,16,-1
 556 590 l 1,17,-1
 354 389 l 1,18,-1
 556 188 l 1,19,-1
 556 0 l 1,0,-1
EndSplineSet
Validated: 1
EndChar

StartChar: uni0430
Encoding: 1072 1072 274
Width: 666
Flags: W
LayerCount: 2
Fore
SplineSet
556 556 m 1,0,-1
 556 0 l 1,1,-1
 444 0 l 1,2,-1
 444 153 l 1,3,-1
 376 83 l 2,4,5
 293 0 293 0 222 0 c 0,6,7
 130 0 130 0 65 65 c 128,-1,8
 0 130 0 130 0 222 c 2,9,-1
 0 333 l 2,10,11
 0 425 0 425 65 490.5 c 128,-1,12
 130 556 130 556 222 556 c 2,13,-1
 556 556 l 1,0,-1
222 444 m 2,14,15
 176 444 176 444 143.5 411.5 c 128,-1,16
 111 379 111 379 111 333 c 2,17,-1
 111 222 l 2,18,19
 111 176 111 176 144 143.5 c 128,-1,20
 177 111 177 111 222 111 c 0,21,22
 278 111 278 111 333 167 c 2,23,-1
 444 278 l 1,24,-1
 444 444 l 1,25,-1
 222 444 l 2,14,15
EndSplineSet
Validated: 1
EndChar

StartChar: uni0441
Encoding: 1089 1089 275
Width: 666
Flags: W
LayerCount: 2
Fore
SplineSet
556 0 m 1,0,-1
 222 0 l 2,1,2
 131 0 131 0 65.5 65.5 c 128,-1,3
 0 131 0 131 0 222 c 2,4,-1
 0 333 l 2,5,6
 0 424 0 424 65.5 490 c 128,-1,7
 131 556 131 556 222 556 c 2,8,-1
 333 556 l 2,9,10
 424 556 424 556 490 490 c 128,-1,11
 556 424 556 424 556 333 c 1,12,-1
 444 333 l 1,13,14
 444 379 444 379 411.5 411.5 c 128,-1,15
 379 444 379 444 333 444 c 2,16,-1
 222 444 l 2,17,18
 176 444 176 444 143.5 411.5 c 128,-1,19
 111 379 111 379 111 333 c 2,20,-1
 111 222 l 2,21,22
 111 176 111 176 144 143.5 c 128,-1,23
 177 111 177 111 222 111 c 2,24,-1
 556 111 l 1,25,-1
 556 0 l 1,0,-1
EndSplineSet
Validated: 1
EndChar

StartChar: uni0435
Encoding: 1077 1077 276
Width: 666
Flags: W
LayerCount: 2
Fore
SplineSet
556 0 m 1,0,-1
 222 0 l 2,1,2
 130 0 130 0 65 65 c 128,-1,3
 0 130 0 130 0 222 c 2,4,-1
 0 333 l 2,5,6
 0 425 0 425 65 490.5 c 128,-1,7
 130 556 130 556 222 556 c 2,8,-1
 333 556 l 2,9,10
 424 556 424 556 490 490 c 128,-1,11
 556 424 556 424 556 333 c 2,12,-1
 556 222 l 1,13,-1
 111 222 l 1,14,15
 111 176 111 176 144 143.5 c 128,-1,16
 177 111 177 111 222 111 c 2,17,-1
 556 111 l 1,18,-1
 556 0 l 1,0,-1
444 333 m 1,19,20
 444 379 444 379 411.5 411.5 c 128,-1,21
 379 444 379 444 333 444 c 2,22,-1
 222 444 l 2,23,24
 176 444 176 444 143.5 411.5 c 128,-1,25
 111 379 111 379 111 333 c 1,26,-1
 444 333 l 1,19,20
EndSplineSet
Validated: 1
EndChar

StartChar: uni043A
Encoding: 1082 1082 277
Width: 666
Flags: W
LayerCount: 2
Fore
SplineSet
556 0 m 1,0,-1
 479 0 l 1,1,-1
 222 257 l 1,2,-1
 111 146 l 1,3,-1
 111 0 l 1,4,-1
 0 0 l 1,5,-1
 0 778 l 1,6,-1
 111 778 l 1,7,-1
 111 299 l 1,8,-1
 368 556 l 1,9,-1
 521 556 l 1,10,-1
 299 333 l 1,11,-1
 556 77 l 1,12,-1
 556 0 l 1,0,-1
EndSplineSet
Validated: 1
EndChar

StartChar: uni043C
Encoding: 1084 1084 278
Width: 666
Flags: W
LayerCount: 2
Fore
SplineSet
556 0 m 1,0,-1
 444 0 l 1,1,-1
 444 333 l 2,2,3
 444 379 444 379 411.5 411.5 c 128,-1,4
 379 444 379 444 333 444 c 1,5,-1
 333 0 l 1,6,-1
 222 0 l 1,7,-1
 222 444 l 1,8,-1
 111 444 l 1,9,-1
 111 0 l 1,10,-1
 0 0 l 1,11,-1
 0 556 l 1,12,-1
 333 556 l 2,13,14
 424 556 424 556 490 490 c 128,-1,15
 556 424 556 424 556 333 c 2,16,-1
 556 0 l 1,0,-1
EndSplineSet
Validated: 1
EndChar

StartChar: uni0448
Encoding: 1096 1096 279
Width: 666
Flags: W
LayerCount: 2
Fore
SplineSet
271 111 m 1,0,1
 225 0 225 0 167 0 c 0,2,3
 98 0 98 0 49 73.5 c 132,-1,4
 0 147 0 147 0 250 c 2,5,-1
 0 556 l 1,6,-1
 111 556 l 1,7,-1
 111 250 l 2,8,9
 111 192 111 192 127 151 c 128,-1,10
 143 110 143 110 167 110 c 256,11,12
 190 110 190 110 206 151 c 128,-1,13
 222 192 222 192 222 250 c 2,14,-1
 222 556 l 1,15,-1
 333 556 l 1,16,-1
 333 250 l 2,17,18
 333 192 333 192 349.5 151.5 c 128,-1,19
 366 111 366 111 389 111 c 256,20,21
 412 111 412 111 428 151.5 c 128,-1,22
 444 192 444 192 444 250 c 2,23,-1
 444 556 l 1,24,-1
 556 556 l 1,25,-1
 556 250 l 2,26,27
 556 147 556 147 507 73.5 c 128,-1,28
 458 0 458 0 389 0 c 0,29,30
 330 0 330 0 284 111 c 1,31,-1
 271 111 l 1,0,1
EndSplineSet
EndChar

StartChar: uni0411
Encoding: 1041 1041 280
Width: 666
Flags: W
LayerCount: 2
Fore
SplineSet
544 778 m 1,0,1
 438 778 438 778 333 778 c 2,2,3
 166.5 778 166.5 778 0 778 c 1,4,-1
 0 0 l 1,5,-1
 333 0 l 2,6,7
 420 0 420 0 499 43 c 0,8,9
 565 79 565 79 558.5 265 c 0,10,11
 553 444 553 444 378 444 c 2,12,13
 378 444 378 444 111 444 c 1,14,-1
 111 667 l 1,15,-1
 333 667 l 2,16,17
 438 667 438 667 544 668 c 1,18,19
 544 778 544 778 544 778 c 1,0,1
333 333 m 18,20,21
 381.803986711 333.215946844 381.803986711 333.215946844 411.5 300.5 c 0,22,23
 445 265 445 265 444 222 c 256,24,25
 442 138 442 138 356 112 c 0,26,27
 356 112 356 112 107 109 c 5,28,-1
 107 332 l 1,29,-1
 333 333 l 18,20,21
EndSplineSet
EndChar

StartChar: uni0413
Encoding: 1043 1043 281
Width: 666
Flags: W
LayerCount: 2
Fore
SplineSet
556 667 m 1,0,-1
 130 666 l 1,1,-1
 128 0 l 1,2,-1
 0 0 l 1,3,4
 0 334 0 334 0 667 c 1,5,-1
 0 778 l 1,6,-1
 556 778 l 1,7,-1
 556 667 l 1,0,-1
EndSplineSet
EndChar

StartChar: uni0424
Encoding: 1060 1060 282
Width: 666
Flags: W
LayerCount: 2
Fore
SplineSet
333 0 m 17,0,-1
 333 -56 l 1,1,-1
 222 -56 l 1,2,-1
 222 0 l 25,3,-1
 65 65 l 0,4,5
 0 130 0 130 0 222 c 2,6,7
 0 556 0 556 0 556 c 2,8,9
 0 648 0 648 65 713 c 128,-1,10
 130 778 130 778 222 778 c 2,11,12
 333 778 333 778 333 778 c 2,13,14
 425 778 425 778 490.5 712.5 c 128,-1,15
 556 647 556 647 556 556 c 2,16,17
 556 222 556 222 556 222 c 2,18,19
 556 130 556 130 491 65 c 8,20,21
 491 65 491 65 333 0 c 17,0,-1
216 107 m 17,22,23
 216 107 216 107 210 633 c 1,30,-1
 186 687 186 687 148.5 660.5 c 128,-1,29
 111 634 111 634 111 556 c 2,27,28
 111 222 111 222 111 222 c 2,25,26
 111 176 111 176 145 144 c 128,-1,24
 179 112 179 112 216 107 c 17,22,23
333 105 m 1,32,33
 384 112 384 112 414 144 c 128,-1,34
 444 176 444 176 444 222 c 2,35,36
 444 556 444 556 444 556 c 2,37,38
 444 599.886178862 444 599.886178862 411.5 634.5 c 0,39,40
 350 701 350 701 328 635 c 25,41,-1
 333 105 l 1,32,33
EndSplineSet
EndChar

StartChar: uni041F
Encoding: 1055 1055 283
Width: 666
Flags: W
LayerCount: 2
Fore
SplineSet
106 666 m 17,0,1
 106 666 106 666 104 0 c 1,2,-1
 0 0 l 1,3,4
 0 334 0 334 0 667 c 1,5,6
 0 667 0 667 0 778 c 1,7,-1
 550 778 l 1,8,-1
 550 668 l 1,9,-1
 550 0 l 1,10,-1
 446 0 l 1,11,-1
 440 666 l 1,12,-1
 106 666 l 17,0,1
EndSplineSet
EndChar

StartChar: uni0423
Encoding: 1059 1059 284
Width: 666
Flags: W
LayerCount: 2
Fore
SplineSet
278 312 m 1,0,-1
 111 146 l 1,1,-1
 111 0 l 1,2,-1
 0 0 l 1,3,-1
 0 188 l 1,4,-1
 201 389 l 1,5,-1
 0 590 l 1,6,-1
 0 778 l 1,7,-1
 111 778 l 1,8,-1
 111 632 l 1,9,-1
 278 466 l 1,10,-1
 444 632 l 1,11,-1
 444 778 l 1,12,-1
 556 778 l 1,13,-1
 556 590 l 1,14,-1
 278 312 l 1,0,-1
EndSplineSet
EndChar

StartChar: uni041B
Encoding: 1051 1051 285
Width: 666
Flags: W
LayerCount: 2
Fore
SplineSet
106 666 m 1,0,1
 106 666 106 666 104.48046875 322 c 0,2,3
 104.48046875 322 104.48046875 322 0 0 c 1,4,-1
 -101 0 l 0,5,6
 -101 0 -101 0 0 328 c 0,7,8
 0 328 0 328 0 667 c 1,9,10
 0 667 0 667 0 778 c 1,11,-1
 550 778 l 1,12,-1
 550 668 l 1,13,-1
 550 0 l 1,14,-1
 446 0 l 1,15,-1
 440 666 l 1,16,-1
 106 666 l 1,0,1
EndSplineSet
EndChar

StartChar: uni0426
Encoding: 1062 1062 286
Width: 666
Flags: W
LayerCount: 2
Fore
SplineSet
556 22 m 1,0,-1
 556 778 l 1,1,-1
 444 778 l 1,2,-1
 444 92 l 1,3,-1
 111 92 l 1,4,-1
 111 778 l 1,5,-1
 0 778 l 1,6,-1
 0 0 l 1,7,-1
 440 0 l 1,8,9
 440 0 440 0 440 -146 c 1,10,-1
 557 -144 l 1,11,-1
 556 22 l 1,0,-1
EndSplineSet
EndChar

StartChar: uni0427
Encoding: 1063 1063 287
Width: 666
Flags: W
LayerCount: 2
Fore
SplineSet
556 22 m 1,0,-1
 556 778 l 1,1,-1
 444 778 l 1,2,-1
 444 462 l 1,3,-1
 111 464 l 1,4,-1
 111 778 l 1,5,-1
 0 778 l 1,6,-1
 0 358 l 1,7,-1
 440 358 l 1,8,9
 440 358 440 358 440 0 c 1,10,-1
 557 0 l 1,11,-1
 556 22 l 1,0,-1
EndSplineSet
EndChar

StartChar: uni0428
Encoding: 1064 1064 288
Width: 666
Flags: W
LayerCount: 2
Fore
SplineSet
222 94 m 1,0,1
 222 94 222 94 111 94 c 1,2,-1
 111 778 l 1,3,-1
 0 778 l 1,4,-1
 0 0 l 1,5,6
 0 0 0 0 557 0 c 1,7,-1
 556 22 l 1,8,-1
 556 778 l 1,9,-1
 444 778 l 1,10,-1
 444 94 l 1,11,-1
 330 94 l 1,12,13
 330 94 330 94 328 780 c 1,14,-1
 222 780 l 1,15,-1
 222 94 l 1,0,1
EndSplineSet
EndChar

StartChar: uni0429
Encoding: 1065 1065 289
Width: 666
Flags: W
LayerCount: 2
Fore
SplineSet
557 0 m 1,0,-1
 556 22 l 1,1,-1
 556 778 l 1,2,-1
 444 778 l 1,3,-1
 444 94 l 1,4,-1
 330 94 l 1,5,6
 330 94 330 94 328 780 c 1,7,-1
 222 780 l 1,8,-1
 222 94 l 1,9,10
 222 94 222 94 111 94 c 1,11,-1
 111 778 l 1,12,-1
 0 778 l 1,13,-1
 0 0 l 1,14,15
 0 0 0 0 438 0 c 1,16,17
 438 0 438 0 438 -138 c 1,18,-1
 557 -138 l 1,19,-1
 557 0 l 1,0,-1
EndSplineSet
EndChar

StartChar: uni0414
Encoding: 1044 1044 290
Width: 666
Flags: W
LayerCount: 2
Fore
SplineSet
0 0 m 1,0,-1
 0 94 l 1,1,2
 0 94 0 94 165 778 c 1,3,-1
 280 778 l 1,4,-1
 111 92 l 1,5,-1
 444 92 l 1,6,-1
 280 778 l 1,7,-1
 389 778 l 1,8,-1
 556 94 l 1,9,10
 556 94 556 94 556 22 c 1,11,-1
 557 -144 l 1,12,-1
 440 -146 l 1,13,-1
 443 0 l 1,14,15
 111 0 111 0 111 0 c 1,16,17
 114 -145 114 -145 106 -144 c 1,18,-1
 0 -144 l 1,19,-1
 0 0 l 1,0,-1
EndSplineSet
EndChar

StartChar: uni042A
Encoding: 1066 1066 291
Width: 718
Flags: W
LayerCount: 2
Fore
SplineSet
172 0 m 1,0,-1
 172 33 l 1,1,2
 209 34 209 34 223.5 49.5 c 128,-1,3
 238 65 238 65 240 92 c 128,-1,4
 242 119 242 119 241 156 c 2,5,-1
 241 588 l 2,6,7
 241 608 241 608 242 626.5 c 128,-1,8
 243 645 243 645 245 660 c 1,9,-1
 174 659 l 2,10,11
 111 659 111 659 85 618.5 c 128,-1,12
 59 578 59 578 59 489 c 1,13,-1
 22 489 l 1,14,-1
 28 700 l 1,15,-1
 397 700 l 1,16,-1
 397 667 l 1,17,18
 360 666 360 666 346 650 c 128,-1,19
 332 634 332 634 330.5 607 c 128,-1,20
 329 580 329 580 329 544 c 2,21,-1
 329 407 l 1,22,-1
 404 410 l 2,23,24
 483 412 483 412 537 398.5 c 128,-1,25
 591 385 591 385 624 358 c 128,-1,26
 657 331 657 331 671.5 294 c 128,-1,27
 686 257 686 257 686 213 c 0,28,29
 686 143 686 143 656.5 95.5 c 128,-1,30
 627 48 627 48 576 24 c 128,-1,31
 525 0 525 0 459 0 c 2,32,-1
 172 0 l 1,0,-1
325 40 m 1,33,34
 341 39 341 39 362 38.5 c 128,-1,35
 383 38 383 38 401.5 38 c 128,-1,36
 420 38 420 38 426 38 c 0,37,38
 497 38 497 38 543 79 c 128,-1,39
 589 120 589 120 589 209 c 0,40,41
 589 273 589 273 565.5 308 c 128,-1,42
 542 343 542 343 504.5 357.5 c 128,-1,43
 467 372 467 372 426 372 c 0,44,45
 397 372 397 372 374.5 371.5 c 128,-1,46
 352 371 352 371 329 369 c 1,47,48
 329 266 329 266 329 204.5 c 128,-1,49
 329 143 329 143 329 111 c 128,-1,50
 329 79 329 79 328 64.5 c 128,-1,51
 327 50 327 50 325 40 c 1,33,34
EndSplineSet
EndChar

StartChar: uni042B
Encoding: 1067 1067 292
Width: 899
Flags: W
LayerCount: 2
Fore
SplineSet
55 0 m 1,0,-1
 55 33 l 1,1,2
 92 34 92 34 106 49.5 c 128,-1,3
 120 65 120 65 122 92.5 c 128,-1,4
 124 120 124 120 124 156 c 2,5,-1
 124 588 l 2,6,7
 124 608 124 608 125 626.5 c 128,-1,8
 126 645 126 645 127 660 c 1,9,10
 109 659 109 659 91 658 c 128,-1,11
 73 657 73 657 55 656 c 1,12,-1
 55 700 l 1,13,-1
 280 700 l 1,14,-1
 280 667 l 1,15,16
 243 666 243 666 228.5 650 c 128,-1,17
 214 634 214 634 212.5 607 c 128,-1,18
 211 580 211 580 211 544 c 2,19,-1
 211 407 l 1,20,-1
 292 410 l 2,21,22
 369 412 369 412 422 398.5 c 128,-1,23
 475 385 475 385 507 358 c 128,-1,24
 539 331 539 331 553.5 294 c 128,-1,25
 568 257 568 257 568 213 c 0,26,27
 568 143 568 143 538 95.5 c 128,-1,28
 508 48 508 48 458 24 c 128,-1,29
 408 0 408 0 347 0 c 2,30,-1
 55 0 l 1,0,-1
208 40 m 1,31,32
 224 39 224 39 246.5 38.5 c 128,-1,33
 269 38 269 38 288.5 38 c 128,-1,34
 308 38 308 38 314 38 c 0,35,36
 358 38 358 38 394 56 c 128,-1,37
 430 74 430 74 451 112 c 128,-1,38
 472 150 472 150 472 209 c 0,39,40
 472 273 472 273 448.5 308 c 128,-1,41
 425 343 425 343 389 357.5 c 128,-1,42
 353 372 353 372 314 372 c 0,43,44
 284 372 284 372 259.5 371.5 c 128,-1,45
 235 371 235 371 211 369 c 1,46,47
 211 272 211 272 211 211.5 c 128,-1,48
 211 151 211 151 210.5 117.5 c 128,-1,49
 210 84 210 84 209.5 67 c 128,-1,50
 209 50 209 50 208 40 c 1,31,32
619 0 m 1,51,-1
 619 33 l 1,52,53
 657 35 657 35 671 50.5 c 128,-1,54
 685 66 685 66 686.5 93.5 c 128,-1,55
 688 121 688 121 688 156 c 2,56,-1
 688 588 l 2,57,58
 688 608 688 608 688.5 626.5 c 128,-1,59
 689 645 689 645 691 660 c 1,60,61
 673 659 673 659 655 658 c 128,-1,62
 637 657 637 657 619 656 c 1,63,-1
 619 700 l 1,64,-1
 844 700 l 1,65,-1
 844 667 l 1,66,67
 807 666 807 666 792.5 650 c 128,-1,68
 778 634 778 634 776.5 607 c 128,-1,69
 775 580 775 580 775 544 c 2,70,-1
 775 119 l 2,71,72
 775 92 775 92 774 72.5 c 128,-1,73
 773 53 773 53 771 40 c 1,74,75
 789 41 789 41 807.5 42 c 128,-1,76
 826 43 826 43 844 44 c 1,77,-1
 844 0 l 1,78,-1
 619 0 l 1,51,-1
EndSplineSet
EndChar

StartChar: uni042C
Encoding: 1068 1068 293
Width: 615
Flags: W
LayerCount: 2
Fore
SplineSet
280 667 m 1,0,1
 243 666 243 666 228.5 650 c 128,-1,2
 214 634 214 634 212.5 607 c 128,-1,3
 211 580 211 580 211 544 c 2,4,-1
 211 407 l 1,5,-1
 292 410 l 2,6,7
 375 412 375 412 430.5 398.5 c 128,-1,8
 486 385 486 385 520 358 c 128,-1,9
 554 331 554 331 568.5 294 c 128,-1,10
 583 257 583 257 583 213 c 0,11,12
 583 143 583 143 552 95.5 c 128,-1,13
 521 48 521 48 468 24 c 128,-1,14
 415 0 415 0 347 0 c 2,15,-1
 55 0 l 1,16,-1
 55 33 l 1,17,18
 92 34 92 34 106 49.5 c 128,-1,19
 120 65 120 65 122 92.5 c 128,-1,20
 124 120 124 120 124 156 c 2,21,-1
 124 588 l 2,22,23
 124 608 124 608 125 626.5 c 128,-1,24
 126 645 126 645 127 660 c 1,25,26
 109 659 109 659 91 658 c 128,-1,27
 73 657 73 657 55 656 c 1,28,-1
 55 700 l 1,29,-1
 280 700 l 1,30,-1
 280 667 l 1,0,1
211 118 m 2,31,32
 211 91 211 91 210.5 72 c 128,-1,33
 210 53 210 53 208 40 c 1,34,35
 224 39 224 39 246.5 38.5 c 128,-1,36
 269 38 269 38 288.5 38 c 128,-1,37
 308 38 308 38 314 38 c 0,38,39
 391 38 391 38 438.5 79 c 128,-1,40
 486 120 486 120 486 209 c 0,41,42
 486 273 486 273 462 308 c 128,-1,43
 438 343 438 343 399 357.5 c 128,-1,44
 360 372 360 372 314 372 c 0,45,46
 284 372 284 372 259.5 371.5 c 128,-1,47
 235 371 235 371 211 369 c 1,48,-1
 211 118 l 2,31,32
EndSplineSet
EndChar

StartChar: uni042D
Encoding: 1069 1069 294
Width: 697
Flags: W
LayerCount: 2
Fore
SplineSet
305 -16 m 0,0,1
 264 -16 264 -16 216 -4.5 c 128,-1,2
 168 7 168 7 120 39 c 128,-1,3
 72 71 72 71 30 130 c 1,4,-1
 56 151 l 1,5,6
 95 95 95 95 154.5 65.5 c 128,-1,7
 214 36 214 36 279 36 c 0,8,9
 366 36 366 36 427.5 75.5 c 128,-1,10
 489 115 489 115 522 187 c 128,-1,11
 555 259 555 259 555 354 c 0,12,13
 555 427 555 427 536.5 486 c 128,-1,14
 518 545 518 545 484 587.5 c 128,-1,15
 450 630 450 630 403 652.5 c 128,-1,16
 356 675 356 675 299 675 c 0,17,18
 213 675 213 675 167 628 c 128,-1,19
 121 581 121 581 110 487 c 1,20,-1
 74 487 l 1,21,-1
 74 709 l 1,22,-1
 128 709 l 1,23,-1
 123 655 l 1,24,25
 173 690 173 690 220.5 703 c 128,-1,26
 268 716 268 716 320 716 c 0,27,28
 405 716 405 716 467.5 686.5 c 128,-1,29
 530 657 530 657 571 607 c 128,-1,30
 612 557 612 557 632.5 495.5 c 128,-1,31
 653 434 653 434 653 369 c 0,32,33
 653 290 653 290 628 220 c 128,-1,34
 603 150 603 150 556.5 97 c 128,-1,35
 510 44 510 44 446.5 14 c 128,-1,36
 383 -16 383 -16 305 -16 c 0,0,1
191 256 m 1,37,-1
 191 469 l 1,38,-1
 236 469 l 1,39,40
 234 447 234 447 232 426 c 128,-1,41
 230 405 230 405 228 383 c 1,42,-1
 586 384 l 1,43,-1
 586 344 l 1,44,-1
 343 341 l 2,45,46
 301 341 301 341 274.5 338 c 128,-1,47
 248 335 248 335 236 317.5 c 128,-1,48
 224 300 224 300 224 256 c 1,49,-1
 191 256 l 1,37,-1
EndSplineSet
EndChar

StartChar: uni042E
Encoding: 1070 1070 295
Width: 1075
Flags: W
LayerCount: 2
Fore
SplineSet
683 -16 m 0,0,1
 599 -16 599 -16 538.5 14.5 c 128,-1,2
 478 45 478 45 438 96.5 c 128,-1,3
 398 148 398 148 378 210.5 c 128,-1,4
 358 273 358 273 356 337 c 1,5,-1
 211 334 l 1,6,-1
 211 119 l 2,7,8
 211 92 211 92 210.5 72.5 c 128,-1,9
 210 53 210 53 208 40 c 1,10,11
 226 41 226 41 244 42 c 128,-1,12
 262 43 262 43 280 44 c 1,13,-1
 280 0 l 1,14,-1
 55 0 l 1,15,-1
 55 33 l 1,16,17
 93 35 93 35 107 50.5 c 128,-1,18
 121 66 121 66 122.5 93.5 c 128,-1,19
 124 121 124 121 124 156 c 2,20,-1
 124 588 l 2,21,22
 124 608 124 608 125 626.5 c 128,-1,23
 126 645 126 645 127 660 c 1,24,25
 109 659 109 659 91 658 c 128,-1,26
 73 657 73 657 55 656 c 1,27,-1
 55 700 l 1,28,-1
 280 700 l 1,29,-1
 280 667 l 1,30,31
 243 666 243 666 228.5 650 c 128,-1,32
 214 634 214 634 212.5 607 c 128,-1,33
 211 580 211 580 211 544 c 2,34,-1
 211 378 l 1,35,-1
 357 378 l 1,36,37
 361 438 361 438 383.5 498 c 128,-1,38
 406 558 406 558 445.5 607.5 c 128,-1,39
 485 657 485 657 542.5 686.5 c 128,-1,40
 600 716 600 716 675 716 c 0,41,42
 767 716 767 716 834 683 c 128,-1,43
 901 650 901 650 944.5 595.5 c 128,-1,44
 988 541 988 541 1009.5 477 c 128,-1,45
 1031 413 1031 413 1031 350 c 0,46,47
 1031 288 1031 288 1010 223.5 c 128,-1,48
 989 159 989 159 945.5 104.5 c 128,-1,49
 902 50 902 50 837 17 c 128,-1,50
 772 -16 772 -16 683 -16 c 0,0,1
685 25 m 0,51,52
 747 25 747 25 793 51.5 c 128,-1,53
 839 78 839 78 869.5 122.5 c 128,-1,54
 900 167 900 167 915.5 221.5 c 128,-1,55
 931 276 931 276 931 331 c 0,56,57
 931 393 931 393 914 454 c 128,-1,58
 897 515 897 515 864 565 c 128,-1,59
 831 615 831 615 782.5 645.5 c 128,-1,60
 734 676 734 676 672 676 c 0,61,62
 619 676 619 676 578.5 649 c 128,-1,63
 538 622 538 622 510.5 577.5 c 128,-1,64
 483 533 483 533 469 478.5 c 128,-1,65
 455 424 455 424 455 368 c 0,66,67
 455 313 455 313 469.5 253 c 128,-1,68
 484 193 484 193 512.5 141 c 128,-1,69
 541 89 541 89 584 57 c 128,-1,70
 627 25 627 25 685 25 c 0,51,52
EndSplineSet
EndChar

StartChar: uni042F
Encoding: 1071 1071 296
Width: 673
Flags: W
LayerCount: 2
Fore
SplineSet
22 0 m 1,0,-1
 22 33 l 1,1,2
 50 33 50 33 68.5 43.5 c 128,-1,3
 87 54 87 54 103.5 75.5 c 128,-1,4
 120 97 120 97 141 128 c 2,5,-1
 218 244 l 2,6,7
 237 271 237 271 254 286 c 128,-1,8
 271 301 271 301 295 308 c 1,9,10
 223 325 223 325 175 375.5 c 128,-1,11
 127 426 127 426 127 511 c 0,12,13
 127 570 127 570 151.5 612.5 c 128,-1,14
 176 655 176 655 226 677.5 c 128,-1,15
 276 700 276 700 351 700 c 2,16,-1
 618 700 l 1,17,-1
 618 667 l 1,18,19
 582 666 582 666 567.5 650.5 c 128,-1,20
 553 635 553 635 551 608 c 128,-1,21
 549 581 549 581 549 544 c 2,22,-1
 549 112 l 2,23,24
 549 92 549 92 548.5 73.5 c 128,-1,25
 548 55 548 55 546 40 c 1,26,-1
 618 44 l 1,27,-1
 618 0 l 1,28,-1
 393 0 l 1,29,-1
 393 33 l 1,30,31
 431 35 431 35 445 50.5 c 128,-1,32
 459 66 459 66 460.5 93.5 c 128,-1,33
 462 121 462 121 462 156 c 2,34,-1
 462 293 l 1,35,-1
 373 292 l 1,36,37
 351 279 351 279 334.5 261 c 128,-1,38
 318 243 318 243 307 226 c 2,39,-1
 232 111 l 2,40,41
 218 89 218 89 202 66 c 128,-1,42
 186 43 186 43 170.5 25.5 c 128,-1,43
 155 8 155 8 140 0 c 1,44,-1
 22 0 l 1,0,-1
384 329 m 0,45,46
 413 329 413 329 435 330 c 128,-1,47
 457 331 457 331 462 332 c 1,48,-1
 462 582 l 2,49,50
 462 609 462 609 463 628 c 128,-1,51
 464 647 464 647 465 660 c 1,52,53
 442 662 442 662 421.5 662 c 128,-1,54
 401 662 401 662 384 662 c 0,55,56
 338 662 338 662 301 644.5 c 128,-1,57
 264 627 264 627 242.5 591.5 c 128,-1,58
 221 556 221 556 221 501 c 0,59,60
 221 451 221 451 243 412 c 128,-1,61
 265 373 265 373 302 351 c 128,-1,62
 339 329 339 329 384 329 c 0,45,46
EndSplineSet
EndChar

StartChar: uni0431
Encoding: 1073 1073 297
Width: 544
Flags: W
LayerCount: 2
Fore
SplineSet
273 -15 m 0,0,1
 209 -15 209 -15 156.5 19.5 c 128,-1,2
 104 54 104 54 73 123.5 c 128,-1,3
 42 193 42 193 42 299 c 0,4,5
 42 387 42 387 60.5 464 c 128,-1,6
 79 541 79 541 119.5 597.5 c 128,-1,7
 160 654 160 654 226 679 c 0,8,9
 251 689 251 689 277 693.5 c 128,-1,10
 303 698 303 698 329.5 701.5 c 128,-1,11
 356 705 356 705 382 712 c 0,12,13
 408 720 408 720 421.5 729 c 128,-1,14
 435 738 435 738 443 760 c 1,15,-1
 478 749 l 1,16,17
 471 717 471 717 464 694 c 128,-1,18
 457 671 457 671 441.5 655 c 128,-1,19
 426 639 426 639 391 627 c 0,20,21
 364 618 364 618 336 613 c 128,-1,22
 308 608 308 608 282 604.5 c 128,-1,23
 256 601 256 601 232 594 c 0,24,25
 156 571 156 571 121.5 504.5 c 128,-1,26
 87 438 87 438 88 352 c 1,27,-1
 95 352 l 1,28,29
 118 411 118 411 165.5 446 c 128,-1,30
 213 481 213 481 286 481 c 0,31,32
 349 481 349 481 399 454.5 c 128,-1,33
 449 428 449 428 478.5 376.5 c 128,-1,34
 508 325 508 325 508 250 c 0,35,36
 508 170 508 170 476.5 110 c 128,-1,37
 445 50 445 50 391.5 17.5 c 128,-1,38
 338 -15 338 -15 273 -15 c 0,0,1
277 23 m 0,39,40
 326 23 326 23 355.5 51.5 c 128,-1,41
 385 80 385 80 398 126 c 128,-1,42
 411 172 411 172 411 222 c 0,43,44
 411 277 411 277 396.5 328 c 128,-1,45
 382 379 382 379 350.5 412 c 128,-1,46
 319 445 319 445 268 445 c 0,47,48
 223 445 223 445 194 418 c 128,-1,49
 165 391 165 391 150.5 347.5 c 128,-1,50
 136 304 136 304 136 254 c 0,51,52
 136 182 136 182 152 130.5 c 128,-1,53
 168 79 168 79 199.5 51 c 128,-1,54
 231 23 231 23 277 23 c 0,39,40
EndSplineSet
EndChar

StartChar: uni0432
Encoding: 1074 1074 298
Width: 521
Flags: W
LayerCount: 2
Fore
SplineSet
44 0 m 1,0,-1
 44 30 l 1,1,2
 81 31 81 31 92.5 53.5 c 128,-1,3
 104 76 104 76 104 115 c 2,4,-1
 104 404 l 2,5,6
 104 422 104 422 105 436 c 128,-1,7
 106 450 106 450 108 462 c 1,8,9
 92 461 92 461 76.5 460.5 c 128,-1,10
 61 460 61 460 45 459 c 1,11,-1
 45 500 l 1,12,13
 72 500 72 500 114 500.5 c 128,-1,14
 156 501 156 501 206.5 501 c 128,-1,15
 257 501 257 501 307 501 c 0,16,17
 377 501 377 501 421.5 472.5 c 128,-1,18
 466 444 466 444 465 386 c 0,19,20
 464 346 464 346 437.5 311.5 c 128,-1,21
 411 277 411 277 354 263 c 1,22,23
 422 260 422 260 457 226.5 c 128,-1,24
 492 193 492 193 492 142 c 0,25,26
 492 97 492 97 468 65 c 128,-1,27
 444 33 444 33 405 16.5 c 128,-1,28
 366 0 366 0 321 0 c 2,29,-1
 44 0 l 1,0,-1
188 41 m 1,30,31
 199 40 199 40 217.5 40 c 128,-1,32
 236 40 236 40 252.5 40 c 128,-1,33
 269 40 269 40 273 40 c 0,34,35
 329 40 329 40 362.5 63.5 c 128,-1,36
 396 87 396 87 396 139 c 0,37,38
 396 192 396 192 359 214.5 c 128,-1,39
 322 237 322 237 273 237 c 0,40,41
 252 237 252 237 229.5 236.5 c 128,-1,42
 207 236 207 236 190 235 c 1,43,-1
 190 97 l 2,44,45
 190 78 190 78 189.5 64 c 128,-1,46
 189 50 189 50 188 41 c 1,30,31
190 273 m 1,47,-1
 265 274 l 2,48,49
 306 275 306 275 330 291.5 c 128,-1,50
 354 308 354 308 364 332.5 c 128,-1,51
 374 357 374 357 373 381 c 0,52,53
 373 416 373 416 358 434 c 128,-1,54
 343 452 343 452 319.5 458.5 c 128,-1,55
 296 465 296 465 269 465 c 0,56,57
 233 465 233 465 211.5 452 c 128,-1,58
 190 439 190 439 190 396 c 2,59,-1
 190 273 l 1,47,-1
EndSplineSet
EndChar

StartChar: uni0433
Encoding: 1075 1075 299
Width: 438
Flags: W
LayerCount: 2
Fore
SplineSet
44 0 m 1,0,-1
 44 30 l 1,1,2
 75 30 75 30 87 45.5 c 128,-1,3
 99 61 99 61 101.5 88.5 c 128,-1,4
 104 116 104 116 104 152 c 2,5,-1
 104 394 l 2,6,7
 104 414 104 414 104.5 429.5 c 128,-1,8
 105 445 105 445 108 462 c 1,9,10
 92 461 92 461 76.5 460.5 c 128,-1,11
 61 460 61 460 45 459 c 1,12,-1
 45 500 l 1,13,-1
 421 500 l 1,14,-1
 425 349 l 1,15,-1
 387 349 l 1,16,17
 386 391 386 391 374.5 415.5 c 128,-1,18
 363 440 363 440 334 450 c 128,-1,19
 305 460 305 460 251 460 c 2,20,-1
 190 460 l 1,21,-1
 189 106 l 2,22,23
 189 86 189 86 188.5 70.5 c 128,-1,24
 188 55 188 55 185 38 c 1,25,-1
 248 41 l 1,26,-1
 248 0 l 1,27,-1
 44 0 l 1,0,-1
EndSplineSet
EndChar

StartChar: uni0434
Encoding: 1076 1076 300
Width: 591
Flags: W
LayerCount: 2
Fore
SplineSet
22 -178 m 1,0,-1
 22 38 l 1,1,-1
 63 38 l 2,2,3
 87 38 87 38 103 49.5 c 128,-1,4
 119 61 119 61 134 101 c 0,5,6
 145 131 145 131 153.5 167 c 128,-1,7
 162 203 162 203 168 247.5 c 128,-1,8
 174 292 174 292 178 345 c 128,-1,9
 182 398 182 398 184 461 c 1,10,-1
 96 457 l 1,11,-1
 96 500 l 1,12,-1
 538 500 l 1,13,-1
 538 470 l 1,14,15
 507 470 507 470 495 454.5 c 128,-1,16
 483 439 483 439 481 411.5 c 128,-1,17
 479 384 479 384 479 348 c 2,18,-1
 479 106 l 2,19,20
 478 86 478 86 477 70.5 c 128,-1,21
 476 55 476 55 473 38 c 1,22,-1
 564 42 l 1,23,-1
 564 -178 l 1,24,-1
 526 -178 l 1,25,26
 526 -96 526 -96 509.5 -48 c 128,-1,27
 493 0 493 0 443 0 c 2,28,-1
 144 0 l 2,29,30
 95 0 95 0 77.5 -47.5 c 128,-1,31
 60 -95 60 -95 60 -178 c 1,32,-1
 22 -178 l 1,0,-1
153 38 m 1,33,-1
 332 38 l 2,34,35
 363 38 363 38 375.5 53.5 c 128,-1,36
 388 69 388 69 390.5 96.5 c 128,-1,37
 393 124 393 124 393 160 c 2,38,-1
 393 394 l 2,39,40
 393 414 393 414 393.5 429.5 c 128,-1,41
 394 445 394 445 396 462 c 1,42,-1
 292 462 l 2,43,44
 261 462 261 462 249.5 444 c 128,-1,45
 238 426 238 426 234 395 c 0,46,47
 229 328 229 328 220.5 269.5 c 128,-1,48
 212 211 212 211 203.5 166.5 c 128,-1,49
 195 122 195 122 186 97 c 0,50,51
 179 78 179 78 171 63.5 c 128,-1,52
 163 49 163 49 153 38 c 1,33,-1
EndSplineSet
EndChar

StartChar: uni0436
Encoding: 1078 1078 301
Width: 775
Flags: W
LayerCount: 2
Fore
SplineSet
7 0 m 1,0,-1
 7 30 l 1,1,2
 25 30 25 30 42.5 41.5 c 128,-1,3
 60 53 60 53 79.5 74.5 c 128,-1,4
 99 96 99 96 121 126 c 0,5,6
 141 153 141 153 163.5 182.5 c 128,-1,7
 186 212 186 212 208.5 238 c 128,-1,8
 231 264 231 264 250 278 c 1,9,-1
 179 365 l 2,10,11
 162 384 162 384 137 407 c 128,-1,12
 112 430 112 430 82.5 448.5 c 128,-1,13
 53 467 53 467 19 470 c 1,14,-1
 19 500 l 1,15,-1
 201 500 l 1,16,-1
 201 460 l 1,17,-1
 132 463 l 1,18,19
 146 454 146 454 160.5 440.5 c 128,-1,20
 175 427 175 427 191 410 c 2,21,-1
 299 282 l 1,22,-1
 345 282 l 1,23,-1
 345 394 l 2,24,25
 345 414 345 414 345.5 429.5 c 128,-1,26
 346 445 346 445 349 462 c 1,27,-1
 286 459 l 1,28,-1
 286 500 l 1,29,-1
 490 500 l 1,30,-1
 490 470 l 1,31,32
 460 470 460 470 447.5 454.5 c 128,-1,33
 435 439 435 439 433 411.5 c 128,-1,34
 431 384 431 384 431 348 c 2,35,-1
 430 282 l 1,36,-1
 477 282 l 1,37,-1
 584 410 l 2,38,39
 601 427 601 427 615 440.5 c 128,-1,40
 629 454 629 454 643 463 c 1,41,-1
 575 460 l 1,42,-1
 575 500 l 1,43,-1
 757 500 l 1,44,-1
 757 470 l 1,45,46
 723 467 723 467 693 448.5 c 128,-1,47
 663 430 663 430 639 407 c 128,-1,48
 615 384 615 384 597 365 c 2,49,-1
 526 278 l 1,50,51
 539 268 539 268 553.5 253.5 c 128,-1,52
 568 239 568 239 582 221 c 0,53,54
 601 199 601 199 619.5 174 c 128,-1,55
 638 149 638 149 654 126 c 0,56,57
 676 96 676 96 695.5 74.5 c 128,-1,58
 715 53 715 53 733 41.5 c 128,-1,59
 751 30 751 30 768 30 c 1,60,-1
 768 0 l 1,61,-1
 680 0 l 2,62,63
 656 0 656 0 631 27 c 128,-1,64
 606 54 606 54 575 95 c 0,65,66
 559 117 559 117 540.5 143.5 c 128,-1,67
 522 170 522 170 502.5 196.5 c 128,-1,68
 483 223 483 223 464 245 c 1,69,-1
 430 244 l 1,70,-1
 429 106 l 2,71,72
 429 86 429 86 428.5 70.5 c 128,-1,73
 428 55 428 55 425 38 c 1,74,-1
 488 41 l 1,75,-1
 488 0 l 1,76,-1
 284 0 l 1,77,-1
 284 30 l 1,78,79
 315 30 315 30 327 45.5 c 128,-1,80
 339 61 339 61 341.5 88.5 c 128,-1,81
 344 116 344 116 344 152 c 2,82,-1
 344 244 l 1,83,-1
 311 245 l 1,84,85
 292 223 292 223 272.5 196.5 c 128,-1,86
 253 170 253 170 235 143.5 c 128,-1,87
 217 117 217 117 201 95 c 0,88,89
 170 54 170 54 144.5 27 c 128,-1,90
 119 0 119 0 95 0 c 2,91,-1
 7 0 l 1,0,-1
EndSplineSet
EndChar

StartChar: uni0437
Encoding: 1079 1079 302
Width: 459
Flags: W
LayerCount: 2
Fore
SplineSet
228 -16 m 0,0,1
 163 -16 163 -16 118.5 1 c 128,-1,2
 74 18 74 18 51.5 43.5 c 128,-1,3
 29 69 29 69 29 96 c 0,4,5
 29 121 29 121 41 138 c 128,-1,6
 53 155 53 155 75 155 c 0,7,8
 101 156 101 156 111.5 139.5 c 128,-1,9
 122 123 122 123 122 110 c 0,10,11
 122 100 122 100 118.5 89.5 c 128,-1,12
 115 79 115 79 106 70 c 1,13,14
 120 40 120 40 154.5 29.5 c 128,-1,15
 189 19 189 19 222 19 c 0,16,17
 266 19 266 19 300 44.5 c 128,-1,18
 334 70 334 70 334 127 c 0,19,20
 334 186 334 186 297 211.5 c 128,-1,21
 260 237 260 237 210 237 c 2,22,-1
 165 237 l 1,23,-1
 165 274 l 1,24,-1
 206 274 l 2,25,26
 244 274 244 274 266.5 288 c 128,-1,27
 289 302 289 302 299.5 326.5 c 128,-1,28
 310 351 310 351 310 382 c 0,29,30
 310 427 310 427 287 453 c 128,-1,31
 264 479 264 479 221 479 c 0,32,33
 180 479 180 479 152 457.5 c 128,-1,34
 124 436 124 436 108.5 403.5 c 128,-1,35
 93 371 93 371 91 336 c 1,36,-1
 59 336 l 1,37,-1
 59 511 l 1,38,-1
 101 511 l 1,39,-1
 99 473 l 1,40,41
 130 498 130 498 165.5 507 c 128,-1,42
 201 516 201 516 233 516 c 0,43,44
 305 516 305 516 353.5 481.5 c 128,-1,45
 402 447 402 447 402 388 c 0,46,47
 402 345 402 345 374.5 311.5 c 128,-1,48
 347 278 347 278 295 264 c 1,49,50
 355 259 355 259 392.5 224.5 c 128,-1,51
 430 190 430 190 430 134 c 0,52,53
 430 89 430 89 404.5 55.5 c 128,-1,54
 379 22 379 22 333.5 3 c 128,-1,55
 288 -16 288 -16 228 -16 c 0,0,1
EndSplineSet
EndChar

StartChar: uni0438
Encoding: 1080 1080 303
Width: 627
Flags: W
LayerCount: 2
Fore
SplineSet
250 470 m 1,0,1
 219 470 219 470 207 454.5 c 128,-1,2
 195 439 195 439 193 411.5 c 128,-1,3
 191 384 191 384 190 348 c 2,4,-1
 189 106 l 2,5,6
 189 86 189 86 188.5 70.5 c 128,-1,7
 188 55 188 55 185 38 c 1,8,9
 201 39 201 39 216.5 39.5 c 128,-1,10
 232 40 232 40 248 41 c 1,11,-1
 248 0 l 1,12,-1
 44 0 l 1,13,-1
 44 30 l 1,14,15
 75 30 75 30 87 45.5 c 128,-1,16
 99 61 99 61 101.5 88.5 c 128,-1,17
 104 116 104 116 104 152 c 2,18,-1
 104 394 l 2,19,20
 104 414 104 414 104.5 429.5 c 128,-1,21
 105 445 105 445 108 462 c 1,22,23
 92 461 92 461 76.5 460.5 c 128,-1,24
 61 460 61 460 45 459 c 1,25,-1
 45 500 l 1,26,-1
 250 500 l 1,27,-1
 250 470 l 1,0,1
446 452 m 1,28,-1
 478 428 l 1,29,-1
 171 43 l 1,30,-1
 137 71 l 1,31,-1
 446 452 l 1,28,-1
583 470 m 1,32,33
 553 470 553 470 540.5 454.5 c 128,-1,34
 528 439 528 439 526 411.5 c 128,-1,35
 524 384 524 384 524 348 c 2,36,-1
 522 106 l 2,37,38
 522 86 522 86 521.5 70.5 c 128,-1,39
 521 55 521 55 519 38 c 1,40,41
 535 39 535 39 550.5 39.5 c 128,-1,42
 566 40 566 40 582 41 c 1,43,-1
 582 0 l 1,44,-1
 377 0 l 1,45,-1
 377 30 l 1,46,47
 408 30 408 30 420 45.5 c 128,-1,48
 432 61 432 61 434.5 88.5 c 128,-1,49
 437 116 437 116 437 152 c 2,50,-1
 438 394 l 2,51,52
 438 414 438 414 438.5 429.5 c 128,-1,53
 439 445 439 445 442 462 c 1,54,55
 426 461 426 461 410.5 460.5 c 128,-1,56
 395 460 395 460 379 459 c 1,57,-1
 379 500 l 1,58,-1
 583 500 l 1,59,-1
 583 470 l 1,32,33
EndSplineSet
EndChar

StartChar: uni0439
Encoding: 1081 1081 304
Width: 627
Flags: W
LayerCount: 2
Fore
SplineSet
314 577 m 260
 256 577 256 577 215 600.5 c 4
 174 624 174 624 174 664 c 4
 174 682 174 682 184 695.5 c 4
 194 709 194 709 213 710 c 4
 230 711 230 711 239 703.5 c 4
 248 696 248 696 251.5 686.5 c 4
 255 677 255 677 255 669 c 260
 255 661 255 661 253 651 c 4
 251 641 251 641 246 633 c 5
 251 623 251 623 272.5 618.5 c 4
 294 614 294 614 314 614 c 260
 334 614 334 614 355 618.5 c 4
 376 623 376 623 382 633 c 5
 377 641 377 641 375 651 c 4
 373 661 373 661 373 669 c 260
 373 677 373 677 376.5 686.5 c 4
 380 696 380 696 389 703.5 c 4
 398 711 398 711 415 710 c 4
 433 709 433 709 443.5 695.5 c 4
 454 682 454 682 454 664 c 4
 454 624 454 624 413 600.5 c 4
 372 577 372 577 314 577 c 260
EndSplineSet
Refer: 303 1080 N 1 0 0 1 0 0 3
EndChar

